<svg xmlns="http://www.w3.org/2000/svg" xmlns:xlink="http://www.w3.org/1999/xlink" width="400" zoomAndPan="magnify" viewBox="0 0 300 299.999988" height="400" preserveAspectRatio="xMidYMid meet" version="1.0"><defs><clipPath id="462a0114ae"><path d="M 146 232 L 240 232 L 240 238.296875 L 146 238.296875 Z M 146 232 " clip-rule="nonzero"/></clipPath><clipPath id="6a1c85e981"><path d="M 146 236 L 240 236 L 240 238.296875 L 146 238.296875 Z M 146 236 " clip-rule="nonzero"/></clipPath><clipPath id="25919a9357"><path d="M 29 232 L 89 232 L 89 238.296875 L 29 238.296875 Z M 29 232 " clip-rule="nonzero"/></clipPath><clipPath id="8e4f8d8a22"><path d="M 29 236 L 89 236 L 89 238.296875 L 29 238.296875 Z M 29 236 " clip-rule="nonzero"/></clipPath><clipPath id="26e9f7784b"><path d="M 274 96 L 284.453125 96 L 284.453125 185 L 274 185 Z M 274 96 " clip-rule="nonzero"/></clipPath><clipPath id="bdccf20756"><path d="M 274 153 L 284.453125 153 L 284.453125 185 L 274 185 Z M 274 153 " clip-rule="nonzero"/></clipPath><clipPath id="cb41a18733"><path d="M 15.203125 113 L 19 113 L 19 167 L 15.203125 167 Z M 15.203125 113 " clip-rule="nonzero"/></clipPath><clipPath id="101f686acc"><path d="M 35 62.046875 L 81 62.046875 L 81 66 L 35 66 Z M 35 62.046875 " clip-rule="nonzero"/></clipPath></defs><path fill="#407ace" d="M 165.570312 83.695312 L 218.113281 83.695312 L 218.113281 95.289062 L 165.570312 95.289062 Z M 165.570312 83.695312 " fill-opacity="1" fill-rule="nonzero"/><path fill="#1854aa" d="M 218.113281 83.695312 L 218.113281 95.289062 L 201.625 95.289062 L 201.625 91.5 C 198.476562 91.6875 195.203125 91.78125 191.84375 91.78125 C 186.84375 91.78125 182.039062 91.570312 177.546875 91.183594 C 174.777344 90.941406 172.121094 90.628906 169.621094 90.257812 C 168.21875 90.050781 166.867188 89.824219 165.570312 89.578125 L 165.570312 83.695312 Z M 218.113281 83.695312 " fill-opacity="1" fill-rule="nonzero"/><path fill="#344859" d="M 220.910156 77.296875 L 220.910156 77.378906 C 220.910156 78.265625 220.902344 79.140625 220.886719 80.015625 C 220.863281 81.3125 220.832031 82.601562 220.78125 83.875 C 220.730469 85.140625 219.910156 86.195312 218.8125 86.410156 C 211.328125 87.878906 201.980469 88.75 191.84375 88.75 C 186.84375 88.75 182.039062 88.535156 177.546875 88.148438 C 174.777344 87.90625 172.121094 87.59375 169.621094 87.222656 C 167.96875 86.976562 166.378906 86.707031 164.871094 86.410156 C 163.773438 86.195312 162.953125 85.140625 162.902344 83.875 C 162.851562 82.601562 162.820312 81.3125 162.796875 80.015625 C 162.78125 79.140625 162.773438 78.265625 162.773438 77.378906 L 162.773438 77.296875 C 162.773438 75.074219 162.820312 72.882812 162.902344 70.71875 C 162.953125 69.449219 163.773438 68.394531 164.871094 68.183594 C 166.378906 67.886719 167.96875 67.617188 169.621094 67.371094 C 172.121094 67 174.777344 66.6875 177.546875 66.445312 C 182.039062 66.058594 186.84375 65.84375 191.84375 65.84375 C 201.980469 65.84375 211.328125 66.714844 218.8125 68.183594 C 219.910156 68.394531 220.730469 69.449219 220.78125 70.71875 C 220.863281 72.882812 220.910156 75.074219 220.910156 77.296875 Z M 220.910156 77.296875 " fill-opacity="1" fill-rule="nonzero"/><path fill="#51697e" d="M 177.15625 86.292969 C 177.179688 86.96875 177.3125 87.609375 177.550781 88.148438 C 174.777344 87.90625 172.121094 87.59375 169.621094 87.222656 C 169.5625 86.925781 169.523438 86.613281 169.515625 86.292969 C 169.464844 84.546875 169.433594 82.78125 169.410156 81.015625 C 169.394531 79.820312 169.386719 78.621094 169.386719 77.410156 L 169.386719 77.296875 C 169.386719 74.261719 169.433594 71.261719 169.515625 68.300781 C 169.523438 67.980469 169.5625 67.667969 169.621094 67.371094 C 172.121094 67 174.777344 66.6875 177.546875 66.445312 C 177.3125 66.984375 177.179688 67.621094 177.15625 68.300781 C 177.074219 71.261719 177.027344 74.261719 177.027344 77.296875 L 177.027344 77.410156 C 177.027344 78.621094 177.035156 79.820312 177.050781 81.015625 C 177.074219 82.78125 177.105469 84.546875 177.15625 86.292969 Z M 177.15625 86.292969 " fill-opacity="1" fill-rule="nonzero"/><path fill="#1f2b36" d="M 220.910156 77.296875 L 220.910156 77.378906 C 220.910156 78.265625 220.902344 79.140625 220.886719 80.015625 C 220.863281 81.3125 220.832031 82.601562 220.78125 83.875 C 220.730469 85.140625 219.910156 86.195312 218.8125 86.410156 C 215.382812 87.082031 211.546875 87.632812 207.425781 88.03125 C 207.773438 87.449219 207.992188 86.683594 208.019531 85.859375 C 208.070312 84.199219 208.101562 82.523438 208.125 80.835938 C 208.140625 79.695312 208.148438 78.558594 208.148438 77.402344 L 208.148438 77.296875 C 208.148438 74.402344 208.101562 71.546875 208.019531 68.726562 C 207.996094 67.902344 207.773438 67.144531 207.425781 66.5625 C 211.546875 66.960938 215.382812 67.511719 218.8125 68.183594 C 219.910156 68.398438 220.730469 69.449219 220.78125 70.71875 C 220.863281 72.882812 220.910156 75.074219 220.910156 77.296875 Z M 220.910156 77.296875 " fill-opacity="1" fill-rule="nonzero"/><path fill="#1f2b36" d="M 220.910156 77.378906 C 220.910156 78.265625 220.902344 79.140625 220.886719 80.015625 C 212.75 80.207031 202.714844 80.332031 191.84375 80.332031 C 180.96875 80.332031 170.9375 80.207031 162.796875 80.015625 C 162.78125 79.140625 162.773438 78.265625 162.773438 77.378906 C 170.917969 77.191406 180.964844 77.066406 191.84375 77.066406 C 202.71875 77.066406 212.765625 77.191406 220.910156 77.378906 Z M 220.910156 77.378906 " fill-opacity="1" fill-rule="nonzero"/><path fill="#51697e" d="M 221.816406 76.6875 C 221.816406 76.304688 221.523438 75.992188 221.148438 75.984375 C 212.960938 75.785156 202.824219 75.664062 191.84375 75.664062 C 180.859375 75.664062 170.722656 75.785156 162.539062 75.984375 C 162.164062 75.992188 161.871094 76.304688 161.867188 76.6875 C 161.867188 76.890625 161.867188 77.09375 161.867188 77.296875 C 161.867188 77.5 161.867188 77.703125 161.867188 77.90625 C 161.871094 78.289062 162.164062 78.597656 162.539062 78.609375 C 170.722656 78.808594 180.859375 78.929688 191.84375 78.929688 C 202.824219 78.929688 212.960938 78.804688 221.148438 78.609375 C 221.523438 78.597656 221.816406 78.289062 221.816406 77.90625 C 221.816406 77.703125 221.816406 77.5 221.816406 77.296875 C 221.816406 77.09375 221.816406 76.890625 221.816406 76.6875 Z M 221.816406 76.6875 " fill-opacity="1" fill-rule="nonzero"/><path fill="#728a9f" d="M 190.230469 76.078125 C 181.972656 76.089844 173.660156 76.167969 166.113281 76.316406 C 165.804688 76.320312 165.5625 76.578125 165.570312 76.886719 C 165.574219 77.199219 165.828125 77.441406 166.136719 77.4375 C 173.675781 77.292969 181.980469 77.210938 190.234375 77.203125 C 190.542969 77.203125 190.792969 76.949219 190.792969 76.640625 C 190.792969 76.332031 190.539062 76.078125 190.230469 76.078125 Z M 190.230469 76.078125 " fill-opacity="1" fill-rule="nonzero"/><path fill="#474c6f" d="M 94.855469 103.707031 L 116.097656 103.707031 L 116.097656 176.464844 L 94.855469 176.464844 Z M 94.855469 103.707031 " fill-opacity="1" fill-rule="nonzero"/><path fill="#373b57" d="M 94.855469 156.601562 L 116.097656 156.601562 L 116.097656 176.464844 L 94.855469 176.464844 Z M 94.855469 156.601562 " fill-opacity="1" fill-rule="nonzero"/><path fill="#474c6f" d="M 94.996094 140.089844 L 91.820312 180.210938 C 90.3125 177.8125 89.203125 180.113281 89.203125 180.113281 L 86.472656 140.089844 L 89.832031 100.136719 C 89.832031 100.136719 90.933594 102.539062 92.441406 100.136719 Z M 94.996094 140.089844 " fill-opacity="1" fill-rule="nonzero"/><path fill="#afb4d0" d="M 89.832031 100.136719 L 89.832031 154.59375 C 89.832031 163.375 89.613281 171.917969 89.207031 180.109375 C 89.167969 180.882812 88.53125 181.484375 87.757812 181.484375 L 76.808594 181.484375 L 76.808594 98.691406 L 88.390625 98.691406 C 89.183594 98.691406 89.832031 99.34375 89.832031 100.136719 Z M 89.832031 100.136719 " fill-opacity="1" fill-rule="nonzero"/><path fill="#afb4d0" d="M 100.453125 100.136719 L 100.453125 154.59375 C 100.453125 163.375 100.234375 171.917969 99.828125 180.109375 C 99.789062 180.882812 99.148438 181.484375 98.378906 181.484375 L 93.265625 181.484375 C 92.4375 181.484375 91.78125 180.796875 91.820312 179.964844 C 92.230469 171.816406 92.441406 163.324219 92.441406 154.59375 L 92.441406 100.136719 C 92.441406 99.34375 93.089844 98.691406 93.882812 98.691406 L 99.011719 98.691406 C 99.804688 98.691406 100.453125 99.34375 100.453125 100.136719 Z M 100.453125 100.136719 " fill-opacity="1" fill-rule="nonzero"/><path fill="#666d97" d="M 100.453125 152.492188 L 100.453125 154.59375 C 100.453125 163.375 100.234375 171.917969 99.828125 180.109375 C 99.789062 180.882812 99.148438 181.484375 98.378906 181.484375 L 93.265625 181.484375 C 92.4375 181.484375 91.78125 180.796875 91.820312 179.964844 C 92.230469 171.816406 92.441406 163.324219 92.441406 154.59375 L 92.441406 152.492188 Z M 100.453125 152.492188 " fill-opacity="1" fill-rule="nonzero"/><path fill="#666d97" d="M 89.832031 152.492188 L 89.832031 154.59375 C 89.832031 163.375 89.613281 171.917969 89.207031 180.109375 C 89.167969 180.882812 88.53125 181.484375 87.757812 181.484375 L 76.808594 181.484375 L 76.808594 98.691406 L 85.738281 98.691406 L 85.738281 148.386719 C 85.738281 150.652344 87.570312 152.492188 89.832031 152.492188 Z M 89.832031 152.492188 " fill-opacity="1" fill-rule="nonzero"/><path fill="#dbddf4" d="M 87.5625 107.484375 L 89.832031 107.484375 L 89.832031 130.082031 L 87.5625 130.082031 Z M 87.5625 107.484375 " fill-opacity="1" fill-rule="nonzero"/><path fill="#dbddf4" d="M 92.441406 107.484375 L 100.453125 107.484375 L 100.453125 130.082031 L 92.441406 130.082031 Z M 92.441406 107.484375 " fill-opacity="1" fill-rule="nonzero"/><path fill="#2658b8" d="M 162.375 183.152344 L 223.730469 183.152344 L 223.730469 233.992188 L 162.375 233.992188 Z M 162.375 183.152344 " fill-opacity="1" fill-rule="nonzero"/><path fill="#093f8b" d="M 223.730469 183.152344 L 223.730469 233.992188 L 213.292969 233.992188 L 213.292969 192.589844 L 162.375 192.589844 L 162.375 183.152344 Z M 223.730469 183.152344 " fill-opacity="1" fill-rule="nonzero"/><g clip-path="url(#462a0114ae)"><path fill="#407ace" d="M 239.4375 236.875 L 238.035156 233.785156 C 237.578125 232.773438 236.574219 232.125 235.46875 232.125 L 150.632812 232.125 C 149.527344 232.125 148.523438 232.773438 148.066406 233.785156 L 146.667969 236.875 C 146.367188 237.539062 146.851562 238.296875 147.582031 238.296875 L 238.523438 238.296875 C 239.253906 238.296875 239.738281 237.539062 239.4375 236.875 Z M 239.4375 236.875 " fill-opacity="1" fill-rule="nonzero"/></g><g clip-path="url(#6a1c85e981)"><path fill="#2658b8" d="M 238.527344 238.296875 L 147.582031 238.296875 C 146.851562 238.296875 146.363281 237.539062 146.667969 236.871094 L 147.046875 236.035156 C 147.199219 236.136719 147.382812 236.191406 147.582031 236.191406 L 238.527344 236.191406 C 238.726562 236.191406 238.90625 236.136719 239.054688 236.035156 L 239.4375 236.871094 C 239.738281 237.539062 239.253906 238.296875 238.527344 238.296875 Z M 238.527344 238.296875 " fill-opacity="1" fill-rule="nonzero"/></g><path fill="#2658b8" d="M 80.601562 233.386719 L 36.738281 233.386719 L 39.71875 218.269531 L 41.210938 210.675781 L 76.132812 210.675781 L 77.625 218.269531 Z M 80.601562 233.386719 " fill-opacity="1" fill-rule="nonzero"/><path fill="#093f8b" d="M 77.625 218.269531 C 76.710938 220.257812 75.492188 222.078125 74.027344 223.664062 C 70.238281 227.792969 64.816406 230.355469 58.859375 230.359375 L 58.484375 230.359375 C 50.238281 230.347656 43.023438 225.449219 39.71875 218.269531 L 41.210938 210.675781 L 76.132812 210.675781 Z M 77.625 218.269531 " fill-opacity="1" fill-rule="nonzero"/><g clip-path="url(#25919a9357)"><path fill="#407ace" d="M 87.933594 236.875 L 86.535156 233.785156 C 86.078125 232.773438 85.074219 232.125 83.96875 232.125 L 33.371094 232.125 C 32.265625 232.125 31.265625 232.773438 30.808594 233.785156 L 29.40625 236.875 C 29.105469 237.539062 29.589844 238.296875 30.320312 238.296875 L 87.023438 238.296875 C 87.75 238.296875 88.238281 237.539062 87.933594 236.875 Z M 87.933594 236.875 " fill-opacity="1" fill-rule="nonzero"/></g><g clip-path="url(#8e4f8d8a22)"><path fill="#2658b8" d="M 87.023438 238.296875 L 30.324219 238.296875 C 29.589844 238.296875 29.105469 237.539062 29.40625 236.871094 L 29.785156 236.035156 C 29.9375 236.136719 30.121094 236.191406 30.324219 236.191406 L 87.023438 236.191406 C 87.226562 236.191406 87.40625 236.136719 87.554688 236.035156 L 87.9375 236.871094 C 88.238281 237.539062 87.75 238.296875 87.023438 238.296875 Z M 87.023438 238.296875 " fill-opacity="1" fill-rule="nonzero"/></g><path fill="#093f8b" d="M 134.898438 98.808594 L 149.34375 98.808594 L 149.34375 181.371094 L 134.898438 181.371094 Z M 134.898438 98.808594 " fill-opacity="1" fill-rule="nonzero"/><path fill="#1854aa" d="M 145.570312 97.898438 L 240.769531 97.898438 L 240.769531 184.019531 L 145.570312 184.019531 Z M 145.570312 97.898438 " fill-opacity="1" fill-rule="nonzero"/><path fill="#093f8b" d="M 145.570312 98.957031 L 240.769531 98.957031 L 240.769531 104.625 L 145.570312 104.625 Z M 145.570312 98.957031 " fill-opacity="1" fill-rule="nonzero"/><path fill="#093f8b" d="M 145.570312 111.652344 L 240.769531 111.652344 L 240.769531 118.6875 L 145.570312 118.6875 Z M 145.570312 111.652344 " fill-opacity="1" fill-rule="nonzero"/><path fill="#093f8b" d="M 145.570312 125.714844 L 240.769531 125.714844 L 240.769531 132.75 L 145.570312 132.75 Z M 145.570312 125.714844 " fill-opacity="1" fill-rule="nonzero"/><path fill="#093f8b" d="M 240.847656 146.8125 L 145.570312 146.8125 L 145.570312 139.777344 L 240.769531 139.777344 L 240.769531 145.921875 Z M 240.847656 146.8125 " fill-opacity="1" fill-rule="nonzero"/><path fill="#093f8b" d="M 145.570312 153.835938 L 240.769531 153.835938 L 240.769531 160.875 L 145.570312 160.875 Z M 145.570312 153.835938 " fill-opacity="1" fill-rule="nonzero"/><path fill="#093f8b" d="M 145.570312 167.898438 L 240.769531 167.898438 L 240.769531 174.933594 L 145.570312 174.933594 Z M 145.570312 167.898438 " fill-opacity="1" fill-rule="nonzero"/><path fill="#093f8b" d="M 238.40625 117.625 L 236.394531 117.625 L 236.789062 110.585938 L 237.785156 110.585938 Z M 238.40625 117.625 " fill-opacity="1" fill-rule="nonzero"/><path fill="#093f8b" d="M 239.625 131.6875 L 235.601562 131.6875 L 236 124.648438 L 239.015625 124.648438 Z M 239.625 131.6875 " fill-opacity="1" fill-rule="nonzero"/><path fill="#093f8b" d="M 240.847656 145.75 L 234.8125 145.75 L 235.207031 138.714844 L 240.234375 138.714844 L 240.769531 144.859375 Z M 240.847656 145.75 " fill-opacity="1" fill-rule="nonzero"/><path fill="#093f8b" d="M 240.769531 152.777344 L 240.769531 159.8125 L 234.011719 159.8125 L 234.417969 152.777344 Z M 240.769531 152.777344 " fill-opacity="1" fill-rule="nonzero"/><path fill="#093f8b" d="M 240.769531 166.835938 L 240.769531 173.875 L 233.222656 173.875 L 233.617188 166.835938 Z M 240.769531 166.835938 " fill-opacity="1" fill-rule="nonzero"/><path fill="#093f8b" d="M 240.769531 180.898438 L 240.769531 184.019531 L 232.65625 184.019531 L 232.828125 180.898438 Z M 240.769531 180.898438 " fill-opacity="1" fill-rule="nonzero"/><path fill="#579adf" d="M 243.726562 95.875 C 243.679688 95.039062 243.121094 94.382812 242.441406 94.382812 L 145.476562 94.382812 C 144.796875 94.382812 144.238281 95.039062 144.191406 95.875 C 144.152344 96.546875 144.132812 97.222656 144.132812 97.898438 C 144.132812 98.578125 144.152344 99.257812 144.191406 99.929688 C 144.238281 100.769531 144.796875 101.421875 145.476562 101.421875 L 242.441406 101.421875 C 243.121094 101.421875 243.679688 100.769531 243.730469 99.929688 C 243.765625 99.257812 243.785156 98.578125 243.785156 97.898438 C 243.785156 97.222656 243.765625 96.546875 243.726562 95.875 Z M 243.726562 95.875 " fill-opacity="1" fill-rule="nonzero"/><path fill="#579adf" d="M 243.785156 111.960938 C 243.785156 112.636719 243.769531 113.316406 243.726562 113.996094 C 243.683594 114.824219 243.125 115.484375 242.445312 115.484375 L 145.472656 115.484375 C 144.796875 115.484375 144.238281 114.824219 144.195312 113.996094 C 144.152344 113.316406 144.132812 112.636719 144.132812 111.960938 C 144.132812 111.28125 144.152344 110.613281 144.195312 109.933594 C 144.238281 109.09375 144.796875 108.445312 145.472656 108.445312 L 242.445312 108.445312 C 243.125 108.445312 243.683594 109.09375 243.726562 109.933594 C 243.769531 110.613281 243.785156 111.28125 243.785156 111.960938 Z M 243.785156 111.960938 " fill-opacity="1" fill-rule="nonzero"/><path fill="#579adf" d="M 243.785156 126.019531 C 243.785156 126.699219 243.769531 127.378906 243.726562 128.058594 C 243.683594 128.886719 243.125 129.542969 242.445312 129.542969 L 145.472656 129.542969 C 144.796875 129.542969 144.238281 128.886719 144.195312 128.058594 C 144.152344 127.378906 144.132812 126.699219 144.132812 126.019531 C 144.132812 125.34375 144.152344 124.671875 144.195312 123.996094 C 144.238281 123.15625 144.796875 122.507812 145.472656 122.507812 L 242.445312 122.507812 C 243.125 122.507812 243.683594 123.15625 243.726562 123.996094 C 243.769531 124.671875 243.785156 125.34375 243.785156 126.019531 Z M 243.785156 126.019531 " fill-opacity="1" fill-rule="nonzero"/><path fill="#579adf" d="M 243.785156 140.082031 C 243.785156 140.761719 243.769531 141.441406 243.726562 142.109375 C 243.683594 142.949219 243.125 143.605469 242.445312 143.605469 L 145.472656 143.605469 C 144.796875 143.605469 144.238281 142.949219 144.195312 142.109375 C 144.152344 141.441406 144.132812 140.761719 144.132812 140.082031 C 144.132812 139.402344 144.152344 138.734375 144.195312 138.054688 C 144.238281 137.21875 144.796875 136.570312 145.472656 136.570312 L 242.445312 136.570312 C 243.125 136.570312 243.683594 137.21875 243.726562 138.054688 C 243.769531 138.734375 243.785156 139.402344 243.785156 140.082031 Z M 243.785156 140.082031 " fill-opacity="1" fill-rule="nonzero"/><path fill="#579adf" d="M 243.785156 154.144531 C 243.785156 154.824219 243.769531 155.503906 243.726562 156.171875 C 243.683594 157.011719 243.125 157.667969 242.445312 157.667969 L 145.472656 157.667969 C 144.796875 157.667969 144.238281 157.011719 144.195312 156.171875 C 144.152344 155.503906 144.132812 154.824219 144.132812 154.144531 C 144.132812 153.464844 144.152344 152.796875 144.195312 152.117188 C 144.238281 151.28125 144.796875 150.632812 145.472656 150.632812 L 242.445312 150.632812 C 243.125 150.632812 243.683594 151.28125 243.726562 152.117188 C 243.769531 152.796875 243.785156 153.464844 243.785156 154.144531 Z M 243.785156 154.144531 " fill-opacity="1" fill-rule="nonzero"/><path fill="#579adf" d="M 243.785156 168.207031 C 243.785156 168.886719 243.769531 169.566406 243.726562 170.234375 C 243.699219 170.691406 243.527344 171.09375 243.261719 171.359375 C 243.039062 171.59375 242.753906 171.730469 242.445312 171.730469 L 145.472656 171.730469 C 144.796875 171.730469 144.238281 171.070312 144.195312 170.234375 C 144.152344 169.566406 144.132812 168.886719 144.132812 168.207031 C 144.132812 167.527344 144.152344 166.847656 144.195312 166.179688 C 144.238281 165.339844 144.796875 164.695312 145.472656 164.695312 L 242.445312 164.695312 C 242.53125 164.695312 242.609375 164.703125 242.6875 164.726562 C 243.253906 164.851562 243.691406 165.449219 243.726562 166.179688 C 243.769531 166.847656 243.785156 167.527344 243.785156 168.207031 Z M 243.785156 168.207031 " fill-opacity="1" fill-rule="nonzero"/><path fill="#579adf" d="M 243.785156 182.269531 C 243.785156 182.949219 243.769531 183.628906 243.726562 184.296875 C 243.683594 185.132812 243.125 185.792969 242.445312 185.792969 L 145.472656 185.792969 C 144.796875 185.792969 144.238281 185.132812 144.195312 184.296875 C 144.152344 183.628906 144.132812 182.949219 144.132812 182.269531 C 144.132812 181.589844 144.152344 180.910156 144.195312 180.242188 C 144.238281 179.402344 144.796875 178.757812 145.472656 178.757812 L 242.445312 178.757812 C 243.125 178.757812 243.683594 179.402344 243.726562 180.242188 C 243.769531 180.910156 243.785156 181.589844 243.785156 182.269531 Z M 243.785156 182.269531 " fill-opacity="1" fill-rule="nonzero"/><path fill="#2f6bca" d="M 145.472656 101.417969 L 242.445312 101.417969 C 243.125 101.417969 243.683594 100.769531 243.726562 99.933594 C 243.769531 99.253906 243.785156 98.574219 243.785156 97.894531 C 243.785156 97.4375 243.777344 96.980469 243.753906 96.527344 C 243.753906 96.738281 243.742188 96.949219 243.726562 97.164062 C 243.683594 98 243.125 98.660156 242.445312 98.660156 L 145.472656 98.660156 C 144.796875 98.660156 144.238281 98 144.195312 97.164062 C 144.175781 96.949219 144.167969 96.738281 144.167969 96.527344 C 144.140625 96.980469 144.132812 97.4375 144.132812 97.894531 C 144.132812 98.574219 144.152344 99.253906 144.195312 99.933594 C 144.238281 100.769531 144.796875 101.417969 145.472656 101.417969 Z M 145.472656 101.417969 " fill-opacity="1" fill-rule="nonzero"/><path fill="#2f6bca" d="M 243.726562 111.222656 C 243.683594 112.0625 243.125 112.71875 242.445312 112.71875 L 238.164062 112.71875 L 237.785156 108.445312 L 236.789062 108.445312 L 236.550781 112.71875 L 145.472656 112.71875 C 144.796875 112.71875 144.238281 112.0625 144.195312 111.222656 C 144.175781 111.011719 144.167969 110.800781 144.167969 110.585938 C 144.140625 111.042969 144.132812 111.5 144.132812 111.957031 C 144.132812 112.636719 144.152344 113.316406 144.195312 113.992188 C 144.238281 114.832031 144.796875 115.480469 145.472656 115.480469 L 236.394531 115.480469 L 236.394531 115.484375 L 238.40625 115.484375 L 238.40625 115.480469 L 242.445312 115.480469 C 243.125 115.480469 243.683594 114.832031 243.726562 113.992188 C 243.769531 113.316406 243.785156 112.636719 243.785156 111.957031 C 243.785156 111.5 243.777344 111.042969 243.753906 110.585938 C 243.75 110.800781 243.742188 111.011719 243.726562 111.222656 Z M 243.726562 111.222656 " fill-opacity="1" fill-rule="nonzero"/><path fill="#2f6bca" d="M 243.726562 125.285156 C 243.683594 126.125 243.125 126.78125 242.445312 126.78125 L 239.386719 126.78125 L 239.015625 122.507812 L 236 122.507812 L 235.757812 126.78125 L 145.472656 126.78125 C 144.796875 126.78125 144.238281 126.125 144.195312 125.285156 C 144.175781 125.074219 144.167969 124.851562 144.167969 124.636719 C 144.140625 125.105469 144.132812 125.5625 144.132812 126.019531 C 144.132812 126.699219 144.152344 127.375 144.195312 128.054688 C 144.238281 128.894531 144.796875 129.542969 145.472656 129.542969 L 242.445312 129.542969 C 243.125 129.542969 243.683594 128.894531 243.726562 128.054688 C 243.769531 127.375 243.785156 126.699219 243.785156 126.019531 C 243.785156 125.5625 243.777344 125.105469 243.753906 124.636719 C 243.75 124.851562 243.742188 125.074219 243.726562 125.285156 Z M 243.726562 125.285156 " fill-opacity="1" fill-rule="nonzero"/><path fill="#2f6bca" d="M 243.726562 139.347656 C 243.683594 140.1875 243.125 140.84375 242.445312 140.84375 L 240.605469 140.84375 L 240.234375 136.570312 L 235.207031 136.570312 L 234.96875 140.84375 L 145.472656 140.84375 C 144.796875 140.84375 144.238281 140.1875 144.195312 139.347656 C 144.175781 139.136719 144.167969 138.914062 144.167969 138.699219 C 144.140625 139.15625 144.132812 139.613281 144.132812 140.082031 C 144.132812 140.757812 144.152344 141.4375 144.195312 142.117188 C 144.238281 142.957031 144.796875 143.605469 145.472656 143.605469 L 242.445312 143.605469 C 243.125 143.605469 243.683594 142.957031 243.726562 142.117188 C 243.769531 141.4375 243.785156 140.757812 243.785156 140.082031 C 243.785156 139.613281 243.777344 139.15625 243.753906 138.699219 C 243.75 138.914062 243.742188 139.136719 243.726562 139.347656 Z M 243.726562 139.347656 " fill-opacity="1" fill-rule="nonzero"/><path fill="#2f6bca" d="M 243.726562 153.410156 C 243.683594 154.25 243.125 154.90625 242.445312 154.90625 L 241.828125 154.90625 L 241.457031 150.632812 L 234.417969 150.632812 L 234.171875 154.90625 L 145.472656 154.90625 C 144.796875 154.90625 144.238281 154.246094 144.195312 153.410156 C 144.175781 153.199219 144.167969 152.976562 144.167969 152.761719 C 144.140625 153.230469 144.132812 153.6875 144.132812 154.140625 C 144.132812 154.820312 144.152344 155.5 144.195312 156.179688 C 144.238281 157.019531 144.796875 157.664062 145.472656 157.664062 L 234.011719 157.664062 L 234.011719 157.667969 L 242.066406 157.667969 L 242.066406 157.664062 L 242.445312 157.664062 C 243.125 157.664062 243.683594 157.019531 243.726562 156.179688 C 243.769531 155.5 243.785156 154.820312 243.785156 154.140625 C 243.785156 153.6875 243.777344 153.230469 243.753906 152.761719 C 243.75 152.976562 243.742188 153.199219 243.726562 153.410156 Z M 243.726562 153.410156 " fill-opacity="1" fill-rule="nonzero"/><path fill="#2f6bca" d="M 243.726562 167.472656 C 243.695312 168.046875 243.421875 168.523438 243.039062 168.773438 L 242.6875 164.726562 C 242.609375 164.703125 242.53125 164.695312 242.445312 164.695312 L 233.617188 164.695312 L 233.378906 168.957031 L 145.472656 168.957031 C 144.796875 168.957031 144.238281 168.308594 144.195312 167.472656 C 144.175781 167.257812 144.167969 167.035156 144.167969 166.824219 C 144.140625 167.28125 144.132812 167.738281 144.132812 168.203125 C 144.132812 168.882812 144.152344 169.5625 144.195312 170.242188 C 144.238281 171.070312 144.796875 171.726562 145.472656 171.726562 L 233.222656 171.726562 L 233.222656 171.730469 L 242.445312 171.730469 C 242.453125 171.730469 242.464844 171.722656 242.472656 171.722656 C 242.605469 171.722656 242.730469 171.691406 242.847656 171.640625 C 242.867188 171.632812 242.882812 171.628906 242.902344 171.621094 C 243.027344 171.5625 243.144531 171.472656 243.246094 171.371094 C 243.25 171.363281 243.257812 171.363281 243.261719 171.359375 L 243.261719 171.355469 C 243.523438 171.085938 243.703125 170.691406 243.726562 170.242188 C 243.769531 169.5625 243.785156 168.882812 243.785156 168.203125 C 243.785156 167.738281 243.777344 167.28125 243.753906 166.824219 C 243.75 167.035156 243.742188 167.257812 243.726562 167.472656 Z M 243.726562 167.472656 " fill-opacity="1" fill-rule="nonzero"/><path fill="#2f6bca" d="M 243.75 180.886719 C 243.75 180.917969 243.75 180.949219 243.746094 180.980469 C 243.738281 180.734375 243.742188 180.484375 243.726562 180.242188 C 243.683594 179.402344 243.125 178.757812 242.445312 178.757812 L 232.828125 178.757812 L 232.585938 183.019531 L 145.472656 183.019531 C 144.796875 183.019531 144.238281 182.371094 144.195312 181.535156 C 144.175781 181.320312 144.167969 181.097656 144.167969 180.886719 C 144.140625 181.351562 144.132812 181.808594 144.132812 182.265625 C 144.132812 182.945312 144.152344 183.625 144.195312 184.304688 C 144.238281 185.132812 144.796875 185.789062 145.472656 185.789062 L 232.429688 185.789062 L 232.429688 185.792969 L 242.445312 185.792969 C 242.882812 185.792969 243.269531 185.515625 243.5 185.09375 C 243.628906 184.867188 243.710938 184.597656 243.726562 184.304688 C 243.757812 183.804688 243.761719 183.308594 243.769531 182.8125 C 243.773438 182.628906 243.785156 182.449219 243.785156 182.269531 L 243.785156 182.265625 C 243.785156 181.808594 243.777344 181.351562 243.75 180.886719 Z M 243.75 180.886719 " fill-opacity="1" fill-rule="nonzero"/><g clip-path="url(#26e9f7784b)"><path fill="#3475d0" d="M 284.355469 100.191406 L 284.355469 179.988281 C 284.355469 181.941406 282.804688 183.554688 280.792969 183.691406 C 278.816406 183.828125 276.816406 183.945312 274.792969 184.019531 L 274.792969 96.144531 C 276.816406 96.21875 278.816406 96.335938 280.792969 96.476562 C 282.804688 96.625 284.355469 98.238281 284.355469 100.191406 Z M 284.355469 100.191406 " fill-opacity="1" fill-rule="nonzero"/></g><g clip-path="url(#bdccf20756)"><path fill="#093f8b" d="M 284.355469 153.921875 L 284.355469 179.988281 C 284.355469 181.941406 282.804688 183.554688 280.792969 183.691406 C 278.816406 183.828125 276.816406 183.945312 274.792969 184.019531 L 274.792969 157.953125 C 276.816406 157.878906 278.816406 157.765625 280.792969 157.625 C 282.804688 157.488281 284.355469 155.875 284.355469 153.921875 Z M 284.355469 153.921875 " fill-opacity="1" fill-rule="nonzero"/></g><path fill="#579adf" d="M 276.121094 89.402344 C 270.453125 88.996094 264.644531 88.785156 258.726562 88.785156 C 252.8125 88.785156 246.996094 88.996094 241.324219 89.402344 C 238.992188 89.566406 237.1875 91.445312 237.1875 93.714844 L 237.1875 186.457031 C 237.1875 188.726562 238.992188 190.601562 241.324219 190.769531 C 246.996094 191.175781 252.8125 191.386719 258.726562 191.386719 C 264.644531 191.386719 270.453125 191.175781 276.121094 190.769531 C 278.453125 190.601562 280.261719 188.726562 280.261719 186.457031 L 280.261719 93.714844 C 280.261719 91.445312 278.453125 89.566406 276.121094 89.402344 Z M 276.121094 89.402344 " fill-opacity="1" fill-rule="nonzero"/><path fill="#3475d0" d="M 280.257812 157.953125 L 280.257812 186.457031 C 280.257812 188.726562 278.453125 190.601562 276.117188 190.773438 C 270.449219 191.175781 264.640625 191.386719 258.726562 191.386719 C 252.816406 191.386719 246.996094 191.175781 241.328125 190.773438 C 238.992188 190.601562 237.1875 188.726562 237.1875 186.457031 L 237.1875 157.953125 C 237.957031 158.621094 238.984375 159.058594 240.125 159.132812 C 246.1875 159.535156 252.402344 159.746094 258.726562 159.746094 C 265.054688 159.746094 271.257812 159.535156 277.320312 159.132812 C 278.472656 159.058594 279.488281 158.621094 280.257812 157.953125 Z M 280.257812 157.953125 " fill-opacity="1" fill-rule="nonzero"/><path fill="#79beed" d="M 280.261719 101.480469 L 280.261719 124.242188 C 279.488281 123.574219 278.460938 123.132812 277.324219 123.0625 C 271.257812 122.660156 265.046875 122.449219 258.71875 122.449219 C 252.390625 122.449219 246.1875 122.660156 240.125 123.0625 C 238.976562 123.132812 237.957031 123.574219 237.1875 124.242188 L 237.1875 101.480469 C 237.957031 100.8125 238.976562 100.375 240.125 100.300781 C 246.1875 99.898438 252.390625 99.6875 258.71875 99.6875 C 265.046875 99.6875 271.257812 99.898438 277.324219 100.300781 C 278.460938 100.375 279.488281 100.8125 280.261719 101.480469 Z M 280.261719 101.480469 " fill-opacity="1" fill-rule="nonzero"/><path fill="#a4dbf6" d="M 280.257812 104.296875 L 280.257812 112.042969 C 279.492188 111.375 278.464844 110.941406 277.320312 110.867188 C 271.253906 110.464844 265.046875 110.25 258.722656 110.25 C 252.394531 110.25 246.1875 110.464844 240.125 110.867188 C 238.976562 110.941406 237.960938 111.375 237.183594 112.042969 L 237.183594 104.296875 C 237.960938 103.628906 238.976562 103.191406 240.125 103.117188 C 246.1875 102.714844 252.394531 102.503906 258.722656 102.503906 C 265.046875 102.503906 271.253906 102.714844 277.320312 103.117188 C 278.464844 103.191406 279.492188 103.628906 280.257812 104.296875 Z M 280.257812 104.296875 " fill-opacity="1" fill-rule="nonzero"/><path fill="#474c6f" d="M 114.5625 140.175781 L 114.566406 140.128906 L 114.566406 140.175781 Z M 114.5625 140.175781 " fill-opacity="1" fill-rule="nonzero"/><path fill="#474c6f" d="M 129.65625 140.175781 L 129.644531 140.175781 L 129.648438 140.128906 Z M 129.65625 140.175781 " fill-opacity="1" fill-rule="nonzero"/><path fill="#474c6f" d="M 114.5625 140.085938 L 114.566406 140.085938 L 114.566406 140.128906 Z M 114.5625 140.085938 " fill-opacity="1" fill-rule="nonzero"/><path fill="#474c6f" d="M 129.65625 140.085938 L 129.648438 140.128906 L 129.644531 140.085938 Z M 129.65625 140.085938 " fill-opacity="1" fill-rule="nonzero"/><path fill="#2658b8" d="M 24.515625 111.707031 L 38.308594 111.707031 L 38.308594 168.472656 L 24.515625 168.472656 Z M 24.515625 111.707031 " fill-opacity="1" fill-rule="nonzero"/><path fill="#113e8a" d="M 38.308594 151.6875 L 38.308594 168.472656 L 24.515625 168.472656 L 24.515625 111.707031 L 31.410156 111.707031 L 31.410156 144.769531 C 31.410156 148.589844 34.5 151.6875 38.308594 151.6875 Z M 38.308594 151.6875 " fill-opacity="1" fill-rule="nonzero"/><g clip-path="url(#cb41a18733)"><path fill="#2658b8" d="M 15.304688 166.5625 L 15.304688 113.617188 L 18.957031 113.617188 L 18.957031 166.5625 Z M 15.304688 166.5625 " fill-opacity="1" fill-rule="nonzero"/></g><path fill="#113e8a" d="M 21.414062 171.410156 L 21.414062 108.769531 C 21.414062 108.769531 22.894531 111.453125 25.015625 108.769531 L 25.015625 171.410156 C 25.015625 171.410156 23.535156 168.726562 21.414062 171.410156 Z M 21.414062 171.410156 " fill-opacity="1" fill-rule="nonzero"/><path fill="#407ace" d="M 17.851562 106.8125 L 21.667969 106.8125 L 21.667969 173.367188 L 17.851562 173.367188 Z M 17.851562 106.8125 " fill-opacity="1" fill-rule="nonzero"/><path fill="#407ace" d="M 24.761719 106.8125 L 28.574219 106.8125 L 28.574219 173.367188 L 24.761719 173.367188 Z M 24.761719 106.8125 " fill-opacity="1" fill-rule="nonzero"/><path fill="#2658b8" d="M 24.761719 151.6875 L 28.574219 151.6875 L 28.574219 173.367188 L 24.761719 173.367188 Z M 24.761719 151.6875 " fill-opacity="1" fill-rule="nonzero"/><path fill="#2658b8" d="M 17.851562 151.6875 L 21.667969 151.6875 L 21.667969 173.367188 L 17.851562 173.367188 Z M 17.851562 151.6875 " fill-opacity="1" fill-rule="nonzero"/><path fill="#5ca1e3" d="M 24.761719 114.300781 L 28.574219 114.300781 L 28.574219 128.804688 L 24.761719 128.804688 Z M 24.761719 114.300781 " fill-opacity="1" fill-rule="nonzero"/><path fill="#5ca1e3" d="M 17.851562 114.300781 L 21.667969 114.300781 L 21.667969 128.804688 L 17.851562 128.804688 Z M 17.851562 114.300781 " fill-opacity="1" fill-rule="nonzero"/><path fill="#dbddf4" d="M 82.386719 70.8125 L 82.386719 154.59375 C 82.386719 174.316406 81.296875 192.839844 79.390625 208.921875 C 78.769531 214.179688 76.214844 218.796875 72.496094 222.089844 C 68.839844 225.324219 64.050781 227.269531 58.859375 227.277344 L 58.484375 227.277344 C 48.015625 227.265625 39.191406 219.355469 37.953125 208.925781 C 36.046875 192.847656 34.957031 174.316406 34.957031 154.59375 L 34.957031 70.8125 Z M 82.386719 70.8125 " fill-opacity="1" fill-rule="nonzero"/><path fill="#fafcff" d="M 40.136719 181.488281 C 39.667969 172.667969 39.425781 163.617188 39.425781 154.59375 L 39.425781 88.75 C 43.75 88.75 47.253906 92.261719 47.253906 96.601562 L 47.253906 154.59375 C 47.253906 160.851562 47.371094 167.121094 47.601562 173.3125 C 47.761719 177.621094 44.429688 181.257812 40.136719 181.488281 Z M 40.136719 181.488281 " fill-opacity="1" fill-rule="nonzero"/><path fill="#9298bd" d="M 82.386719 70.8125 L 82.386719 154.59375 C 82.386719 166.476562 81.988281 177.917969 81.257812 188.65625 C 80.78125 195.746094 80.148438 202.527344 79.390625 208.921875 C 79.277344 209.851562 79.109375 210.757812 78.882812 211.644531 C 78.015625 215.042969 76.320312 218.09375 74.027344 220.578125 C 70.238281 224.707031 64.816406 227.269531 58.859375 227.277344 L 58.484375 227.277344 C 48.015625 227.265625 39.191406 219.355469 37.953125 208.925781 C 37.199219 202.527344 36.566406 195.742188 36.078125 188.640625 C 38.761719 197.582031 47.859375 204.035156 58.460938 204.042969 L 59.015625 204.042969 C 65.917969 204.003906 71.585938 198.535156 72.101562 191.625 C 72.972656 180.039062 73.441406 167.578125 73.441406 154.59375 L 73.441406 79.546875 L 34.957031 79.546875 L 34.957031 70.8125 Z M 82.386719 70.8125 " fill-opacity="1" fill-rule="nonzero"/><g clip-path="url(#101f686acc)"><path fill="#9298bd" d="M 35.832031 62.046875 L 80.78125 62.046875 L 80.78125 65.710938 L 35.832031 65.710938 Z M 35.832031 62.046875 " fill-opacity="1" fill-rule="nonzero"/></g><path fill="#666d97" d="M 85.609375 71.785156 L 31 71.785156 C 31 71.785156 33.675781 70.304688 31 68.175781 L 85.609375 68.175781 C 85.609375 68.175781 82.9375 69.660156 85.609375 71.785156 Z M 85.609375 71.785156 " fill-opacity="1" fill-rule="nonzero"/><path fill="#dbddf4" d="M 29.050781 71.53125 L 87.5625 71.53125 L 87.5625 75.359375 L 29.050781 75.359375 Z M 29.050781 71.53125 " fill-opacity="1" fill-rule="nonzero"/><path fill="#dbddf4" d="M 29.050781 64.601562 L 87.5625 64.601562 L 87.5625 68.429688 L 29.050781 68.429688 Z M 29.050781 64.601562 " fill-opacity="1" fill-rule="nonzero"/><path fill="#9298bd" d="M 69.867188 64.601562 L 87.5625 64.601562 L 87.5625 68.429688 L 69.867188 68.429688 Z M 69.867188 64.601562 " fill-opacity="1" fill-rule="nonzero"/><path fill="#9298bd" d="M 69.867188 71.53125 L 87.5625 71.53125 L 87.5625 75.359375 L 69.867188 75.359375 Z M 69.867188 71.53125 " fill-opacity="1" fill-rule="nonzero"/><path fill="#fafcff" d="M 36.511719 64.601562 L 47.058594 64.601562 L 47.058594 68.429688 L 36.511719 68.429688 Z M 36.511719 64.601562 " fill-opacity="1" fill-rule="nonzero"/><path fill="#fafcff" d="M 36.511719 71.53125 L 47.058594 71.53125 L 47.058594 75.359375 L 36.511719 75.359375 Z M 36.511719 71.53125 " fill-opacity="1" fill-rule="nonzero"/><path fill="#666d97" d="M 62.609375 75.359375 L 62.609375 77.953125 C 62.609375 78.347656 62.292969 78.664062 61.902344 78.664062 L 54.710938 78.664062 C 54.320312 78.664062 54.003906 78.347656 54.003906 77.953125 L 54.003906 75.359375 Z M 62.609375 75.359375 " fill-opacity="1" fill-rule="nonzero"/><path fill="#474c6f" d="M 54.003906 75.359375 L 62.609375 75.359375 L 62.609375 76.777344 L 54.003906 76.777344 Z M 54.003906 75.359375 " fill-opacity="1" fill-rule="nonzero"/><path fill="#666d97" d="M 84.246094 75.359375 L 84.246094 77.953125 C 84.246094 78.347656 83.925781 78.664062 83.535156 78.664062 L 76.34375 78.664062 C 75.953125 78.664062 75.636719 78.347656 75.636719 77.953125 L 75.636719 75.359375 Z M 84.246094 75.359375 " fill-opacity="1" fill-rule="nonzero"/><path fill="#474c6f" d="M 75.636719 75.359375 L 84.246094 75.359375 L 84.246094 76.777344 L 75.636719 76.777344 Z M 75.636719 75.359375 " fill-opacity="1" fill-rule="nonzero"/><path fill="#666d97" d="M 40.976562 75.359375 L 40.976562 77.953125 C 40.976562 78.347656 40.65625 78.664062 40.265625 78.664062 L 33.078125 78.664062 C 32.6875 78.664062 32.367188 78.347656 32.367188 77.953125 L 32.367188 75.359375 Z M 40.976562 75.359375 " fill-opacity="1" fill-rule="nonzero"/><path fill="#474c6f" d="M 32.367188 75.359375 L 40.976562 75.359375 L 40.976562 76.777344 L 32.367188 76.777344 Z M 32.367188 75.359375 " fill-opacity="1" fill-rule="nonzero"/><path fill="#9298bd" d="M 140.867188 134.433594 L 140.867188 145.917969 C 140.867188 146.546875 140.359375 147.050781 139.738281 147.050781 L 135.617188 147.050781 L 135.617188 133.300781 L 139.738281 133.300781 C 140.359375 133.300781 140.867188 133.804688 140.867188 134.433594 Z M 140.867188 134.433594 " fill-opacity="1" fill-rule="nonzero"/><path fill="#9298bd" d="M 140.867188 99.859375 L 140.867188 111.347656 C 140.867188 111.972656 140.359375 112.480469 139.738281 112.480469 L 135.617188 112.480469 L 135.617188 98.726562 L 139.738281 98.726562 C 140.359375 98.726562 140.867188 99.230469 140.867188 99.859375 Z M 140.867188 99.859375 " fill-opacity="1" fill-rule="nonzero"/><path fill="#9298bd" d="M 140.867188 169 L 140.867188 180.492188 C 140.867188 181.121094 140.359375 181.625 139.738281 181.625 L 135.617188 181.625 L 135.617188 167.867188 L 139.738281 167.867188 C 140.359375 167.867188 140.867188 168.378906 140.867188 169 Z M 140.867188 169 " fill-opacity="1" fill-rule="nonzero"/><path fill="#474c6f" d="M 135.617188 167.867188 L 138.171875 167.867188 C 138.113281 172.519531 137.996094 177.109375 137.832031 181.625 L 135.617188 181.625 Z M 135.617188 167.867188 " fill-opacity="1" fill-rule="nonzero"/><path fill="#474c6f" d="M 135.617188 98.726562 L 138.242188 98.726562 L 138.242188 112.480469 L 135.617188 112.480469 Z M 135.617188 98.726562 " fill-opacity="1" fill-rule="nonzero"/><path fill="#474c6f" d="M 135.617188 133.300781 L 138.242188 133.300781 L 138.242188 147.050781 L 135.617188 147.050781 Z M 135.617188 133.300781 " fill-opacity="1" fill-rule="nonzero"/><path fill="#afb4d0" d="M 112.058594 133.300781 L 112.058594 147.050781 L 107.9375 147.050781 C 107.316406 147.050781 106.808594 146.546875 106.808594 145.917969 L 106.808594 134.433594 C 106.808594 133.804688 107.316406 133.300781 107.9375 133.300781 Z M 112.058594 133.300781 " fill-opacity="1" fill-rule="nonzero"/><path fill="#afb4d0" d="M 112.058594 167.867188 L 112.058594 181.625 L 107.9375 181.625 C 107.316406 181.625 106.808594 181.121094 106.808594 180.492188 L 106.808594 169 C 106.808594 168.378906 107.316406 167.867188 107.9375 167.867188 Z M 112.058594 167.867188 " fill-opacity="1" fill-rule="nonzero"/><path fill="#afb4d0" d="M 112.058594 98.726562 L 112.058594 112.480469 L 107.9375 112.480469 C 107.316406 112.480469 106.808594 111.972656 106.808594 111.347656 L 106.808594 99.859375 C 106.808594 99.230469 107.316406 98.726562 107.9375 98.726562 Z M 112.058594 98.726562 " fill-opacity="1" fill-rule="nonzero"/><path fill="#666d97" d="M 109.859375 98.726562 L 112.058594 98.726562 L 112.058594 112.480469 L 109.859375 112.480469 Z M 109.859375 98.726562 " fill-opacity="1" fill-rule="nonzero"/><path fill="#666d97" d="M 109.859375 133.300781 L 112.058594 133.300781 L 112.058594 147.050781 L 109.859375 147.050781 Z M 109.859375 133.300781 " fill-opacity="1" fill-rule="nonzero"/><path fill="#666d97" d="M 109.792969 167.867188 L 112.058594 167.867188 L 112.058594 181.625 L 109.453125 181.625 C 109.613281 177.109375 109.730469 172.515625 109.792969 167.867188 Z M 109.792969 167.867188 " fill-opacity="1" fill-rule="nonzero"/><path fill="#474c6f" d="M 131.503906 140.1875 L 125.230469 198.269531 C 122.648438 194.785156 120.914062 198.269531 120.914062 198.269531 L 117.734375 140.085938 L 121.828125 82.003906 C 121.828125 82.003906 123.554688 85.492188 126.132812 82.003906 Z M 131.503906 140.1875 " fill-opacity="1" fill-rule="nonzero"/><path fill="#afb4d0" d="M 136.496094 82.003906 L 136.496094 161.175781 C 136.496094 173.949219 136.183594 186.367188 135.585938 198.277344 C 135.527344 199.402344 134.605469 200.273438 133.480469 200.273438 L 127.328125 200.273438 C 126.125 200.273438 125.175781 199.273438 125.226562 198.0625 C 125.824219 186.21875 126.132812 173.871094 126.132812 161.175781 L 126.132812 82.003906 C 126.132812 80.84375 127.078125 79.90625 128.230469 79.90625 L 134.398438 79.90625 C 135.554688 79.90625 136.496094 80.84375 136.496094 82.003906 Z M 136.496094 82.003906 " fill-opacity="1" fill-rule="nonzero"/><path fill="#afb4d0" d="M 121.828125 82.003906 L 121.828125 161.175781 C 121.828125 173.949219 121.507812 186.367188 120.917969 198.277344 C 120.859375 199.402344 119.933594 200.273438 118.8125 200.273438 L 112.65625 200.273438 C 111.453125 200.273438 110.5 199.273438 110.558594 198.0625 C 111.15625 186.21875 111.464844 173.871094 111.464844 161.175781 L 111.464844 82.003906 C 111.464844 80.84375 112.40625 79.90625 113.554688 79.90625 L 119.730469 79.90625 C 120.882812 79.90625 121.828125 80.84375 121.828125 82.003906 Z M 121.828125 82.003906 " fill-opacity="1" fill-rule="nonzero"/><path fill="#666d97" d="M 111.464844 159.042969 L 121.828125 159.042969 L 121.828125 161.175781 C 121.828125 173.949219 121.507812 186.367188 120.917969 198.277344 C 120.859375 199.402344 119.933594 200.273438 118.8125 200.273438 L 112.65625 200.273438 C 111.453125 200.273438 110.5 199.273438 110.558594 198.0625 C 111.15625 186.21875 111.464844 173.871094 111.464844 161.175781 Z M 111.464844 159.042969 " fill-opacity="1" fill-rule="nonzero"/><path fill="#666d97" d="M 136.496094 159.042969 L 136.496094 161.175781 C 136.496094 173.949219 136.183594 186.367188 135.585938 198.277344 C 135.527344 199.402344 134.605469 200.273438 133.480469 200.273438 L 127.328125 200.273438 C 126.125 200.273438 125.175781 199.273438 125.226562 198.0625 C 125.824219 186.21875 126.132812 173.871094 126.132812 161.175781 L 126.132812 159.042969 Z M 136.496094 159.042969 " fill-opacity="1" fill-rule="nonzero"/><path fill="#dbddf4" d="M 111.460938 90.078125 L 121.824219 90.078125 L 121.824219 120.644531 L 111.460938 120.644531 Z M 111.460938 90.078125 " fill-opacity="1" fill-rule="nonzero"/><path fill="#dbddf4" d="M 126.132812 90.078125 L 136.492188 90.078125 L 136.492188 120.644531 L 126.132812 120.644531 Z M 126.132812 90.078125 " fill-opacity="1" fill-rule="nonzero"/><path fill="#fafcff" d="M 111.460938 93.59375 L 121.824219 93.59375 L 121.824219 101.421875 L 111.460938 101.421875 Z M 111.460938 93.59375 " fill-opacity="1" fill-rule="nonzero"/><path fill="#fafcff" d="M 126.132812 93.59375 L 136.492188 93.59375 L 136.492188 101.421875 L 126.132812 101.421875 Z M 126.132812 93.59375 " fill-opacity="1" fill-rule="nonzero"/></svg>