<svg xmlns="http://www.w3.org/2000/svg" xmlns:xlink="http://www.w3.org/1999/xlink" width="400" zoomAndPan="magnify" viewBox="0 0 300 299.999988" height="400" preserveAspectRatio="xMidYMid meet" version="1.0"><defs><clipPath id="04bc668c8d"><path d="M 6.980469 6.980469 L 293.019531 6.980469 L 293.019531 293.019531 L 6.980469 293.019531 Z M 6.980469 6.980469 " clip-rule="nonzero"/></clipPath><clipPath id="bb10e01b8b"><path d="M 150 6.980469 C 71.011719 6.980469 6.980469 71.011719 6.980469 150 C 6.980469 228.988281 71.011719 293.019531 150 293.019531 C 228.988281 293.019531 293.019531 228.988281 293.019531 150 C 293.019531 71.011719 228.988281 6.980469 150 6.980469 Z M 150 6.980469 " clip-rule="nonzero"/></clipPath><clipPath id="5e25fb7a19"><path d="M 0.980469 0.980469 L 287.019531 0.980469 L 287.019531 287.019531 L 0.980469 287.019531 Z M 0.980469 0.980469 " clip-rule="nonzero"/></clipPath><clipPath id="d0255e069b"><path d="M 144 0.980469 C 65.011719 0.980469 0.980469 65.011719 0.980469 144 C 0.980469 222.988281 65.011719 287.019531 144 287.019531 C 222.988281 287.019531 287.019531 222.988281 287.019531 144 C 287.019531 65.011719 222.988281 0.980469 144 0.980469 Z M 144 0.980469 " clip-rule="nonzero"/></clipPath><clipPath id="4336558a22"><rect x="0" width="288" y="0" height="288"/></clipPath><clipPath id="caca506873"><path d="M 6.980469 6.980469 L 292.730469 6.980469 L 292.730469 292.730469 L 6.980469 292.730469 Z M 6.980469 6.980469 " clip-rule="nonzero"/></clipPath><clipPath id="a9c689d374"><path d="M 149.996094 6.980469 C 71.011719 6.980469 6.980469 71.011719 6.980469 149.996094 C 6.980469 228.984375 71.011719 293.011719 149.996094 293.011719 C 228.984375 293.011719 293.011719 228.984375 293.011719 149.996094 C 293.011719 71.011719 228.984375 6.980469 149.996094 6.980469 Z M 149.996094 6.980469 " clip-rule="nonzero"/></clipPath><clipPath id="81b8693fcf"><path d="M 90 65.761719 L 256 65.761719 L 256 117 L 90 117 Z M 90 65.761719 " clip-rule="nonzero"/></clipPath><clipPath id="ab3a1e47aa"><path d="M 86 72 L 125 72 L 125 234.511719 L 86 234.511719 Z M 86 72 " clip-rule="nonzero"/></clipPath><clipPath id="a7406e3069"><path d="M 41.65625 72 L 80 72 L 80 234.511719 L 41.65625 234.511719 Z M 41.65625 72 " clip-rule="nonzero"/></clipPath><clipPath id="9842184725"><path d="M 59 171 L 107 171 L 107 234.511719 L 59 234.511719 Z M 59 171 " clip-rule="nonzero"/></clipPath><clipPath id="b643245183"><path d="M 131 123 L 258.40625 123 L 258.40625 234.511719 L 131 234.511719 Z M 131 123 " clip-rule="nonzero"/></clipPath></defs><g clip-path="url(#04bc668c8d)"><g clip-path="url(#bb10e01b8b)"><g transform="matrix(1, 0, 0, 1, 6, 6)"><g clip-path="url(#4336558a22)"><g clip-path="url(#5e25fb7a19)"><g clip-path="url(#d0255e069b)"><path fill="#ffffff" d="M 0.980469 0.980469 L 287.019531 0.980469 L 287.019531 287.019531 L 0.980469 287.019531 Z M 0.980469 0.980469 " fill-opacity="1" fill-rule="nonzero"/></g></g></g></g></g></g><g clip-path="url(#caca506873)"><g clip-path="url(#a9c689d374)"><path stroke-linecap="butt" transform="matrix(0.75, 0, 0, 0.75, 6.982188, 6.982148)" fill="none" stroke-linejoin="miter" d="M 190.685223 -0.00223877 C 85.372714 -0.00223877 -0.00229253 85.372768 -0.00229253 190.685277 C -0.00229253 296.002994 85.372714 381.372792 190.685223 381.372792 C 296.00294 381.372792 381.372739 296.002994 381.372739 190.685277 C 381.372739 85.372768 296.00294 -0.00223877 190.685223 -0.00223877 Z M 190.685223 -0.00223877 " stroke="#ff3131" stroke-width="8" stroke-opacity="1" stroke-miterlimit="4"/></g></g><g clip-path="url(#81b8693fcf)"><path fill="#ff3131" d="M 90.050781 65.957031 L 129.355469 116.636719 L 255.066406 116.636719 L 219.082031 65.957031 Z M 90.050781 65.957031 " fill-opacity="1" fill-rule="evenodd"/></g><g clip-path="url(#ab3a1e47aa)"><path fill="#ff3131" d="M 86.414062 72.65625 L 86.414062 160.925781 L 114.144531 234.035156 L 124.164062 234.035156 L 124.164062 121.308594 Z M 86.414062 72.65625 " fill-opacity="1" fill-rule="evenodd"/></g><g clip-path="url(#a7406e3069)"><path fill="#ff3131" d="M 41.65625 121.308594 L 41.65625 234.035156 L 51.625 234.035156 L 79.40625 160.925781 L 79.40625 72.65625 Z M 41.65625 121.308594 " fill-opacity="1" fill-rule="evenodd"/></g><g clip-path="url(#9842184725)"><path fill="#ff3131" d="M 82.882812 171.417969 L 59.101562 234.035156 L 106.664062 234.035156 Z M 82.882812 171.417969 " fill-opacity="1" fill-rule="evenodd"/></g><path fill="#ff3131" d="M 168.609375 172.765625 L 168.609375 184.917969 L 185.175781 184.917969 C 187.097656 184.917969 188.652344 186.472656 188.652344 188.394531 L 188.652344 204.960938 L 200.804688 204.960938 L 200.804688 188.394531 C 200.804688 186.472656 202.363281 184.917969 204.28125 184.917969 L 220.847656 184.917969 L 220.847656 172.765625 L 204.28125 172.765625 C 202.363281 172.765625 200.804688 171.207031 200.804688 169.289062 L 200.804688 152.773438 L 188.652344 152.773438 L 188.652344 169.289062 C 188.652344 171.207031 187.097656 172.765625 185.175781 172.765625 Z M 168.609375 172.765625 " fill-opacity="1" fill-rule="evenodd"/><path fill="#ff3131" d="M 194.730469 138.546875 C 172.503906 138.546875 154.4375 156.617188 154.4375 178.839844 C 154.4375 201.066406 172.503906 219.132812 194.730469 219.132812 C 216.953125 219.132812 235.023438 201.066406 235.023438 178.839844 C 235.023438 156.617188 216.953125 138.546875 194.730469 138.546875 Z M 165.132812 165.757812 L 181.644531 165.757812 L 181.644531 149.246094 C 181.644531 147.324219 183.203125 145.765625 185.125 145.765625 L 204.28125 145.765625 C 206.203125 145.765625 207.761719 147.324219 207.761719 149.246094 L 207.761719 165.757812 L 224.324219 165.757812 C 226.246094 165.757812 227.804688 167.3125 227.804688 169.234375 L 227.804688 188.394531 C 227.804688 190.316406 226.246094 191.875 224.324219 191.875 L 207.761719 191.875 L 207.761719 208.4375 C 207.761719 210.359375 206.203125 211.917969 204.28125 211.917969 L 185.175781 211.917969 C 183.253906 211.917969 181.695312 210.359375 181.695312 208.4375 L 181.695312 191.875 L 165.183594 191.875 C 163.261719 191.875 161.707031 190.316406 161.707031 188.394531 L 161.707031 169.234375 C 161.652344 167.3125 163.210938 165.757812 165.132812 165.757812 Z M 165.132812 165.757812 " fill-opacity="1" fill-rule="evenodd"/><g clip-path="url(#b643245183)"><path fill="#ff3131" d="M 131.121094 123.644531 L 131.121094 234.035156 L 258.335938 234.035156 L 258.335938 123.644531 Z M 147.476562 178.839844 C 147.476562 152.773438 168.664062 131.589844 194.730469 131.589844 C 220.796875 131.589844 241.980469 152.773438 241.980469 178.839844 C 241.980469 204.90625 220.796875 226.09375 194.730469 226.09375 C 168.664062 226.09375 147.476562 204.90625 147.476562 178.839844 Z M 147.476562 178.839844 " fill-opacity="1" fill-rule="evenodd"/></g></svg>