<svg xmlns="http://www.w3.org/2000/svg" xmlns:xlink="http://www.w3.org/1999/xlink" width="400" zoomAndPan="magnify" viewBox="0 0 300 299.999988" height="400" preserveAspectRatio="xMidYMid meet" version="1.0"><defs><clipPath id="2dcdf5d517"><path d="M 15 33 L 285 33 L 285 270.75 L 15 270.75 Z M 15 33 " clip-rule="nonzero"/></clipPath></defs><g clip-path="url(#2dcdf5d517)"><path fill="#dd0f01" d="M 166.097656 42.582031 L 281.605469 242.671875 C 288.757812 255.027344 279.816406 270.523438 265.515625 270.523438 L 34.5 270.523438 C 20.195312 270.523438 11.257812 255.027344 18.410156 242.671875 L 133.914062 42.582031 C 141.066406 30.226562 158.945312 30.226562 166.097656 42.582031 Z M 166.097656 42.582031 " fill-opacity="1" fill-rule="nonzero"/></g><path fill="#ffffff" d="M 32.875 240.234375 L 140.90625 53.09375 C 144.96875 46.101562 155.101562 46.101562 159.109375 53.09375 L 267.140625 240.234375 C 271.203125 247.222656 266.109375 256 258.039062 256 L 41.976562 256 C 33.847656 256 28.8125 247.222656 32.875 240.234375 Z M 32.875 240.234375 " fill-opacity="1" fill-rule="nonzero"/><path fill="#dd0f01" d="M 45.171875 242.726562 L 150.007812 61.109375 L 254.839844 242.726562 Z M 45.171875 242.726562 " fill-opacity="1" fill-rule="nonzero"/><path fill="#ffffff" d="M 158.566406 218.398438 C 158.566406 223.113281 154.71875 226.960938 150.007812 226.960938 C 145.292969 226.960938 141.445312 223.113281 141.445312 218.398438 C 141.445312 213.6875 145.292969 209.839844 150.007812 209.839844 C 154.71875 209.785156 158.566406 213.632812 158.566406 218.398438 Z M 164.6875 120.058594 C 165.070312 112.691406 158.351562 106.515625 150.007812 106.515625 C 141.664062 106.515625 135 112.691406 135.324219 120.058594 L 144.644531 202.417969 L 155.316406 202.417969 Z M 164.6875 120.058594 " fill-opacity="1" fill-rule="nonzero"/></svg>