<svg xmlns="http://www.w3.org/2000/svg" xmlns:xlink="http://www.w3.org/1999/xlink" width="400" zoomAndPan="magnify" viewBox="0 0 300 299.999988" height="400" preserveAspectRatio="xMidYMid meet" version="1.0"><defs><clipPath id="892e9fa311"><path d="M 15.441406 209 L 284.628906 209 L 284.628906 237.445312 L 15.441406 237.445312 Z M 15.441406 209 " clip-rule="nonzero"/></clipPath><clipPath id="feac24a5b3"><path d="M 162.289062 228.589844 L 284.628906 228.589844 L 284.628906 245.035156 L 162.289062 245.035156 Z M 162.289062 228.589844 " clip-rule="nonzero"/></clipPath><clipPath id="9645cc069c"><path d="M 15.410156 228 L 217 228 L 217 245.035156 L 15.410156 245.035156 Z M 15.410156 228 " clip-rule="nonzero"/></clipPath><clipPath id="9f12631775"><path d="M 15.410156 228 L 102 228 L 102 231 L 15.410156 231 Z M 15.410156 228 " clip-rule="nonzero"/></clipPath><clipPath id="7e2ad5a39b"><path d="M 168.289062 228.589844 L 284.628906 228.589844 L 284.628906 230.800781 L 168.289062 230.800781 Z M 168.289062 228.589844 " clip-rule="nonzero"/></clipPath><clipPath id="30e3880490"><path d="M 193 55.285156 L 195 55.285156 L 195 227 L 193 227 Z M 193 55.285156 " clip-rule="nonzero"/></clipPath></defs><path fill="#a5d8f3" d="M 183.070312 60.027344 L 168.140625 60.027344 L 172.464844 66.476562 L 168.140625 72.929688 L 183.070312 72.929688 L 183.070312 60.027344 " fill-opacity="1" fill-rule="evenodd"/><g clip-path="url(#892e9fa311)"><path fill="#a5d8f3" d="M 15.441406 209.234375 L 284.628906 209.234375 L 284.628906 237.382812 L 15.441406 237.382812 L 15.441406 209.234375 " fill-opacity="1" fill-rule="evenodd"/></g><g clip-path="url(#feac24a5b3)"><path fill="#808080" d="M 162.339844 228.742188 L 284.628906 228.742188 L 284.628906 245.035156 L 162.339844 245.035156 L 162.339844 228.742188 " fill-opacity="1" fill-rule="evenodd"/></g><path fill="#fdcbfc" d="M 275.734375 132.773438 L 223.007812 132.773438 L 223.007812 219.152344 L 275.734375 219.152344 L 275.734375 209.785156 L 274.222656 209.785156 L 274.222656 165.199219 L 275.734375 165.199219 L 275.734375 157.855469 L 274.222656 157.855469 L 274.222656 143.335938 L 275.734375 143.335938 L 275.734375 132.773438 " fill-opacity="1" fill-rule="evenodd"/><path fill="#a5d8f3" d="M 75.382812 101.09375 C 119.097656 101.09375 162.816406 101.09375 206.53125 101.09375 L 206.53125 126.175781 L 107.015625 126.175781 L 107.015625 219.234375 L 75.382812 219.234375 C 75.382812 179.535156 75.382812 137.0625 75.382812 101.09375 " fill-opacity="1" fill-rule="evenodd"/><path fill="#652ec7" d="M 75.382812 101.09375 C 119.097656 101.09375 162.816406 101.09375 206.53125 101.09375 L 203.058594 104.914062 L 75.382812 104.914062 L 75.382812 101.09375 " fill-opacity="1" fill-rule="evenodd"/><path fill="#652ec7" d="M 107.015625 219.234375 L 107.015625 126.175781 L 75.382812 159.816406 L 75.382812 219.234375 L 107.015625 219.234375 " fill-opacity="1" fill-rule="evenodd"/><path fill="#ffffff" d="M 91.855469 126.175781 L 223.007812 126.175781 L 223.007812 225.175781 L 168.308594 225.175781 L 168.308594 162.476562 L 91.855469 162.476562 L 91.855469 151.585938 L 93.367188 151.585938 L 93.367188 137.066406 L 91.855469 137.066406 L 91.855469 126.175781 " fill-opacity="1" fill-rule="evenodd"/><path fill="#ffffff" d="M 95.152344 162.476562 L 101.742188 162.476562 L 101.742188 225.175781 L 95.152344 225.175781 L 95.152344 162.476562 " fill-opacity="1" fill-rule="evenodd"/><path fill="#ffffff" d="M 208.847656 101.09375 L 73.066406 101.09375 L 73.066406 97.277344 L 208.847656 97.277344 L 208.847656 101.09375 " fill-opacity="1" fill-rule="evenodd"/><path fill="#b3b3b3" d="M 95.152344 162.476562 L 101.742188 162.476562 L 101.742188 165.113281 L 95.152344 165.113281 L 95.152344 162.476562 " fill-opacity="1" fill-rule="evenodd"/><path fill="#ffffff" d="M 278.046875 132.773438 L 223.007812 132.773438 L 223.007812 128.957031 L 278.046875 128.957031 L 278.046875 132.773438 " fill-opacity="1" fill-rule="evenodd"/><path fill="#de38c8" d="M 275.734375 132.773438 L 269.871094 136.59375 L 223.007812 136.59375 L 223.007812 132.773438 L 275.734375 132.773438 " fill-opacity="1" fill-rule="evenodd"/><path fill="#707070" d="M 168.308594 219.234375 L 107.015625 219.234375 L 101.742188 228.742188 L 101.742188 238.992188 L 168.308594 238.992188 L 168.308594 219.234375 " fill-opacity="1" fill-rule="evenodd"/><path fill="#616161" d="M 168.308594 219.234375 L 107.015625 219.234375 L 103.71875 225.175781 L 168.308594 225.175781 L 168.308594 219.234375 " fill-opacity="1" fill-rule="evenodd"/><g clip-path="url(#9645cc069c)"><path fill="#707070" d="M 15.441406 228.742188 L 216.3125 228.742188 L 200.710938 245.035156 L 15.441406 245.035156 L 15.441406 228.742188 " fill-opacity="1" fill-rule="evenodd"/></g><path fill="#652ec7" d="M 177.679688 121.480469 L 170.789062 121.480469 L 170.789062 110.257812 L 173.917969 110.257812 L 173.917969 119.058594 L 177.679688 119.058594 Z M 165.550781 115.90625 C 165.550781 115.117188 165.28125 114.429688 164.738281 113.855469 C 164.042969 113.117188 163.175781 112.75 162.128906 112.75 C 161.410156 112.75 160.761719 112.9375 160.175781 113.3125 C 159.59375 113.691406 159.179688 114.191406 158.929688 114.820312 C 158.785156 115.175781 158.71875 115.539062 158.71875 115.90625 C 158.71875 116.664062 158.988281 117.34375 159.53125 117.945312 C 160.203125 118.6875 161.066406 119.058594 162.128906 119.058594 C 163.191406 119.058594 164.058594 118.6875 164.738281 117.953125 C 165.28125 117.363281 165.550781 116.683594 165.550781 115.90625 Z M 168.804688 115.90625 C 168.804688 117.429688 168.261719 118.769531 167.171875 119.917969 C 165.929688 121.226562 164.25 121.882812 162.128906 121.882812 C 160.015625 121.882812 158.335938 121.226562 157.097656 119.917969 C 156.007812 118.769531 155.464844 117.429688 155.464844 115.90625 C 155.464844 115.210938 155.609375 114.5 155.90625 113.769531 C 156.199219 113.035156 156.59375 112.40625 157.085938 111.890625 C 158.328125 110.578125 160.011719 109.921875 162.128906 109.921875 C 164.25 109.921875 165.929688 110.578125 167.171875 111.890625 C 168.261719 113.039062 168.804688 114.378906 168.804688 115.90625 Z M 150.765625 115.90625 C 150.765625 115.117188 150.496094 114.429688 149.953125 113.855469 C 149.257812 113.117188 148.386719 112.75 147.347656 112.75 C 146.625 112.75 145.976562 112.9375 145.390625 113.3125 C 144.808594 113.691406 144.394531 114.191406 144.144531 114.820312 C 144 115.175781 143.933594 115.539062 143.933594 115.90625 C 143.933594 116.664062 144.203125 117.34375 144.746094 117.945312 C 145.417969 118.6875 146.28125 119.058594 147.347656 119.058594 C 148.40625 119.058594 149.273438 118.6875 149.953125 117.953125 C 150.496094 117.363281 150.765625 116.683594 150.765625 115.90625 Z M 154.019531 115.90625 C 154.019531 117.429688 153.476562 118.769531 152.386719 119.917969 C 151.144531 121.226562 149.464844 121.882812 147.347656 121.882812 C 145.230469 121.882812 143.554688 121.226562 142.3125 119.917969 C 141.222656 118.769531 140.679688 117.429688 140.679688 115.90625 C 140.679688 115.210938 140.824219 114.5 141.121094 113.769531 C 141.414062 113.035156 141.808594 112.40625 142.300781 111.890625 C 143.542969 110.578125 145.226562 109.921875 147.347656 109.921875 C 149.464844 109.921875 151.144531 110.578125 152.386719 111.890625 C 153.476562 113.039062 154.019531 114.378906 154.019531 115.90625 Z M 138.691406 121.480469 L 135.566406 121.480469 L 135.566406 116.820312 L 131.027344 116.820312 L 131.027344 121.480469 L 127.898438 121.480469 L 127.898438 110.257812 L 131.027344 110.257812 L 131.027344 114.597656 L 135.566406 114.597656 L 135.566406 110.257812 L 138.691406 110.257812 Z M 125.914062 121.214844 C 124.890625 121.59375 123.941406 121.78125 123.070312 121.78125 C 121.550781 121.78125 120.191406 121.332031 118.992188 120.425781 C 117.460938 119.269531 116.695312 117.765625 116.695312 115.90625 C 116.695312 114.042969 117.460938 112.535156 118.992188 111.382812 C 120.191406 110.476562 121.558594 110.023438 123.097656 110.023438 C 123.929688 110.023438 124.871094 110.210938 125.914062 110.589844 L 125.914062 114.078125 C 125.617188 113.742188 125.320312 113.488281 125.011719 113.320312 C 124.453125 113.007812 123.855469 112.851562 123.207031 112.851562 C 122.398438 112.851562 121.691406 113.078125 121.089844 113.535156 C 120.328125 114.109375 119.949219 114.902344 119.949219 115.90625 C 119.949219 116.90625 120.328125 117.695312 121.089844 118.273438 C 121.691406 118.730469 122.398438 118.957031 123.207031 118.957031 C 123.855469 118.957031 124.453125 118.800781 125.011719 118.484375 C 125.3125 118.324219 125.613281 118.066406 125.914062 117.726562 Z M 115.242188 117.769531 C 115.242188 119.664062 114.351562 120.902344 112.5625 121.476562 C 111.941406 121.679688 111.269531 121.78125 110.554688 121.78125 C 109.046875 121.78125 107.652344 121.359375 106.363281 120.511719 L 107.703125 118.164062 C 108.644531 118.960938 109.5625 119.359375 110.464844 119.359375 C 110.867188 119.359375 111.214844 119.269531 111.496094 119.09375 C 111.824219 118.894531 111.988281 118.613281 111.988281 118.246094 C 111.988281 117.910156 111.808594 117.632812 111.441406 117.410156 C 111.171875 117.246094 110.714844 117.074219 110.074219 116.902344 C 109.296875 116.691406 108.808594 116.542969 108.609375 116.460938 C 108.289062 116.335938 108.019531 116.1875 107.796875 116.019531 C 107.15625 115.523438 106.835938 114.78125 106.835938 113.785156 C 106.835938 112.742188 107.167969 111.882812 107.832031 111.195312 C 108.609375 110.390625 109.644531 109.988281 110.9375 109.988281 C 112.234375 109.988281 113.507812 110.292969 114.753906 110.902344 L 113.507812 113.167969 C 112.824219 112.664062 112.136719 112.414062 111.441406 112.414062 C 111.105469 112.414062 110.804688 112.492188 110.539062 112.65625 C 110.242188 112.835938 110.089844 113.078125 110.089844 113.382812 C 110.089844 113.679688 110.285156 113.9375 110.679688 114.15625 C 110.859375 114.25 111.386719 114.421875 112.269531 114.667969 C 113.375 114.96875 114.164062 115.394531 114.632812 115.949219 C 115.039062 116.421875 115.242188 117.027344 115.242188 117.769531 " fill-opacity="1" fill-rule="evenodd"/><path fill="#ffffff" d="M 178.4375 120.246094 L 171.546875 120.246094 L 171.546875 109.027344 L 174.675781 109.027344 L 174.675781 117.824219 L 178.4375 117.824219 Z M 166.308594 114.671875 C 166.308594 113.882812 166.039062 113.199219 165.496094 112.621094 C 164.800781 111.882812 163.933594 111.515625 162.886719 111.515625 C 162.167969 111.515625 161.519531 111.703125 160.933594 112.078125 C 160.351562 112.457031 159.9375 112.957031 159.6875 113.585938 C 159.542969 113.941406 159.476562 114.304688 159.476562 114.671875 C 159.476562 115.433594 159.746094 116.109375 160.289062 116.710938 C 160.960938 117.453125 161.824219 117.824219 162.886719 117.824219 C 163.949219 117.824219 164.816406 117.457031 165.496094 116.71875 C 166.039062 116.128906 166.308594 115.449219 166.308594 114.671875 Z M 169.5625 114.671875 C 169.5625 116.199219 169.019531 117.535156 167.929688 118.683594 C 166.6875 119.992188 165.007812 120.648438 162.886719 120.648438 C 160.773438 120.648438 159.09375 119.992188 157.855469 118.683594 C 156.765625 117.535156 156.21875 116.199219 156.21875 114.671875 C 156.21875 113.976562 156.367188 113.265625 156.664062 112.535156 C 156.957031 111.800781 157.351562 111.171875 157.84375 110.65625 C 159.085938 109.34375 160.769531 108.6875 162.886719 108.6875 C 165.007812 108.6875 166.6875 109.34375 167.929688 110.65625 C 169.019531 111.804688 169.5625 113.144531 169.5625 114.671875 Z M 151.523438 114.671875 C 151.523438 113.882812 151.25 113.199219 150.710938 112.621094 C 150.015625 111.882812 149.144531 111.515625 148.105469 111.515625 C 147.382812 111.515625 146.734375 111.703125 146.148438 112.078125 C 145.566406 112.457031 145.152344 112.957031 144.902344 113.585938 C 144.757812 113.941406 144.691406 114.304688 144.691406 114.671875 C 144.691406 115.433594 144.960938 116.109375 145.503906 116.710938 C 146.175781 117.453125 147.039062 117.824219 148.105469 117.824219 C 149.164062 117.824219 150.03125 117.457031 150.710938 116.71875 C 151.25 116.128906 151.523438 115.449219 151.523438 114.671875 Z M 154.777344 114.671875 C 154.777344 116.199219 154.230469 117.535156 153.144531 118.683594 C 151.902344 119.992188 150.222656 120.648438 148.105469 120.648438 C 145.988281 120.648438 144.308594 119.992188 143.070312 118.683594 C 141.980469 117.535156 141.4375 116.199219 141.4375 114.671875 C 141.4375 113.976562 141.582031 113.265625 141.878906 112.535156 C 142.171875 111.800781 142.566406 111.171875 143.058594 110.65625 C 144.300781 109.34375 145.984375 108.6875 148.105469 108.6875 C 150.222656 108.6875 151.902344 109.34375 153.144531 110.65625 C 154.230469 111.804688 154.777344 113.144531 154.777344 114.671875 Z M 139.449219 120.246094 L 136.324219 120.246094 L 136.324219 115.585938 L 131.785156 115.585938 L 131.785156 120.246094 L 128.65625 120.246094 L 128.65625 109.027344 L 131.785156 109.027344 L 131.785156 113.367188 L 136.324219 113.367188 L 136.324219 109.027344 L 139.449219 109.027344 Z M 126.671875 119.980469 C 125.648438 120.359375 124.699219 120.546875 123.828125 120.546875 C 122.308594 120.546875 120.949219 120.097656 119.75 119.191406 C 118.21875 118.035156 117.453125 116.53125 117.453125 114.671875 C 117.453125 112.808594 118.21875 111.304688 119.75 110.148438 C 120.949219 109.242188 122.316406 108.789062 123.855469 108.789062 C 124.6875 108.789062 125.628906 108.976562 126.671875 109.355469 L 126.671875 112.84375 C 126.375 112.507812 126.078125 112.253906 125.769531 112.085938 C 125.210938 111.773438 124.609375 111.617188 123.964844 111.617188 C 123.15625 111.617188 122.449219 111.84375 121.84375 112.300781 C 121.085938 112.878906 120.707031 113.667969 120.707031 114.671875 C 120.707031 115.671875 121.085938 116.460938 121.84375 117.039062 C 122.449219 117.496094 123.15625 117.722656 123.964844 117.722656 C 124.609375 117.722656 125.210938 117.566406 125.769531 117.25 C 126.070312 117.089844 126.371094 116.832031 126.671875 116.492188 Z M 116 116.535156 C 116 118.429688 115.109375 119.667969 113.320312 120.242188 C 112.695312 120.445312 112.027344 120.546875 111.3125 120.546875 C 109.804688 120.546875 108.410156 120.125 107.125 119.277344 L 108.460938 116.929688 C 109.402344 117.726562 110.320312 118.125 111.21875 118.125 C 111.625 118.125 111.96875 118.035156 112.25 117.859375 C 112.578125 117.660156 112.746094 117.378906 112.746094 117.011719 C 112.746094 116.675781 112.566406 116.398438 112.199219 116.179688 C 111.929688 116.011719 111.472656 115.839844 110.832031 115.671875 C 110.054688 115.457031 109.566406 115.308594 109.367188 115.226562 C 109.046875 115.101562 108.777344 114.953125 108.554688 114.785156 C 107.910156 114.292969 107.59375 113.546875 107.59375 112.550781 C 107.59375 111.507812 107.925781 110.648438 108.589844 109.960938 C 109.363281 109.15625 110.402344 108.757812 111.695312 108.757812 C 112.992188 108.757812 114.265625 109.058594 115.511719 109.667969 L 114.265625 111.9375 C 113.582031 111.429688 112.894531 111.179688 112.199219 111.179688 C 111.863281 111.179688 111.5625 111.261719 111.296875 111.421875 C 111 111.601562 110.847656 111.84375 110.847656 112.148438 C 110.847656 112.445312 111.042969 112.703125 111.4375 112.921875 C 111.617188 113.019531 112.144531 113.191406 113.023438 113.433594 C 114.132812 113.734375 114.921875 114.160156 115.390625 114.71875 C 115.796875 115.1875 116 115.792969 116 116.535156 " fill-opacity="1" fill-rule="evenodd"/><path fill="#89a6ac" d="M 206.53125 137.066406 L 93.367188 137.066406 L 93.367188 151.585938 L 206.53125 151.585938 L 206.53125 137.066406 " fill-opacity="1" fill-rule="evenodd"/><path fill="#4b247d" d="M 206.53125 151.585938 L 93.367188 151.585938 L 93.367188 137.917969 L 206.53125 137.917969 L 206.53125 151.585938 " fill-opacity="1" fill-rule="evenodd"/><path fill="#ffffff" d="M 93.367188 137.066406 L 206.53125 137.066406 L 206.53125 138.769531 L 93.367188 138.769531 L 93.367188 137.066406 " fill-opacity="1" fill-rule="evenodd"/><path fill="#ffffff" d="M 204.832031 151.578125 L 204.832031 137.917969 L 206.53125 137.917969 L 206.53125 151.578125 L 204.832031 151.578125 " fill-opacity="1" fill-rule="evenodd"/><path fill="#7858a1" d="M 151.019531 137.917969 L 137.371094 151.585938 L 148.414062 151.585938 L 162.0625 137.917969 L 151.019531 137.917969 " fill-opacity="1" fill-rule="evenodd"/><path fill="#7858a1" d="M 143.289062 137.917969 L 129.640625 151.585938 L 133.507812 151.585938 L 147.15625 137.917969 L 143.289062 137.917969 " fill-opacity="1" fill-rule="evenodd"/><path fill="#7858a1" d="M 188.839844 137.917969 L 175.191406 151.585938 L 186.234375 151.585938 L 199.882812 137.917969 L 188.839844 137.917969 " fill-opacity="1" fill-rule="evenodd"/><path fill="#7858a1" d="M 181.109375 137.917969 L 167.460938 151.585938 L 171.324219 151.585938 L 184.972656 137.917969 L 181.109375 137.917969 " fill-opacity="1" fill-rule="evenodd"/><path fill="#7858a1" d="M 202.445312 137.917969 L 188.796875 151.585938 L 192.664062 151.585938 L 206.3125 137.917969 L 202.445312 137.917969 " fill-opacity="1" fill-rule="evenodd"/><path fill="#7858a1" d="M 94.429688 137.917969 L 93.367188 138.980469 L 93.367188 150.039062 L 105.472656 137.917969 L 94.429688 137.917969 " fill-opacity="1" fill-rule="evenodd"/><path fill="#7858a1" d="M 108.035156 137.917969 L 94.386719 151.585938 L 98.253906 151.585938 L 111.902344 137.917969 L 108.035156 137.917969 " fill-opacity="1" fill-rule="evenodd"/><path fill="#ffffff" d="M 115.445312 151.578125 C 115.445312 147.027344 115.445312 142.472656 115.445312 137.917969 C 116.011719 137.917969 116.582031 137.917969 117.148438 137.917969 C 117.148438 142.472656 117.148438 147.027344 117.148438 151.578125 C 116.582031 151.578125 116.011719 151.578125 115.445312 151.578125 " fill-opacity="1" fill-rule="evenodd"/><path fill="#ffffff" d="M 93.367188 149.878906 L 206.53125 149.878906 L 206.53125 151.585938 L 93.367188 151.585938 L 93.367188 149.878906 " fill-opacity="1" fill-rule="evenodd"/><path fill="#ffffff" d="M 130.34375 151.578125 C 130.34375 147.027344 130.34375 142.472656 130.34375 137.917969 C 130.910156 137.917969 131.476562 137.917969 132.042969 137.917969 C 132.042969 142.472656 132.042969 147.027344 132.042969 151.578125 C 131.476562 151.578125 130.910156 151.578125 130.34375 151.578125 " fill-opacity="1" fill-rule="evenodd"/><path fill="#ffffff" d="M 145.242188 151.578125 C 145.242188 147.027344 145.242188 142.472656 145.242188 137.917969 C 145.808594 137.917969 146.375 137.917969 146.941406 137.917969 C 146.941406 142.472656 146.941406 147.027344 146.941406 151.578125 C 146.375 151.578125 145.808594 151.578125 145.242188 151.578125 " fill-opacity="1" fill-rule="evenodd"/><path fill="#ffffff" d="M 160.136719 151.578125 L 160.136719 137.917969 L 161.839844 137.917969 L 161.839844 151.578125 L 160.136719 151.578125 " fill-opacity="1" fill-rule="evenodd"/><path fill="#ffffff" d="M 175.035156 151.578125 C 175.035156 147.027344 175.035156 142.472656 175.035156 137.917969 C 175.601562 137.917969 176.171875 137.917969 176.738281 137.917969 C 176.738281 142.472656 176.738281 147.027344 176.738281 151.578125 C 176.171875 151.578125 175.601562 151.578125 175.035156 151.578125 " fill-opacity="1" fill-rule="evenodd"/><path fill="#ffffff" d="M 189.933594 151.578125 C 189.933594 147.027344 189.933594 142.472656 189.933594 137.917969 C 190.5 137.917969 191.070312 137.917969 191.636719 137.917969 C 191.636719 142.472656 191.636719 147.027344 191.636719 151.578125 C 191.070312 151.578125 190.5 151.578125 189.933594 151.578125 " fill-opacity="1" fill-rule="evenodd"/><path fill="#ffffff" d="M 100.546875 150.964844 C 100.546875 146.410156 100.546875 141.859375 100.546875 137.304688 C 101.113281 137.304688 101.683594 137.304688 102.25 137.304688 C 102.25 141.859375 102.25 146.410156 102.25 150.964844 C 101.683594 150.964844 101.113281 150.964844 100.546875 150.964844 " fill-opacity="1" fill-rule="evenodd"/><path fill="#64797e" d="M 206.53125 137.066406 L 93.367188 137.066406 L 93.367188 141.066406 L 202.484375 141.066406 L 202.484375 151.585938 L 206.53125 151.585938 L 206.53125 137.066406 " fill-opacity="1" fill-rule="evenodd"/><path fill="#33135c" d="M 206.53125 151.585938 L 202.484375 151.585938 L 202.484375 141.066406 L 93.367188 141.066406 L 93.367188 137.917969 L 206.53125 137.917969 L 206.53125 151.585938 " fill-opacity="1" fill-rule="evenodd"/><path fill="#cccccc" d="M 202.484375 149.878906 L 206.53125 149.878906 L 206.53125 151.585938 L 202.484375 151.585938 L 202.484375 149.878906 " fill-opacity="1" fill-rule="evenodd"/><path fill="#cccccc" d="M 204.832031 151.578125 L 204.832031 137.917969 L 206.53125 137.917969 L 206.53125 151.578125 L 204.832031 151.578125 " fill-opacity="1" fill-rule="evenodd"/><path fill="#4b247d" d="M 151.019531 137.917969 L 147.875 141.066406 L 158.917969 141.066406 L 162.0625 137.917969 L 151.019531 137.917969 " fill-opacity="1" fill-rule="evenodd"/><path fill="#4b247d" d="M 143.289062 137.917969 L 140.144531 141.066406 L 144.007812 141.066406 L 147.15625 137.917969 L 143.289062 137.917969 " fill-opacity="1" fill-rule="evenodd"/><path fill="#4b247d" d="M 188.839844 137.917969 L 185.695312 141.066406 L 196.738281 141.066406 L 199.882812 137.917969 L 188.839844 137.917969 " fill-opacity="1" fill-rule="evenodd"/><path fill="#4b247d" d="M 181.109375 137.917969 L 177.964844 141.066406 L 181.828125 141.066406 L 184.972656 137.917969 L 181.109375 137.917969 " fill-opacity="1" fill-rule="evenodd"/><path fill="#4b247d" d="M 202.445312 137.917969 L 199.300781 141.066406 L 202.484375 141.066406 L 202.484375 141.75 L 204.832031 139.398438 L 204.832031 137.917969 L 202.445312 137.917969 " fill-opacity="1" fill-rule="evenodd"/><path fill="#4b247d" d="M 94.429688 137.917969 L 93.367188 138.980469 L 93.367188 141.066406 L 102.328125 141.066406 L 105.472656 137.917969 L 94.429688 137.917969 " fill-opacity="1" fill-rule="evenodd"/><path fill="#4b247d" d="M 108.035156 137.917969 L 104.890625 141.066406 L 108.757812 141.066406 L 111.902344 137.917969 L 108.035156 137.917969 " fill-opacity="1" fill-rule="evenodd"/><path fill="#cccccc" d="M 93.367188 137.066406 L 206.53125 137.066406 L 206.53125 138.769531 L 93.367188 138.769531 L 93.367188 137.066406 " fill-opacity="1" fill-rule="evenodd"/><path fill="#cccccc" d="M 115.445312 141.066406 L 115.445312 137.917969 C 116.011719 137.917969 116.582031 137.917969 117.148438 137.917969 L 117.148438 141.066406 L 115.445312 141.066406 " fill-opacity="1" fill-rule="evenodd"/><path fill="#cccccc" d="M 130.34375 141.066406 L 130.34375 137.917969 C 130.910156 137.917969 131.476562 137.917969 132.042969 137.917969 L 132.042969 141.066406 L 130.34375 141.066406 " fill-opacity="1" fill-rule="evenodd"/><path fill="#cccccc" d="M 175.035156 141.066406 L 175.035156 137.917969 C 175.601562 137.917969 176.171875 137.917969 176.738281 137.917969 L 176.738281 141.066406 L 175.035156 141.066406 " fill-opacity="1" fill-rule="evenodd"/><path fill="#cccccc" d="M 189.933594 141.066406 L 189.933594 137.917969 C 190.5 137.917969 191.070312 137.917969 191.636719 137.917969 L 191.636719 141.066406 L 189.933594 141.066406 " fill-opacity="1" fill-rule="evenodd"/><path fill="#cccccc" d="M 100.546875 141.066406 L 100.546875 137.304688 C 101.113281 137.304688 101.683594 137.304688 102.25 137.304688 L 102.25 141.066406 L 100.546875 141.066406 " fill-opacity="1" fill-rule="evenodd"/><path fill="#cccccc" d="M 145.242188 141.066406 L 145.242188 137.917969 C 145.808594 137.917969 146.375 137.917969 146.941406 137.917969 L 146.941406 141.066406 L 145.242188 141.066406 " fill-opacity="1" fill-rule="evenodd"/><path fill="#cccccc" d="M 160.136719 141.066406 L 160.136719 137.917969 L 161.839844 137.917969 L 161.839844 141.066406 L 160.136719 141.066406 " fill-opacity="1" fill-rule="evenodd"/><path fill="#56606a" d="M 274.222656 143.335938 L 223.007812 143.335938 L 223.007812 157.855469 L 274.222656 157.855469 L 274.222656 143.335938 " fill-opacity="1" fill-rule="evenodd"/><path fill="#4b247d" d="M 223.007812 157.855469 L 274.222656 157.855469 L 274.222656 144.1875 L 223.007812 144.1875 L 223.007812 157.855469 " fill-opacity="1" fill-rule="evenodd"/><path fill="#7858a1" d="M 227.125 144.1875 L 223.007812 148.308594 L 223.007812 157.664062 L 224.710938 157.664062 L 238.167969 144.1875 L 227.125 144.1875 " fill-opacity="1" fill-rule="evenodd"/><path fill="#7858a1" d="M 264.941406 144.1875 L 251.484375 157.664062 L 262.527344 157.664062 L 274.222656 145.953125 L 274.222656 144.1875 L 264.941406 144.1875 " fill-opacity="1" fill-rule="evenodd"/><path fill="#7858a1" d="M 257.210938 144.1875 L 243.753906 157.664062 L 247.621094 157.664062 L 261.078125 144.1875 L 257.210938 144.1875 " fill-opacity="1" fill-rule="evenodd"/><path fill="#7858a1" d="M 274.222656 148.519531 L 265.09375 157.664062 L 268.957031 157.664062 L 274.222656 152.390625 L 274.222656 148.519531 " fill-opacity="1" fill-rule="evenodd"/><path fill="#ffffff" d="M 274.222656 143.335938 L 223.007812 143.335938 L 223.007812 145.039062 L 274.222656 145.039062 L 274.222656 143.335938 " fill-opacity="1" fill-rule="evenodd"/><path fill="#ffffff" d="M 274.222656 156.152344 L 223.007812 156.152344 L 223.007812 157.855469 L 274.222656 157.855469 L 274.222656 156.152344 " fill-opacity="1" fill-rule="evenodd"/><path fill="#ffffff" d="M 252.144531 157.847656 C 252.144531 153.296875 252.144531 148.742188 252.144531 144.1875 C 251.578125 144.1875 251.011719 144.1875 250.445312 144.1875 C 250.445312 148.742188 250.445312 153.296875 250.445312 157.847656 C 251.011719 157.847656 251.578125 157.847656 252.144531 157.847656 " fill-opacity="1" fill-rule="evenodd"/><path fill="#ffffff" d="M 237.246094 157.847656 C 237.246094 153.296875 237.246094 148.742188 237.246094 144.1875 C 236.679688 144.1875 236.113281 144.1875 235.546875 144.1875 C 235.546875 148.742188 235.546875 153.296875 235.546875 157.847656 C 236.113281 157.847656 236.679688 157.847656 237.246094 157.847656 " fill-opacity="1" fill-rule="evenodd"/><path fill="#ffffff" d="M 267.042969 157.234375 C 267.042969 152.683594 267.042969 148.128906 267.042969 143.574219 C 266.476562 143.574219 265.90625 143.574219 265.339844 143.574219 C 265.339844 148.128906 265.339844 152.683594 265.339844 157.234375 C 265.90625 157.234375 266.476562 157.234375 267.042969 157.234375 " fill-opacity="1" fill-rule="evenodd"/><path fill="#33135c" d="M 223.007812 147.335938 L 268.175781 147.335938 L 272.9375 144.1875 L 223.007812 144.1875 L 223.007812 147.335938 " fill-opacity="1" fill-rule="evenodd"/><path fill="#cccccc" d="M 252.144531 147.335938 L 252.144531 144.1875 C 251.578125 144.1875 251.011719 144.1875 250.445312 144.1875 L 250.445312 147.335938 L 252.144531 147.335938 " fill-opacity="1" fill-rule="evenodd"/><path fill="#4b247d" d="M 227.125 144.1875 L 223.976562 147.335938 L 235.023438 147.335938 L 238.167969 144.1875 L 227.125 144.1875 " fill-opacity="1" fill-rule="evenodd"/><path fill="#4b247d" d="M 264.941406 144.1875 L 261.796875 147.335938 L 268.175781 147.335938 L 272.9375 144.1875 L 264.941406 144.1875 " fill-opacity="1" fill-rule="evenodd"/><path fill="#4b247d" d="M 257.210938 144.1875 L 254.066406 147.335938 L 257.929688 147.335938 L 261.078125 144.1875 L 257.210938 144.1875 " fill-opacity="1" fill-rule="evenodd"/><path fill="#cccccc" d="M 237.246094 147.335938 L 237.246094 144.1875 C 236.679688 144.1875 236.113281 144.1875 235.546875 144.1875 L 235.546875 147.335938 L 237.246094 147.335938 " fill-opacity="1" fill-rule="evenodd"/><path fill="#cccccc" d="M 274.222656 143.335938 L 223.007812 143.335938 L 223.007812 145.039062 L 271.648438 145.039062 L 274.222656 143.335938 " fill-opacity="1" fill-rule="evenodd"/><path fill="#cccccc" d="M 267.042969 147.335938 L 267.042969 143.574219 C 266.476562 143.574219 265.90625 143.574219 265.339844 143.574219 L 265.339844 147.335938 L 267.042969 147.335938 " fill-opacity="1" fill-rule="evenodd"/><path fill="#ffffff" d="M 137.660156 219.234375 L 122.339844 219.234375 L 122.339844 187.085938 L 137.660156 187.085938 L 137.660156 219.234375 " fill-opacity="1" fill-rule="evenodd"/><path fill="#96a7b9" d="M 108.714844 194.746094 L 120.636719 194.746094 L 120.636719 188.789062 L 108.714844 188.789062 L 108.714844 194.746094 " fill-opacity="1" fill-rule="evenodd"/><path fill="#ffffff" d="M 107.015625 187.085938 L 122.339844 187.085938 L 122.339844 219.234375 L 107.015625 219.234375 L 107.015625 187.085938 " fill-opacity="1" fill-rule="evenodd"/><path fill="#4b247d" d="M 120.636719 194.746094 L 120.636719 188.789062 L 108.714844 188.789062 L 108.714844 194.746094 L 120.636719 194.746094 " fill-opacity="1" fill-rule="evenodd"/><path fill="#ffffff" d="M 168.308594 219.234375 L 152.984375 219.234375 L 152.984375 187.085938 L 168.308594 187.085938 L 168.308594 219.234375 " fill-opacity="1" fill-rule="evenodd"/><path fill="#4b247d" d="M 166.605469 194.746094 L 166.605469 188.789062 L 154.6875 188.789062 L 154.6875 194.746094 L 166.605469 194.746094 " fill-opacity="1" fill-rule="evenodd"/><path fill="#fdcbfc" d="M 168.308594 174.78125 L 107.015625 174.78125 L 107.015625 187.085938 L 168.308594 187.085938 L 168.308594 174.78125 " fill-opacity="1" fill-rule="evenodd"/><path fill="#4b247d" d="M 168.308594 174.78125 L 107.015625 174.78125 L 107.015625 162.476562 L 168.308594 162.476562 L 168.308594 174.78125 " fill-opacity="1" fill-rule="evenodd"/><path fill="#ffffff" d="M 107.015625 162.476562 L 168.308594 162.476562 L 168.308594 164.179688 L 107.015625 164.179688 L 107.015625 162.476562 " fill-opacity="1" fill-rule="evenodd"/><path fill="#cccccc" d="M 168.308594 219.234375 L 161.894531 219.234375 L 161.894531 187.085938 L 168.308594 187.085938 L 168.308594 219.234375 " fill-opacity="1" fill-rule="evenodd"/><path fill="#33135c" d="M 166.605469 194.746094 L 166.605469 188.789062 L 161.894531 188.789062 L 161.894531 194.746094 L 166.605469 194.746094 " fill-opacity="1" fill-rule="evenodd"/><path fill="#de38c8" d="M 168.308594 174.78125 L 161.894531 174.78125 L 161.894531 187.085938 L 168.308594 187.085938 L 168.308594 174.78125 " fill-opacity="1" fill-rule="evenodd"/><path fill="#33135c" d="M 168.308594 174.78125 L 161.894531 174.78125 L 161.894531 168.796875 L 107.015625 168.796875 L 107.015625 162.476562 L 168.308594 162.476562 L 168.308594 174.78125 " fill-opacity="1" fill-rule="evenodd"/><path fill="#bababa" d="M 161.894531 173.074219 L 168.308594 173.074219 L 168.308594 174.78125 L 161.894531 174.78125 L 161.894531 173.074219 " fill-opacity="1" fill-rule="evenodd"/><path fill="#ffffff" d="M 137.660156 219.234375 L 152.984375 219.234375 L 152.984375 187.085938 L 137.660156 187.085938 L 137.660156 219.234375 " fill-opacity="1" fill-rule="evenodd"/><path fill="#4b247d" d="M 135.960938 217.53125 L 135.960938 188.789062 L 124.039062 188.789062 L 124.039062 217.53125 L 135.960938 217.53125 " fill-opacity="1" fill-rule="evenodd"/><path fill="#4b247d" d="M 120.636719 217.53125 L 120.636719 195.84375 L 108.714844 195.84375 L 108.714844 217.53125 L 120.636719 217.53125 " fill-opacity="1" fill-rule="evenodd"/><path fill="#4b247d" d="M 166.605469 217.53125 L 166.605469 195.84375 L 154.6875 195.84375 L 154.6875 217.53125 L 166.605469 217.53125 " fill-opacity="1" fill-rule="evenodd"/><path fill="#4b247d" d="M 139.363281 217.53125 L 151.28125 217.53125 L 151.28125 188.789062 L 139.363281 188.789062 L 139.363281 217.53125 " fill-opacity="1" fill-rule="evenodd"/><path fill="#7858a1" d="M 112.816406 162.476562 L 107.015625 168.285156 L 107.015625 174.78125 L 111.570312 174.78125 L 123.859375 162.476562 L 112.816406 162.476562 " fill-opacity="1" fill-rule="evenodd"/><path fill="#7858a1" d="M 150.636719 162.476562 L 138.347656 174.78125 L 149.390625 174.78125 L 161.679688 162.476562 L 150.636719 162.476562 " fill-opacity="1" fill-rule="evenodd"/><path fill="#7858a1" d="M 142.902344 162.476562 L 130.617188 174.78125 L 134.480469 174.78125 L 146.769531 162.476562 L 142.902344 162.476562 " fill-opacity="1" fill-rule="evenodd"/><path fill="#7858a1" d="M 164.242188 162.476562 L 151.953125 174.78125 L 155.820312 174.78125 L 168.109375 162.476562 L 164.242188 162.476562 " fill-opacity="1" fill-rule="evenodd"/><path fill="#4b247d" d="M 112.816406 162.476562 L 107.015625 168.285156 L 107.015625 168.796875 L 117.546875 168.796875 L 123.859375 162.476562 L 112.816406 162.476562 " fill-opacity="1" fill-rule="evenodd"/><path fill="#4b247d" d="M 150.636719 162.476562 L 144.320312 168.796875 L 155.367188 168.796875 L 161.679688 162.476562 L 150.636719 162.476562 " fill-opacity="1" fill-rule="evenodd"/><path fill="#4b247d" d="M 142.902344 162.476562 L 136.589844 168.796875 L 140.457031 168.796875 L 146.769531 162.476562 L 142.902344 162.476562 " fill-opacity="1" fill-rule="evenodd"/><path fill="#4b247d" d="M 164.242188 162.476562 L 157.929688 168.796875 L 161.792969 168.796875 L 168.109375 162.476562 L 164.242188 162.476562 " fill-opacity="1" fill-rule="evenodd"/><path fill="#ffffff" d="M 107.015625 173.074219 L 168.308594 173.074219 L 168.308594 174.78125 L 107.015625 174.78125 L 107.015625 173.074219 " fill-opacity="1" fill-rule="evenodd"/><path fill="#ffffff" d="M 107.015625 174.773438 L 107.015625 162.476562 L 108.714844 162.476562 L 108.714844 174.773438 L 107.015625 174.773438 " fill-opacity="1" fill-rule="evenodd"/><path fill="#ffffff" d="M 121.914062 174.773438 C 121.914062 170.675781 121.914062 166.574219 121.914062 162.476562 C 122.480469 162.476562 123.046875 162.476562 123.613281 162.476562 C 123.613281 166.574219 123.613281 170.675781 123.613281 174.773438 C 123.046875 174.773438 122.480469 174.773438 121.914062 174.773438 " fill-opacity="1" fill-rule="evenodd"/><path fill="#ffffff" d="M 136.8125 174.773438 C 136.8125 170.675781 136.8125 166.574219 136.8125 162.476562 C 137.378906 162.476562 137.945312 162.476562 138.511719 162.476562 C 138.511719 166.574219 138.511719 170.675781 138.511719 174.773438 C 137.945312 174.773438 137.378906 174.773438 136.8125 174.773438 " fill-opacity="1" fill-rule="evenodd"/><path fill="#ffffff" d="M 151.707031 174.773438 C 151.707031 170.675781 151.707031 166.574219 151.707031 162.476562 C 152.277344 162.476562 152.84375 162.476562 153.410156 162.476562 C 153.410156 166.574219 153.410156 170.675781 153.410156 174.773438 C 152.84375 174.773438 152.277344 174.773438 151.707031 174.773438 " fill-opacity="1" fill-rule="evenodd"/><path fill="#ffffff" d="M 166.605469 174.773438 L 166.605469 162.476562 L 168.308594 162.476562 L 168.308594 174.773438 L 166.605469 174.773438 " fill-opacity="1" fill-rule="evenodd"/><path fill="#cccccc" d="M 107.015625 168.796875 L 107.015625 162.476562 L 108.714844 162.476562 L 108.714844 168.796875 L 107.015625 168.796875 " fill-opacity="1" fill-rule="evenodd"/><path fill="#cccccc" d="M 121.914062 168.796875 L 121.914062 162.476562 C 122.480469 162.476562 123.046875 162.476562 123.613281 162.476562 L 123.613281 168.796875 L 121.914062 168.796875 " fill-opacity="1" fill-rule="evenodd"/><path fill="#cccccc" d="M 136.8125 168.796875 L 136.8125 162.476562 C 137.378906 162.476562 137.945312 162.476562 138.511719 162.476562 L 138.511719 168.796875 L 136.8125 168.796875 " fill-opacity="1" fill-rule="evenodd"/><path fill="#cccccc" d="M 151.707031 168.796875 L 151.707031 162.476562 C 152.277344 162.476562 152.84375 162.476562 153.410156 162.476562 L 153.410156 168.796875 L 151.707031 168.796875 " fill-opacity="1" fill-rule="evenodd"/><path fill="#cccccc" d="M 166.605469 174.773438 L 166.605469 162.476562 L 168.308594 162.476562 L 168.308594 174.773438 L 166.605469 174.773438 " fill-opacity="1" fill-rule="evenodd"/><path fill="#cccccc" d="M 107.015625 162.476562 L 168.308594 162.476562 L 168.308594 164.179688 L 107.015625 164.179688 L 107.015625 162.476562 " fill-opacity="1" fill-rule="evenodd"/><path fill="#33135c" d="M 166.605469 217.53125 L 166.605469 195.84375 L 161.894531 195.84375 L 161.894531 217.53125 L 166.605469 217.53125 " fill-opacity="1" fill-rule="evenodd"/><path fill="#7858a1" d="M 160.996094 194.746094 L 166.605469 189.09375 L 166.605469 188.789062 L 155.863281 188.789062 L 154.6875 189.972656 L 154.6875 194.746094 L 160.996094 194.746094 " fill-opacity="1" fill-rule="evenodd"/><path fill="#4b247d" d="M 161.894531 193.84375 L 166.605469 189.09375 L 166.605469 188.789062 L 161.894531 188.789062 L 161.894531 193.84375 " fill-opacity="1" fill-rule="evenodd"/><path fill="#7858a1" d="M 124.039062 193.414062 L 128.628906 188.789062 L 124.039062 188.789062 Z M 124.039062 193.414062 " fill-opacity="1" fill-rule="evenodd"/><path fill="#7858a1" d="M 135.960938 208.386719 L 126.890625 217.53125 L 135.960938 217.53125 Z M 135.960938 208.386719 " fill-opacity="1" fill-rule="evenodd"/><path fill="#7858a1" d="M 135.960938 200.59375 L 124.039062 212.609375 L 124.039062 216.507812 L 135.960938 204.492188 L 135.960938 200.59375 " fill-opacity="1" fill-rule="evenodd"/><path fill="#7858a1" d="M 110.585938 195.84375 L 108.714844 197.726562 L 108.714844 208.859375 L 120.636719 196.84375 L 120.636719 195.84375 L 110.585938 195.84375 " fill-opacity="1" fill-rule="evenodd"/><path fill="#7858a1" d="M 120.636719 216.042969 L 119.160156 217.53125 L 120.636719 217.53125 Z M 120.636719 216.042969 " fill-opacity="1" fill-rule="evenodd"/><path fill="#7858a1" d="M 154.6875 200.644531 L 159.449219 195.84375 L 154.6875 195.84375 Z M 154.6875 200.644531 " fill-opacity="1" fill-rule="evenodd"/><path fill="#7858a1" d="M 162.011719 195.84375 L 154.6875 203.226562 L 154.6875 207.125 L 165.878906 195.84375 L 162.011719 195.84375 " fill-opacity="1" fill-rule="evenodd"/><path fill="#7858a1" d="M 151.28125 192.941406 L 139.363281 204.957031 L 139.363281 216.089844 L 151.28125 204.074219 L 151.28125 192.941406 " fill-opacity="1" fill-rule="evenodd"/><path fill="#7858a1" d="M 147.671875 188.789062 L 139.363281 197.164062 L 139.363281 201.0625 L 151.28125 189.046875 L 151.28125 188.789062 L 147.671875 188.789062 " fill-opacity="1" fill-rule="evenodd"/><path fill="#7858a1" d="M 151.28125 206.660156 L 140.496094 217.53125 L 144.363281 217.53125 L 151.28125 210.554688 L 151.28125 206.660156 " fill-opacity="1" fill-rule="evenodd"/><path fill="#4b247d" d="M 162.011719 195.84375 L 161.894531 195.964844 L 161.894531 199.859375 L 165.878906 195.84375 L 162.011719 195.84375 " fill-opacity="1" fill-rule="evenodd"/><path fill="#ffffff" d="M 110.476562 194.746094 L 153.992188 194.746094 L 153.992188 195.84375 L 110.476562 195.84375 L 110.476562 194.746094 " fill-opacity="1" fill-rule="evenodd"/><path fill="#ffffff" d="M 140.605469 201.394531 L 141.890625 201.394531 L 141.890625 207.847656 L 140.605469 207.847656 L 140.605469 201.394531 " fill-opacity="1" fill-rule="evenodd"/><path fill="#ffffff" d="M 133.433594 201.394531 L 134.71875 201.394531 L 134.71875 207.847656 L 133.433594 207.847656 L 133.433594 201.394531 " fill-opacity="1" fill-rule="evenodd"/><path fill="#4b247d" d="M 163.109375 194.746094 L 166.605469 191.246094 L 166.605469 194.746094 Z M 163.109375 194.746094 " fill-opacity="1" fill-rule="evenodd"/><path fill="#7858a1" d="M 117.621094 188.789062 L 111.679688 194.746094 L 120.636719 194.746094 L 120.636719 188.789062 L 117.621094 188.789062 " fill-opacity="1" fill-rule="evenodd"/><g clip-path="url(#9f12631775)"><path fill="#ffffff" d="M 15.441406 228.742188 L 101.742188 228.742188 L 101.742188 230.589844 L 15.441406 230.589844 L 15.441406 228.742188 " fill-opacity="1" fill-rule="evenodd"/></g><g clip-path="url(#7e2ad5a39b)"><path fill="#ffffff" d="M 168.308594 228.742188 L 284.628906 228.742188 L 284.628906 230.589844 L 168.308594 230.589844 L 168.308594 228.742188 " fill-opacity="1" fill-rule="evenodd"/></g><path fill="#a5d8f3" d="M 193.191406 57.394531 L 177.765625 57.394531 L 177.765625 70.292969 L 193.191406 70.292969 L 193.191406 57.394531 " fill-opacity="1" fill-rule="evenodd"/><path fill="#652ec7" d="M 177.765625 70.292969 L 183.070312 70.292969 L 183.070312 72.929688 Z M 177.765625 70.292969 " fill-opacity="1" fill-rule="evenodd"/><path fill="#b3b3b3" d="M 168.308594 225.175781 L 223.007812 225.175781 L 223.007812 217.53125 L 168.308594 217.53125 L 168.308594 225.175781 " fill-opacity="1" fill-rule="evenodd"/><path fill="#b3b3b3" d="M 95.152344 225.175781 L 101.742188 225.175781 L 101.742188 217.53125 L 95.152344 217.53125 L 95.152344 225.175781 " fill-opacity="1" fill-rule="evenodd"/><path fill="#4b247d" d="M 274.222656 209.785156 L 231.8125 209.785156 L 231.8125 166.050781 L 274.222656 166.050781 L 274.222656 209.785156 " fill-opacity="1" fill-rule="evenodd"/><path fill="#ffffff" d="M 231.8125 208.078125 L 274.222656 208.078125 L 274.222656 209.785156 L 231.8125 209.785156 L 231.8125 208.078125 " fill-opacity="1" fill-rule="evenodd"/><path fill="#33135c" d="M 272.074219 170.054688 L 231.8125 170.054688 L 231.8125 166.902344 L 274.222656 166.902344 L 272.074219 170.054688 " fill-opacity="1" fill-rule="evenodd"/><path fill="#7858a1" d="M 231.8125 182.074219 L 246.8125 166.050781 L 259.105469 166.050781 L 231.8125 195.203125 L 231.8125 182.074219 " fill-opacity="1" fill-rule="evenodd"/><path fill="#7858a1" d="M 231.8125 199.472656 L 263.101562 166.050781 L 267.546875 166.050781 L 231.8125 204.222656 L 231.8125 199.472656 " fill-opacity="1" fill-rule="evenodd"/><path fill="#4b247d" d="M 243.066406 170.054688 L 246.015625 166.902344 L 258.308594 166.902344 L 255.359375 170.054688 L 243.066406 170.054688 " fill-opacity="1" fill-rule="evenodd"/><path fill="#4b247d" d="M 259.355469 170.054688 L 262.304688 166.902344 L 266.75 166.902344 L 263.800781 170.054688 L 259.355469 170.054688 " fill-opacity="1" fill-rule="evenodd"/><path fill="#ffffff" d="M 231.8125 165.199219 L 274.222656 165.199219 L 274.222656 166.902344 L 231.8125 166.902344 L 231.8125 165.199219 " fill-opacity="1" fill-rule="evenodd"/><path fill="#ffffff" d="M 244.425781 209.777344 C 244.425781 205.222656 244.425781 171.457031 244.425781 166.902344 C 244.996094 166.902344 245.5625 166.902344 246.128906 166.902344 C 246.128906 171.457031 246.128906 205.222656 246.128906 209.777344 C 245.5625 209.777344 244.996094 209.777344 244.425781 209.777344 " fill-opacity="1" fill-rule="evenodd"/><path fill="#ffffff" d="M 259.324219 209.777344 C 259.324219 205.222656 259.324219 171.457031 259.324219 166.902344 C 259.894531 166.902344 260.460938 166.902344 261.027344 166.902344 C 261.027344 171.457031 261.027344 205.222656 261.027344 209.777344 C 260.460938 209.777344 259.894531 209.777344 259.324219 209.777344 " fill-opacity="1" fill-rule="evenodd"/><path fill="#cccccc" d="M 244.425781 169.367188 L 244.425781 166.902344 C 244.996094 166.902344 245.5625 166.902344 246.128906 166.902344 L 246.128906 169.367188 L 244.425781 169.367188 " fill-opacity="1" fill-rule="evenodd"/><path fill="#cccccc" d="M 259.324219 169.367188 L 259.324219 166.902344 C 259.894531 166.902344 260.460938 166.902344 261.027344 166.902344 L 261.027344 169.367188 L 259.324219 169.367188 " fill-opacity="1" fill-rule="evenodd"/><path fill="#ffffff" d="M 230.113281 209.777344 C 230.113281 205.042969 230.113281 169.933594 230.113281 165.199219 C 230.679688 165.199219 231.246094 165.199219 231.8125 165.199219 C 231.8125 169.933594 231.8125 205.042969 231.8125 209.777344 C 231.246094 209.777344 230.679688 209.777344 230.113281 209.777344 " fill-opacity="1" fill-rule="evenodd"/><path fill="#652ec7" d="M 225.597656 127.125 L 89.816406 127.125 L 89.816406 125.210938 L 225.597656 125.210938 L 225.597656 127.125 " fill-opacity="1" fill-rule="evenodd"/><path fill="#ffffff" d="M 192.542969 225.6875 L 195.699219 225.6875 C 196.277344 225.6875 196.75 226.160156 196.75 226.738281 C 196.75 227.316406 196.277344 227.789062 195.699219 227.789062 L 192.542969 227.789062 C 191.964844 227.789062 191.492188 227.316406 191.492188 226.738281 C 191.492188 226.160156 191.964844 225.6875 192.542969 225.6875 " fill-opacity="1" fill-rule="evenodd"/><path fill="#fdcbfc" d="M 75.382812 157.855469 L 75.382812 219.152344 L 22.65625 219.152344 L 22.65625 211.660156 L 24.167969 211.660156 L 24.167969 167.078125 L 22.65625 167.078125 L 22.65625 157.855469 L 75.382812 157.855469 " fill-opacity="1" fill-rule="evenodd"/><path fill="#de38c8" d="M 75.382812 159.816406 L 75.382812 219.152344 L 22.65625 219.152344 L 22.65625 216.132812 L 75.382812 159.816406 " fill-opacity="1" fill-rule="evenodd"/><path fill="#de38c8" d="M 75.382812 157.855469 L 75.382812 161.671875 L 22.65625 161.671875 L 22.65625 157.855469 L 75.382812 157.855469 " fill-opacity="1" fill-rule="evenodd"/><path fill="#ffffff" d="M 75.382812 157.855469 L 20.5 157.855469 L 20.5 154.035156 L 75.382812 154.035156 L 75.382812 157.855469 " fill-opacity="1" fill-rule="evenodd"/><path fill="#4b247d" d="M 68.277344 211.660156 L 24.167969 211.660156 L 24.167969 167.929688 L 68.277344 167.929688 L 68.277344 211.660156 " fill-opacity="1" fill-rule="evenodd"/><path fill="#33135c" d="M 68.277344 211.660156 L 26.84375 211.660156 L 67.785156 167.929688 L 68.277344 167.929688 L 68.277344 211.660156 " fill-opacity="1" fill-rule="evenodd"/><path fill="#ffffff" d="M 66.578125 211.65625 L 66.578125 197.992188 L 68.277344 197.992188 L 68.277344 211.65625 L 66.578125 211.65625 " fill-opacity="1" fill-rule="evenodd"/><path fill="#ffffff" d="M 24.167969 209.957031 L 68.277344 209.957031 L 68.277344 211.660156 L 24.167969 211.660156 L 24.167969 209.957031 " fill-opacity="1" fill-rule="evenodd"/><path fill="#33135c" d="M 65.710938 171.929688 L 24.167969 171.929688 L 24.167969 168.78125 L 67.859375 168.78125 L 65.710938 171.929688 " fill-opacity="1" fill-rule="evenodd"/><path fill="#4b247d" d="M 37.597656 211.660156 L 68.277344 178.886719 L 68.277344 192.019531 L 49.890625 211.660156 L 37.597656 211.660156 " fill-opacity="1" fill-rule="evenodd"/><path fill="#4b247d" d="M 53.886719 211.660156 L 68.277344 196.289062 L 68.277344 201.035156 L 58.332031 211.660156 L 53.886719 211.660156 " fill-opacity="1" fill-rule="evenodd"/><path fill="#7858a1" d="M 24.167969 183.953125 L 39.167969 167.929688 L 51.460938 167.929688 L 24.167969 197.082031 L 24.167969 183.953125 " fill-opacity="1" fill-rule="evenodd"/><path fill="#7858a1" d="M 24.167969 201.351562 L 55.457031 167.929688 L 59.902344 167.929688 L 24.167969 206.101562 L 24.167969 201.351562 " fill-opacity="1" fill-rule="evenodd"/><path fill="#4b247d" d="M 35.421875 171.929688 L 38.371094 168.78125 L 50.664062 168.78125 L 47.714844 171.929688 L 35.421875 171.929688 " fill-opacity="1" fill-rule="evenodd"/><path fill="#4b247d" d="M 51.710938 171.929688 L 54.660156 168.78125 L 59.105469 168.78125 L 56.15625 171.929688 L 51.710938 171.929688 " fill-opacity="1" fill-rule="evenodd"/><path fill="#cccccc" d="M 28.4375 209.957031 L 68.277344 209.957031 L 68.277344 211.660156 L 26.84375 211.660156 L 28.4375 209.957031 " fill-opacity="1" fill-rule="evenodd"/><path fill="#cccccc" d="M 24.167969 167.078125 L 68.277344 167.078125 C 68.277344 181.9375 68.277344 196.796875 68.277344 211.65625 L 66.578125 211.65625 L 66.578125 168.78125 L 24.167969 168.78125 L 24.167969 167.078125 " fill-opacity="1" fill-rule="evenodd"/><path fill="#ffffff" d="M 36.78125 211.65625 C 36.78125 207.101562 36.78125 173.335938 36.78125 168.78125 C 37.347656 168.78125 37.914062 168.78125 38.484375 168.78125 C 38.484375 173.335938 38.484375 207.101562 38.484375 211.65625 C 37.914062 211.65625 37.347656 211.65625 36.78125 211.65625 " fill-opacity="1" fill-rule="evenodd"/><path fill="#ffffff" d="M 51.679688 211.65625 C 51.679688 207.101562 51.679688 173.335938 51.679688 168.78125 C 52.246094 168.78125 52.8125 168.78125 53.382812 168.78125 C 53.382812 173.335938 53.382812 207.101562 53.382812 211.65625 C 52.8125 211.65625 52.246094 211.65625 51.679688 211.65625 " fill-opacity="1" fill-rule="evenodd"/><path fill="#cccccc" d="M 36.78125 211.65625 L 36.78125 202.273438 L 38.484375 200.453125 L 38.484375 211.65625 C 37.914062 211.65625 37.347656 211.65625 36.78125 211.65625 " fill-opacity="1" fill-rule="evenodd"/><path fill="#cccccc" d="M 51.679688 211.65625 L 51.679688 186.359375 L 53.382812 184.539062 L 53.382812 211.65625 C 52.8125 211.65625 52.246094 211.65625 51.679688 211.65625 " fill-opacity="1" fill-rule="evenodd"/><path fill="#cccccc" d="M 36.78125 171.246094 L 36.78125 168.78125 C 37.347656 168.78125 37.914062 168.78125 38.484375 168.78125 L 38.484375 171.246094 L 36.78125 171.246094 " fill-opacity="1" fill-rule="evenodd"/><path fill="#cccccc" d="M 51.679688 171.246094 L 51.679688 168.78125 C 52.246094 168.78125 52.8125 168.78125 53.382812 168.78125 L 53.382812 171.246094 L 51.679688 171.246094 " fill-opacity="1" fill-rule="evenodd"/><path fill="#b3b3b3" d="M 223.007812 127.125 L 91.855469 127.125 L 91.855469 129.035156 L 223.007812 129.035156 L 223.007812 127.125 " fill-opacity="1" fill-rule="evenodd"/><g clip-path="url(#30e3880490)"><path fill="#652ec7" d="M 193.191406 55.285156 L 194.824219 55.285156 L 194.824219 226.996094 L 193.191406 226.996094 L 193.191406 55.285156 " fill-opacity="1" fill-rule="evenodd"/></g></svg>