<svg xmlns="http://www.w3.org/2000/svg" xmlns:xlink="http://www.w3.org/1999/xlink" width="400" zoomAndPan="magnify" viewBox="0 0 300 299.999988" height="400" preserveAspectRatio="xMidYMid meet" version="1.0"><defs><clipPath id="da5cc291b3"><path d="M 39.242188 39.242188 L 255.992188 39.242188 L 255.992188 255.992188 L 39.242188 255.992188 Z M 39.242188 39.242188 " clip-rule="nonzero"/></clipPath></defs><g clip-path="url(#da5cc291b3)"><path fill="#000000" d="M 192.652344 39.242188 L 102.785156 39.242188 L 39.242188 102.785156 L 39.242188 192.652344 L 102.785156 256.203125 L 192.652344 256.203125 L 256.203125 192.652344 L 256.203125 102.785156 Z M 192.652344 39.242188 " fill-opacity="1" fill-rule="nonzero"/></g><path fill="#b96e49" d="M 188.960938 48.15625 L 106.476562 48.15625 L 48.15625 106.476562 L 48.15625 188.960938 L 106.476562 247.289062 L 188.960938 247.289062 L 247.289062 188.960938 L 247.289062 106.476562 Z M 188.960938 48.15625 " fill-opacity="1" fill-rule="nonzero"/><path fill="#000000" d="M 73.578125 190.625 L 83.417969 190.625 C 88.664062 190.625 91.148438 193.027344 91.148438 196.4375 C 91.148438 198.386719 90.308594 199.929688 88.503906 200.890625 C 90.914062 201.902344 92.085938 203.722656 92.085938 206.304688 C 92.085938 210.453125 88.335938 211.867188 84.824219 211.867188 L 73.578125 211.867188 Z M 84.355469 197.199219 C 84.355469 196.238281 83.605469 195.171875 82.480469 195.171875 L 80.136719 195.171875 L 80.136719 199.21875 L 82.71875 199.21875 C 83.746094 199.21875 84.359375 198.15625 84.359375 197.195312 Z M 85.054688 205.289062 C 85.054688 204.125 84.355469 203.015625 82.710938 203.015625 L 80.132812 203.015625 L 80.132812 207.3125 L 82.710938 207.3125 C 83.929688 207.3125 85.054688 206.457031 85.054688 205.289062 Z M 85.054688 205.289062 " fill-opacity="1" fill-rule="nonzero"/><path fill="#000000" d="M 100.75 190.625 L 100.75 204.023438 C 100.75 205.996094 101.945312 207.058594 103.558594 207.058594 C 105.171875 207.058594 106.371094 205.996094 106.371094 204.023438 L 106.371094 190.625 L 112.929688 190.625 L 112.929688 204.785156 C 112.929688 209.539062 109.179688 212.367188 103.558594 212.367188 C 97.941406 212.367188 94.191406 209.535156 94.191406 204.785156 L 94.191406 190.625 Z M 100.75 190.625 " fill-opacity="1" fill-rule="nonzero"/><path fill="#000000" d="M 119.488281 202.886719 C 117.734375 201.972656 115.507812 200.230469 115.507812 196.945312 C 115.507812 191.808594 120.171875 190.117188 124.175781 190.117188 C 128.183594 190.117188 131.675781 192.144531 132.375 192.648438 L 130.03125 197.199219 C 128.25 196.0625 125.90625 195.429688 124.40625 195.429688 C 123.515625 195.429688 122.765625 195.582031 122.765625 196.4375 C 122.765625 197.070312 123.375 197.503906 123.9375 197.703125 C 125.785156 198.335938 126.796875 198.640625 128.152344 199.222656 C 130.101562 200.03125 132.839844 201.675781 132.839844 205.796875 C 132.839844 210.707031 128.414062 212.375 123.703125 212.375 C 118.988281 212.375 115.734375 210.378906 115.03125 209.84375 L 117.84375 204.785156 C 119.0625 205.671875 121.824219 207.058594 123.703125 207.058594 C 124.730469 207.058594 125.574219 206.882812 125.574219 206.046875 C 125.574219 205.3125 124.917969 204.9375 124.402344 204.785156 C 123.042969 204.351562 120.792969 203.566406 119.480469 202.886719 Z M 119.488281 202.886719 " fill-opacity="1" fill-rule="nonzero"/><path fill="#000000" d="M 147.132812 202.886719 C 145.378906 201.972656 143.152344 200.230469 143.152344 196.945312 C 143.152344 191.808594 147.816406 190.117188 151.820312 190.117188 C 155.828125 190.117188 159.316406 192.144531 160.019531 192.648438 L 157.675781 197.199219 C 155.894531 196.0625 153.550781 195.429688 152.050781 195.429688 C 151.160156 195.429688 150.410156 195.582031 150.410156 196.4375 C 150.410156 197.070312 151.015625 197.503906 151.582031 197.703125 C 153.429688 198.335938 154.4375 198.640625 155.796875 199.222656 C 157.742188 200.03125 160.484375 201.675781 160.484375 205.796875 C 160.484375 210.707031 156.058594 212.375 151.34375 212.375 C 146.632812 212.375 143.378906 210.378906 142.675781 209.84375 L 145.484375 204.785156 C 146.707031 205.671875 149.46875 207.058594 151.34375 207.058594 C 152.375 207.058594 153.21875 206.882812 153.21875 206.046875 C 153.21875 205.3125 152.5625 204.9375 152.046875 204.785156 C 150.6875 204.351562 148.4375 203.566406 147.125 202.886719 Z M 147.132812 202.886719 " fill-opacity="1" fill-rule="nonzero"/><path fill="#000000" d="M 178.058594 190.625 L 178.058594 195.933594 L 173.132812 195.933594 L 173.132812 211.863281 L 166.574219 211.863281 L 166.574219 195.933594 L 161.652344 195.933594 L 161.652344 190.625 Z M 178.058594 190.625 " fill-opacity="1" fill-rule="nonzero"/><path fill="#000000" d="M 201.253906 201.242188 C 201.253906 207.265625 197.222656 212.367188 190.242188 212.367188 C 183.257812 212.367188 179.230469 207.257812 179.230469 201.242188 C 179.230469 195.226562 183.257812 190.117188 190.242188 190.117188 C 197.222656 190.117188 201.253906 195.226562 201.253906 201.242188 Z M 186.261719 201.242188 C 186.261719 204.328125 187.972656 206.304688 190.242188 206.304688 C 192.511719 206.304688 194.222656 204.332031 194.222656 201.242188 C 194.222656 198.15625 192.511719 196.1875 190.242188 196.1875 C 187.972656 196.1875 186.261719 198.160156 186.261719 201.242188 Z M 186.261719 201.242188 " fill-opacity="1" fill-rule="nonzero"/><path fill="#000000" d="M 209.917969 205.792969 L 209.917969 211.863281 L 203.355469 211.863281 L 203.355469 190.625 L 213.667969 190.625 C 218.894531 190.625 221.871094 194.0625 221.871094 198.207031 C 221.871094 202.355469 219.082031 205.792969 213.667969 205.792969 Z M 215.304688 198.207031 C 215.304688 196.765625 214.300781 195.679688 212.496094 195.679688 L 209.917969 195.679688 L 209.917969 200.734375 L 212.496094 200.734375 C 214.394531 200.734375 215.304688 199.644531 215.304688 198.203125 Z M 215.304688 198.207031 " fill-opacity="1" fill-rule="nonzero"/><path fill="#000000" d="M 194.527344 97.371094 L 194.527344 103.28125 L 193.410156 103.28125 L 193.410156 78.984375 C 193.410156 74.828125 190.035156 71.453125 185.878906 71.453125 L 109.550781 71.453125 C 105.394531 71.453125 102.019531 74.828125 102.019531 78.984375 L 102.019531 103.28125 L 100.90625 103.28125 L 100.90625 97.371094 L 90.449219 97.371094 L 90.449219 120.101562 L 100.90625 120.101562 L 100.90625 111.917969 L 102.019531 111.917969 L 102.019531 158.402344 C 102.019531 161.230469 103.578125 163.691406 105.882812 164.980469 L 105.882812 171.453125 C 105.882812 175.609375 109.257812 178.984375 113.414062 178.984375 L 120.632812 178.984375 C 124.789062 178.984375 128.164062 175.609375 128.164062 171.453125 L 128.164062 165.933594 L 131.800781 165.933594 L 131.800781 167.839844 L 163.628906 167.839844 L 163.628906 165.933594 L 167.265625 165.933594 L 167.265625 171.453125 C 167.265625 175.609375 170.640625 178.984375 174.796875 178.984375 L 182.015625 178.984375 C 186.171875 178.984375 189.546875 175.609375 189.546875 171.453125 L 189.546875 164.980469 C 191.847656 163.695312 193.410156 161.230469 193.410156 158.402344 L 193.410156 111.917969 L 194.527344 111.917969 L 194.527344 120.101562 L 204.984375 120.101562 L 204.984375 97.371094 Z M 102.023438 109.195312 L 100.910156 109.195312 L 100.910156 106.011719 L 102.023438 106.011719 Z M 127.710938 75.546875 L 167.722656 75.546875 L 167.722656 89.1875 L 127.710938 89.1875 Z M 106.121094 100.023438 C 106.121094 96.046875 109.113281 92.828125 112.808594 92.828125 L 146.355469 92.828125 L 146.355469 118.476562 L 106.121094 118.476562 Z M 120.898438 133.742188 C 120.898438 137.007812 118.25 139.652344 114.988281 139.652344 C 111.726562 139.652344 109.082031 137.003906 109.082031 133.742188 C 109.082031 130.484375 111.726562 127.835938 114.988281 127.835938 C 118.25 127.835938 120.898438 130.484375 120.898438 133.742188 Z M 115.503906 176.023438 L 112.835938 176.023438 L 112.835938 167.484375 L 115.503906 167.484375 Z M 121.652344 176.023438 L 118.984375 176.023438 L 118.984375 167.484375 L 121.652344 167.484375 Z M 176.464844 176.023438 L 173.796875 176.023438 L 173.796875 167.484375 L 176.464844 167.484375 Z M 182.613281 176.023438 L 179.945312 176.023438 L 179.945312 167.484375 L 182.613281 167.484375 Z M 188.8125 157.578125 L 106.640625 157.578125 L 106.640625 155.507812 L 188.8125 155.507812 Z M 174.550781 133.742188 C 174.550781 130.476562 177.199219 127.835938 180.460938 127.835938 C 183.71875 127.835938 186.367188 130.484375 186.367188 133.742188 C 186.367188 137.003906 183.71875 139.652344 180.460938 139.652344 C 177.199219 139.652344 174.550781 137.003906 174.550781 133.742188 Z M 189.328125 118.476562 L 149.09375 118.476562 L 149.09375 92.828125 L 182.640625 92.828125 C 186.332031 92.828125 189.328125 96.046875 189.328125 100.023438 Z M 194.535156 109.195312 L 193.417969 109.195312 L 193.417969 106.011719 L 194.535156 106.011719 Z M 194.535156 109.195312 " fill-opacity="1" fill-rule="nonzero"/></svg>