<svg xmlns="http://www.w3.org/2000/svg" xmlns:xlink="http://www.w3.org/1999/xlink" width="400" zoomAndPan="magnify" viewBox="0 0 300 299.999988" height="400" preserveAspectRatio="xMidYMid meet" version="1.0"><defs><clipPath id="c03a3b5310"><path d="M 57 24 L 249.421875 24 L 249.421875 284 L 57 284 Z M 57 24 " clip-rule="nonzero"/></clipPath></defs><g clip-path="url(#c03a3b5310)"><path fill="#d81111" d="M 249.1875 120.246094 C 249.191406 118.402344 249.140625 116.558594 249.039062 114.714844 C 248.9375 112.875 248.78125 111.035156 248.570312 109.203125 C 248.363281 107.371094 248.101562 105.542969 247.785156 103.726562 C 247.472656 101.90625 247.105469 100.101562 246.683594 98.300781 C 246.265625 96.503906 245.796875 94.722656 245.273438 92.953125 C 244.75 91.183594 244.179688 89.429688 243.554688 87.691406 C 242.933594 85.957031 242.257812 84.238281 241.535156 82.539062 C 240.8125 80.84375 240.042969 79.167969 239.222656 77.515625 C 238.402344 75.859375 237.535156 74.234375 236.625 72.628906 C 235.710938 71.027344 234.75 69.449219 233.746094 67.902344 C 232.742188 66.355469 231.691406 64.839844 230.601562 63.351562 C 229.507812 61.863281 228.375 60.410156 227.195312 58.988281 C 226.019531 57.566406 224.804688 56.179688 223.546875 54.828125 C 222.292969 53.476562 220.996094 52.164062 219.664062 50.886719 C 218.332031 49.609375 216.964844 48.375 215.558594 47.175781 C 214.15625 45.976562 212.71875 44.824219 211.246094 43.707031 C 209.777344 42.59375 208.277344 41.523438 206.742188 40.496094 C 205.210938 39.46875 203.648438 38.484375 202.058594 37.546875 C 200.46875 36.609375 198.855469 35.71875 197.214844 34.875 C 195.574219 34.03125 193.910156 33.234375 192.222656 32.488281 C 190.535156 31.738281 188.828125 31.039062 187.101562 30.390625 C 185.375 29.742188 183.628906 29.144531 181.867188 28.59375 C 180.105469 28.046875 178.332031 27.550781 176.539062 27.105469 C 174.75 26.65625 172.949219 26.265625 171.132812 25.921875 C 169.320312 25.582031 167.5 25.292969 165.667969 25.054688 C 163.839844 24.820312 162.003906 24.636719 160.164062 24.503906 C 158.324219 24.375 156.480469 24.296875 154.632812 24.273438 C 152.789062 24.25 150.945312 24.28125 149.101562 24.363281 C 147.257812 24.445312 145.417969 24.582031 143.582031 24.769531 C 141.75 24.960938 139.917969 25.203125 138.097656 25.496094 C 136.277344 25.789062 134.464844 26.136719 132.664062 26.539062 C 130.863281 26.9375 129.074219 27.386719 127.296875 27.890625 C 125.523438 28.394531 123.761719 28.945312 122.019531 29.550781 C 120.277344 30.15625 118.550781 30.808594 116.847656 31.515625 C 115.140625 32.21875 113.457031 32.972656 111.796875 33.773438 C 110.132812 34.574219 108.496094 35.421875 106.882812 36.320312 C 105.269531 37.214844 103.683594 38.15625 102.125 39.144531 C 100.566406 40.132812 99.039062 41.164062 97.539062 42.238281 C 96.039062 43.316406 94.574219 44.433594 93.136719 45.59375 C 91.703125 46.753906 90.304688 47.957031 88.9375 49.199219 C 87.574219 50.441406 86.246094 51.71875 84.957031 53.039062 C 83.664062 54.355469 82.414062 55.710938 81.199219 57.101562 C 79.988281 58.492188 78.816406 59.917969 77.683594 61.375 C 76.554688 62.835938 75.46875 64.324219 74.421875 65.847656 C 73.378906 67.367188 72.378906 68.917969 71.425781 70.496094 C 70.46875 72.074219 69.5625 73.679688 68.699219 75.3125 C 67.839844 76.945312 67.023438 78.597656 66.257812 80.277344 C 65.492188 81.957031 64.773438 83.65625 64.105469 85.375 C 63.4375 87.097656 62.820312 88.832031 62.253906 90.589844 C 61.683594 92.34375 61.167969 94.117188 60.703125 95.902344 C 60.238281 97.6875 59.824219 99.484375 59.464844 101.292969 C 59.101562 103.101562 58.792969 104.921875 58.535156 106.75 C 58.28125 108.578125 58.078125 110.410156 57.925781 112.25 C 57.777344 114.085938 57.679688 115.929688 57.636719 117.773438 C 57.589844 119.621094 57.601562 121.464844 57.664062 123.308594 C 57.726562 125.152344 57.839844 126.992188 58.011719 128.832031 C 58.179688 130.667969 58.402344 132.5 58.675781 134.324219 C 58.949219 136.148438 59.277344 137.964844 59.65625 139.769531 C 60.039062 141.574219 60.46875 143.367188 60.953125 145.148438 C 61.4375 146.929688 61.96875 148.695312 62.554688 150.445312 C 63.140625 152.195312 63.777344 153.925781 64.460938 155.640625 C 65.148438 157.351562 65.882812 159.042969 66.664062 160.714844 C 67.449219 162.386719 68.277344 164.03125 69.15625 165.65625 C 70.035156 167.277344 70.960938 168.875 71.929688 170.445312 L 72.742188 171.578125 C 74.882812 174.953125 77.21875 178.195312 79.742188 181.300781 L 153.300781 283.667969 L 227.085938 181.429688 C 229.636719 178.34375 231.972656 175.105469 234.085938 171.707031 L 234.898438 170.605469 C 237.234375 166.84375 239.296875 162.941406 241.085938 158.890625 C 242.875 154.84375 244.371094 150.6875 245.582031 146.429688 C 246.789062 142.171875 247.695312 137.851562 248.300781 133.464844 C 248.902344 129.082031 249.199219 124.675781 249.1875 120.246094 Z M 153.367188 201.261719 C 152.039062 201.257812 150.714844 201.222656 149.390625 201.152344 C 148.070312 201.085938 146.746094 200.984375 145.429688 200.851562 C 144.109375 200.71875 142.796875 200.554688 141.484375 200.355469 C 140.175781 200.160156 138.871094 199.929688 137.570312 199.667969 C 136.273438 199.40625 134.980469 199.113281 133.695312 198.789062 C 132.410156 198.464844 131.136719 198.105469 129.867188 197.71875 C 128.601562 197.332031 127.34375 196.914062 126.097656 196.464844 C 124.851562 196.015625 123.617188 195.535156 122.394531 195.027344 C 121.167969 194.515625 119.960938 193.976562 118.761719 193.40625 C 117.566406 192.839844 116.382812 192.238281 115.214844 191.613281 C 114.050781 190.984375 112.898438 190.332031 111.761719 189.648438 C 110.628906 188.964844 109.511719 188.25 108.410156 187.511719 C 107.308594 186.773438 106.226562 186.007812 105.164062 185.21875 C 104.101562 184.425781 103.058594 183.609375 102.039062 182.765625 C 101.015625 181.921875 100.011719 181.054688 99.03125 180.164062 C 98.054688 179.273438 97.09375 178.355469 96.160156 177.417969 C 95.226562 176.480469 94.3125 175.519531 93.425781 174.535156 C 92.539062 173.550781 91.675781 172.546875 90.835938 171.519531 C 89.996094 170.492188 89.183594 169.449219 88.394531 168.382812 C 87.609375 167.316406 86.847656 166.230469 86.113281 165.128906 C 85.378906 164.023438 84.671875 162.90625 83.996094 161.765625 C 83.316406 160.628906 82.664062 159.476562 82.042969 158.304688 C 81.417969 157.136719 80.824219 155.949219 80.261719 154.75 C 79.695312 153.554688 79.164062 152.339844 78.65625 151.117188 C 78.152344 149.890625 77.679688 148.652344 77.234375 147.40625 C 76.789062 146.15625 76.375 144.898438 75.992188 143.628906 C 75.613281 142.359375 75.261719 141.082031 74.941406 139.796875 C 74.621094 138.511719 74.332031 137.21875 74.078125 135.917969 C 73.820312 134.617188 73.597656 133.3125 73.402344 132 C 73.210938 130.691406 73.050781 129.375 72.921875 128.054688 C 72.796875 126.738281 72.699219 125.414062 72.636719 124.089844 C 72.574219 122.769531 72.542969 121.445312 72.546875 120.117188 C 72.546875 118.792969 72.582031 117.46875 72.648438 116.144531 C 72.71875 114.820312 72.816406 113.5 72.949219 112.183594 C 73.082031 110.863281 73.246094 109.550781 73.441406 108.238281 C 73.636719 106.929688 73.867188 105.625 74.125 104.324219 C 74.386719 103.023438 74.679688 101.734375 75.003906 100.449219 C 75.328125 99.164062 75.683594 97.886719 76.070312 96.617188 C 76.457031 95.351562 76.871094 94.09375 77.320312 92.847656 C 77.769531 91.601562 78.246094 90.363281 78.757812 89.140625 C 79.265625 87.917969 79.804688 86.707031 80.371094 85.507812 C 80.941406 84.3125 81.539062 83.128906 82.164062 81.960938 C 82.789062 80.792969 83.445312 79.640625 84.128906 78.507812 C 84.808594 77.371094 85.519531 76.253906 86.257812 75.152344 C 86.996094 74.050781 87.761719 72.96875 88.550781 71.90625 C 89.339844 70.84375 90.15625 69.796875 91 68.777344 C 91.839844 67.753906 92.707031 66.75 93.597656 65.769531 C 94.492188 64.789062 95.40625 63.832031 96.34375 62.894531 C 97.28125 61.957031 98.242188 61.046875 99.226562 60.15625 C 100.207031 59.269531 101.210938 58.40625 102.238281 57.566406 C 103.261719 56.726562 104.308594 55.910156 105.375 55.125 C 106.4375 54.335938 107.523438 53.574219 108.625 52.839844 C 109.726562 52.101562 110.847656 51.394531 111.984375 50.714844 C 113.121094 50.035156 114.277344 49.382812 115.445312 48.761719 C 116.613281 48.136719 117.796875 47.542969 118.996094 46.976562 C 120.195312 46.410156 121.40625 45.875 122.632812 45.371094 C 123.855469 44.863281 125.09375 44.390625 126.339844 43.945312 C 127.589844 43.5 128.847656 43.085938 130.117188 42.699219 C 131.382812 42.316406 132.660156 41.964844 133.949219 41.644531 C 135.234375 41.324219 136.527344 41.035156 137.824219 40.777344 C 139.125 40.519531 140.429688 40.292969 141.742188 40.101562 C 143.054688 39.90625 144.367188 39.746094 145.6875 39.617188 C 147.007812 39.488281 148.328125 39.394531 149.652344 39.328125 C 150.976562 39.265625 152.300781 39.234375 153.625 39.234375 C 154.949219 39.234375 156.273438 39.269531 157.597656 39.335938 C 158.921875 39.402344 160.242188 39.5 161.5625 39.628906 C 162.878906 39.761719 164.195312 39.925781 165.503906 40.121094 C 166.816406 40.316406 168.121094 40.542969 169.421875 40.800781 C 170.71875 41.0625 172.011719 41.351562 173.296875 41.675781 C 174.582031 42 175.859375 42.351562 177.125 42.738281 C 178.394531 43.125 179.652344 43.539062 180.898438 43.988281 C 182.148438 44.433594 183.382812 44.914062 184.605469 45.421875 C 185.832031 45.929688 187.042969 46.464844 188.238281 47.03125 C 189.4375 47.601562 190.621094 48.195312 191.789062 48.820312 C 192.957031 49.445312 194.109375 50.101562 195.246094 50.78125 C 196.382812 51.464844 197.5 52.171875 198.601562 52.910156 C 199.703125 53.648438 200.785156 54.410156 201.851562 55.199219 C 202.914062 55.992188 203.957031 56.804688 204.980469 57.648438 C 206.007812 58.488281 207.007812 59.355469 207.992188 60.242188 C 208.972656 61.132812 209.929688 62.046875 210.867188 62.984375 C 211.804688 63.921875 212.71875 64.882812 213.605469 65.863281 C 214.496094 66.847656 215.363281 67.851562 216.203125 68.875 C 217.042969 69.898438 217.855469 70.945312 218.644531 72.007812 C 219.433594 73.074219 220.199219 74.15625 220.933594 75.257812 C 221.667969 76.363281 222.378906 77.480469 223.058594 78.617188 C 223.738281 79.753906 224.390625 80.90625 225.015625 82.078125 C 225.640625 83.246094 226.234375 84.429688 226.800781 85.625 C 227.367188 86.824219 227.90625 88.035156 228.414062 89.261719 C 228.917969 90.484375 229.394531 91.722656 229.84375 92.96875 C 230.289062 94.214844 230.703125 95.472656 231.089844 96.742188 C 231.472656 98.011719 231.824219 99.289062 232.148438 100.574219 C 232.46875 101.859375 232.757812 103.152344 233.019531 104.449219 C 233.277344 105.75 233.503906 107.054688 233.695312 108.367188 C 233.890625 109.675781 234.054688 110.992188 234.183594 112.3125 C 234.3125 113.628906 234.410156 114.949219 234.476562 116.273438 C 234.539062 117.597656 234.574219 118.921875 234.574219 120.246094 C 234.570312 121.574219 234.539062 122.902344 234.472656 124.230469 C 234.40625 125.558594 234.308594 126.882812 234.175781 128.203125 C 234.042969 129.523438 233.882812 130.84375 233.683594 132.15625 C 233.488281 133.46875 233.261719 134.777344 233 136.082031 C 232.742188 137.382812 232.449219 138.679688 232.125 139.96875 C 231.800781 141.257812 231.449219 142.535156 231.0625 143.804688 C 230.675781 145.078125 230.257812 146.339844 229.808594 147.589844 C 229.359375 148.839844 228.882812 150.078125 228.371094 151.304688 C 227.863281 152.53125 227.324219 153.746094 226.757812 154.945312 C 226.1875 156.144531 225.589844 157.332031 224.964844 158.503906 C 224.335938 159.675781 223.679688 160.828125 222.996094 161.96875 C 222.3125 163.109375 221.601562 164.230469 220.863281 165.332031 C 220.125 166.4375 219.359375 167.523438 218.570312 168.589844 C 217.777344 169.65625 216.960938 170.703125 216.117188 171.730469 C 215.273438 172.753906 214.40625 173.761719 213.511719 174.746094 C 212.621094 175.726562 211.703125 176.6875 210.765625 177.628906 C 209.824219 178.566406 208.863281 179.484375 207.878906 180.375 C 206.894531 181.265625 205.886719 182.132812 204.859375 182.976562 C 203.832031 183.816406 202.785156 184.632812 201.71875 185.425781 C 200.652344 186.214844 199.566406 186.980469 198.460938 187.71875 C 197.355469 188.457031 196.234375 189.164062 195.09375 189.847656 C 193.957031 190.53125 192.800781 191.183594 191.628906 191.8125 C 190.457031 192.4375 189.269531 193.035156 188.070312 193.601562 C 186.867188 194.167969 185.65625 194.707031 184.425781 195.214844 C 183.199219 195.722656 181.960938 196.199219 180.710938 196.648438 C 179.460938 197.09375 178.199219 197.511719 176.925781 197.898438 C 175.65625 198.28125 174.375 198.636719 173.085938 198.960938 C 171.796875 199.28125 170.503906 199.574219 169.199219 199.832031 C 167.898438 200.089844 166.589844 200.316406 165.273438 200.511719 C 163.960938 200.707031 162.644531 200.871094 161.320312 201 C 160 201.128906 158.675781 201.226562 157.347656 201.292969 C 156.019531 201.359375 154.695312 201.390625 153.367188 201.390625 Z M 153.367188 201.261719 " fill-opacity="1" fill-rule="nonzero"/></g><path fill="#d81111" d="M 174.625 98.375 L 174.625 66.128906 L 132.886719 66.128906 L 132.886719 98.375 L 100.675781 98.375 L 100.675781 140.113281 L 132.886719 140.113281 L 132.886719 172.355469 L 174.625 172.355469 L 174.625 140.113281 L 206.867188 140.113281 L 206.867188 98.375 Z M 174.625 98.375 " fill-opacity="1" fill-rule="nonzero"/></svg>