<svg xmlns="http://www.w3.org/2000/svg" xmlns:xlink="http://www.w3.org/1999/xlink" width="400" zoomAndPan="magnify" viewBox="0 0 300 299.999988" height="400" preserveAspectRatio="xMidYMid meet" version="1.0"><defs><clipPath id="65aabbe3c9"><path d="M 127 142 L 183 142 L 183 166 L 127 166 Z M 127 142 " clip-rule="nonzero"/></clipPath><clipPath id="aaf26f0d48"><path d="M 153.695312 147.214844 C 153.695312 147.214844 152.824219 151.839844 154.0625 153.121094 C 156.433594 155.574219 161.75 156.558594 165.515625 156.363281 C 168.597656 156.207031 175.535156 146.972656 179.238281 142.828125 C 181.554688 140.230469 185.660156 142.105469 185.660156 142.105469 C 185.660156 142.105469 182.605469 143.492188 179.910156 147.46875 C 176.398438 152.644531 172.148438 160.121094 167.300781 165.046875 C 163.332031 169.078125 156.507812 169.671875 154.011719 170.035156 C 154.011719 170.035156 145.761719 171.738281 141.230469 165.484375 C 137.5625 160.414062 133.179688 155.984375 130.15625 151.671875 C 126.792969 146.867188 122.617188 147.371094 122.617188 147.371094 C 122.617188 147.371094 128.101562 144.226562 130.910156 147.128906 C 133.949219 150.269531 136.644531 155.957031 139.253906 156.019531 C 142.476562 156.101562 149.304688 155.050781 151.742188 153.167969 C 153.691406 151.664062 153.097656 148.175781 153.097656 148.175781 L 151.960938 145.875 C 151.960938 145.875 152.621094 146.410156 153.695312 147.214844 C 154.53125 146.582031 155.027344 146.179688 155.027344 146.179688 Z M 153.695312 147.214844 " clip-rule="evenodd"/></clipPath><clipPath id="8961be17ef"><path d="M 45.386719 45.386719 L 254.636719 45.386719 L 254.636719 254.636719 L 45.386719 254.636719 Z M 45.386719 45.386719 " clip-rule="nonzero"/></clipPath></defs><path fill="#ffb77b" d="M 194.273438 82.539062 C 166.304688 72.179688 138.382812 70.667969 110.535156 82.539062 L 115.09375 151.886719 C 148.101562 196.332031 164.769531 191.292969 188.050781 151.125 Z M 194.273438 82.539062 " fill-opacity="1" fill-rule="evenodd"/><path fill="#6d2b11" d="M 162.984375 122.046875 L 178.875 101.597656 L 173.914062 121.644531 Z M 162.984375 122.046875 " fill-opacity="1" fill-rule="evenodd"/><path fill="#6d2b11" d="M 138.734375 113.542969 C 140.265625 117.265625 142.125 120.835938 143.261719 124.730469 C 143.382812 125.140625 143.8125 125.375 144.226562 125.257812 C 144.636719 125.136719 144.875 124.703125 144.753906 124.292969 C 143.597656 120.347656 141.722656 116.726562 140.167969 112.949219 C 140.007812 112.554688 139.550781 112.363281 139.15625 112.527344 C 138.757812 112.691406 138.570312 113.144531 138.734375 113.542969 Z M 138.734375 113.542969 " fill-opacity="1" fill-rule="evenodd"/><path fill="#6d2b11" d="M 146.023438 116.257812 C 146.019531 116.058594 145.941406 115.867188 145.792969 115.714844 C 145.59375 115.515625 145.394531 115.488281 145.273438 115.484375 C 145.066406 115.472656 144.886719 115.539062 144.734375 115.664062 C 144.644531 115.738281 144.398438 115.960938 144.460938 116.410156 C 144.507812 116.75 145.363281 119.09375 145.570312 119.738281 C 145.703125 120.148438 146.140625 120.371094 146.550781 120.238281 C 146.957031 120.105469 147.183594 119.667969 147.050781 119.261719 C 146.875 118.722656 146.160156 116.652344 146.023438 116.257812 Z M 144.726562 116.84375 C 144.824219 116.933594 144.921875 116.980469 145.007812 117.007812 C 144.90625 116.972656 144.8125 116.917969 144.726562 116.84375 Z M 144.726562 116.84375 " fill-opacity="1" fill-rule="evenodd"/><path fill="#6d2b11" d="M 165.074219 112.894531 C 163.539062 116.617188 161.683594 120.1875 160.546875 124.082031 C 160.425781 124.492188 159.992188 124.730469 159.582031 124.609375 C 159.167969 124.488281 158.933594 124.058594 159.054688 123.644531 C 160.207031 119.699219 162.082031 116.078125 163.636719 112.300781 C 163.800781 111.90625 164.253906 111.714844 164.652344 111.878906 C 165.046875 112.042969 165.238281 112.496094 165.074219 112.894531 Z M 165.074219 112.894531 " fill-opacity="1" fill-rule="evenodd"/><path fill="#6d2b11" d="M 157.785156 115.609375 C 157.785156 115.414062 157.863281 115.21875 158.011719 115.070312 C 158.214844 114.871094 158.414062 114.839844 158.535156 114.835938 C 158.742188 114.824219 158.921875 114.890625 159.074219 115.015625 C 159.160156 115.089844 159.410156 115.3125 159.34375 115.761719 C 159.296875 116.101562 158.445312 118.445312 158.234375 119.089844 C 158.101562 119.5 157.664062 119.722656 157.257812 119.589844 C 156.847656 119.457031 156.625 119.019531 156.757812 118.613281 C 156.929688 118.074219 157.648438 116.007812 157.785156 115.609375 Z M 159.078125 116.199219 C 158.980469 116.285156 158.882812 116.332031 158.800781 116.359375 C 158.902344 116.324219 158.996094 116.273438 159.078125 116.199219 Z M 159.078125 116.199219 " fill-opacity="1" fill-rule="evenodd"/><path fill="#6d2b11" d="M 140.460938 122.046875 L 124.570312 101.597656 L 129.53125 121.644531 Z M 140.460938 122.046875 " fill-opacity="1" fill-rule="evenodd"/><path fill="#ffffff" d="M 153.695312 147.214844 C 153.695312 147.214844 152.824219 151.839844 154.0625 153.121094 C 156.433594 155.574219 161.75 156.558594 165.515625 156.363281 C 168.597656 156.207031 175.535156 146.972656 179.238281 142.828125 C 181.554688 140.230469 185.660156 142.105469 185.660156 142.105469 C 185.660156 142.105469 182.605469 143.492188 179.910156 147.46875 C 176.398438 152.644531 172.148438 160.121094 167.300781 165.046875 C 163.332031 169.078125 156.507812 169.671875 154.011719 170.035156 C 154.011719 170.035156 145.761719 171.738281 141.230469 165.484375 C 137.5625 160.414062 133.179688 155.984375 130.15625 151.671875 C 126.792969 146.867188 122.617188 147.371094 122.617188 147.371094 C 122.617188 147.371094 128.101562 144.226562 130.910156 147.128906 C 133.949219 150.269531 136.644531 155.957031 139.253906 156.019531 C 142.476562 156.101562 149.304688 155.050781 151.742188 153.167969 C 153.691406 151.664062 153.097656 148.175781 153.097656 148.175781 L 151.960938 145.875 C 151.960938 145.875 152.621094 146.410156 153.695312 147.214844 C 154.53125 146.582031 155.027344 146.179688 155.027344 146.179688 Z M 153.695312 147.214844 " fill-opacity="1" fill-rule="evenodd"/><g clip-path="url(#65aabbe3c9)"><g clip-path="url(#aaf26f0d48)"><path fill="#6d2b11" d="M 165.433594 160.660156 C 165.277344 160.703125 165.101562 160.695312 164.921875 160.660156 C 164.683594 160.613281 164.4375 160.523438 164.1875 160.429688 C 163.863281 160.304688 163.542969 160.179688 163.242188 160.121094 C 163.015625 160.078125 162.796875 160.074219 162.601562 160.128906 C 162.40625 160.183594 162.214844 160.335938 162.03125 160.570312 C 161.804688 160.863281 161.582031 161.28125 161.367188 161.699219 C 161.164062 162.09375 160.964844 162.484375 160.761719 162.75 C 160.703125 162.828125 160.644531 162.894531 160.585938 162.941406 C 160.546875 162.972656 160.507812 163 160.46875 163.007812 C 160.347656 163.027344 160.203125 162.964844 160.035156 162.878906 C 159.710938 162.703125 159.339844 162.40625 158.964844 162.109375 C 158.570312 161.792969 158.175781 161.480469 157.839844 161.289062 C 157.566406 161.136719 157.320312 161.066406 157.128906 161.089844 C 157.0625 161.101562 156.992188 161.128906 156.917969 161.191406 C 156.816406 161.273438 156.703125 161.429688 156.585938 161.636719 C 156.238281 162.25 155.828125 163.347656 155.5 164.085938 C 155.40625 164.292969 155.320312 164.46875 155.246094 164.59375 C 155.226562 164.628906 155.199219 164.664062 155.175781 164.691406 C 155.015625 164.628906 154.84375 164.464844 154.65625 164.257812 C 154.28125 163.839844 153.875 163.246094 153.488281 162.738281 C 153.214844 162.378906 152.953125 162.066406 152.710938 161.871094 C 152.507812 161.710938 152.308594 161.628906 152.136719 161.636719 C 151.90625 161.648438 151.601562 161.78125 151.273438 162.003906 C 150.597656 162.460938 149.761719 163.277344 149.097656 163.777344 C 148.910156 163.917969 148.738281 164.03125 148.59375 164.097656 C 148.542969 164.121094 148.5 164.136719 148.457031 164.148438 C 148.433594 164.152344 148.410156 164.160156 148.390625 164.152344 C 148.332031 164.121094 148.28125 164.066406 148.230469 163.992188 C 148.164062 163.894531 148.101562 163.773438 148.042969 163.628906 C 147.753906 162.90625 147.558594 161.738281 147.335938 160.941406 C 147.230469 160.570312 147.113281 160.273438 146.984375 160.121094 C 146.890625 160.011719 146.785156 159.957031 146.683594 159.949219 C 146.40625 159.921875 146.078125 160.019531 145.730469 160.207031 C 145.261719 160.453125 144.738281 160.863281 144.207031 161.273438 C 143.695312 161.671875 143.175781 162.070312 142.699219 162.3125 C 142.414062 162.457031 142.148438 162.546875 141.90625 162.535156 C 141.902344 162.53125 141.882812 162.515625 141.871094 162.503906 C 141.84375 162.46875 141.820312 162.429688 141.800781 162.378906 C 141.691406 162.148438 141.617188 161.78125 141.546875 161.367188 C 141.414062 160.601562 141.304688 159.683594 141.082031 159.117188 C 140.964844 158.824219 140.8125 158.617188 140.636719 158.527344 C 140.351562 158.382812 140.023438 158.351562 139.671875 158.378906 C 139.351562 158.40625 139.011719 158.484375 138.671875 158.558594 C 138.355469 158.632812 138.039062 158.703125 137.746094 158.722656 C 137.488281 158.738281 137.246094 158.714844 137.046875 158.601562 C 137.042969 158.597656 137.027344 158.574219 137.019531 158.5625 C 137.003906 158.53125 136.992188 158.5 136.984375 158.460938 C 136.933594 158.285156 136.910156 158.035156 136.890625 157.753906 C 136.855469 157.308594 136.835938 156.800781 136.75 156.394531 C 136.683594 156.089844 136.578125 155.835938 136.421875 155.695312 C 136.246094 155.535156 136.027344 155.484375 135.78125 155.5 C 135.585938 155.511719 135.367188 155.574219 135.152344 155.640625 C 134.96875 155.699219 134.78125 155.761719 134.613281 155.789062 C 134.496094 155.808594 134.386719 155.816406 134.300781 155.757812 C 134.207031 155.695312 134.140625 155.589844 134.082031 155.464844 C 133.972656 155.230469 133.910156 154.921875 133.855469 154.589844 C 133.773438 154.066406 133.726562 153.476562 133.632812 152.996094 C 133.566406 152.648438 133.46875 152.351562 133.328125 152.160156 C 133.167969 151.945312 132.953125 151.867188 132.703125 151.859375 C 132.5 151.851562 132.273438 151.902344 132.046875 151.957031 C 131.851562 152.007812 131.65625 152.0625 131.484375 152.074219 C 131.375 152.082031 131.269531 152.078125 131.199219 152.007812 C 130.921875 151.722656 130.894531 151.304688 130.867188 150.882812 C 130.835938 150.386719 130.820312 149.882812 130.589844 149.503906 C 130.507812 149.375 130.386719 149.296875 130.234375 149.253906 C 130.0625 149.207031 129.847656 149.207031 129.640625 149.210938 C 129.527344 149.214844 129.421875 149.214844 129.328125 149.203125 C 129.265625 149.195312 129.207031 149.191406 129.195312 149.136719 C 129.070312 148.59375 129.1875 147.824219 129.023438 147.257812 C 128.890625 146.808594 128.609375 146.472656 128 146.390625 C 127.925781 146.378906 127.652344 146.320312 127.519531 146.308594 C 127.425781 146.300781 127.355469 146.324219 127.328125 146.339844 C 127.234375 146.390625 127.203125 146.503906 127.265625 146.589844 C 127.308594 146.65625 127.394531 146.683594 127.476562 146.671875 C 127.527344 146.679688 127.867188 146.738281 127.9375 146.75 C 128.472656 146.820312 128.625 147.191406 128.683594 147.621094 C 128.753906 148.140625 128.691406 148.753906 128.796875 149.207031 C 128.859375 149.476562 129.117188 149.570312 129.460938 149.574219 C 129.628906 149.578125 129.820312 149.5625 129.988281 149.578125 C 130.089844 149.589844 130.183594 149.605469 130.230469 149.679688 C 130.4375 150.011719 130.433594 150.464844 130.460938 150.902344 C 130.492188 151.410156 130.5625 151.90625 130.894531 152.246094 C 131.023438 152.378906 131.195312 152.433594 131.390625 152.441406 C 131.617188 152.445312 131.886719 152.375 132.15625 152.304688 C 132.308594 152.269531 132.457031 152.234375 132.601562 152.222656 C 132.753906 152.210938 132.894531 152.234375 132.988281 152.359375 C 133.105469 152.519531 133.175781 152.769531 133.230469 153.058594 C 133.324219 153.535156 133.371094 154.121094 133.453125 154.640625 C 133.511719 155.007812 133.585938 155.34375 133.703125 155.597656 C 133.792969 155.796875 133.910156 155.949219 134.054688 156.046875 C 134.199219 156.144531 134.367188 156.175781 134.558594 156.164062 C 134.78125 156.148438 135.035156 156.0625 135.289062 155.984375 C 135.46875 155.925781 135.648438 155.871094 135.8125 155.859375 C 135.933594 155.851562 136.042969 155.867188 136.128906 155.949219 C 136.242188 156.050781 136.300781 156.238281 136.347656 156.460938 C 136.429688 156.855469 136.453125 157.347656 136.484375 157.777344 C 136.507812 158.140625 136.546875 158.457031 136.621094 158.648438 C 136.671875 158.773438 136.742188 158.859375 136.820312 158.902344 C 137.097656 159.0625 137.421875 159.105469 137.773438 159.082031 C 138.089844 159.0625 138.429688 158.988281 138.769531 158.910156 C 139.089844 158.839844 139.410156 158.765625 139.707031 158.742188 C 139.972656 158.71875 140.222656 158.734375 140.433594 158.84375 C 140.496094 158.875 140.546875 158.9375 140.59375 159.019531 C 140.691406 159.179688 140.765625 159.40625 140.828125 159.667969 C 141.003906 160.363281 141.097656 161.28125 141.242188 161.9375 C 141.324219 162.300781 141.429688 162.585938 141.558594 162.734375 C 141.648438 162.835938 141.753906 162.886719 141.867188 162.894531 C 142.179688 162.917969 142.53125 162.816406 142.898438 162.628906 C 143.398438 162.375 143.941406 161.960938 144.472656 161.550781 C 144.984375 161.152344 145.488281 160.757812 145.9375 160.515625 C 146.191406 160.378906 146.421875 160.292969 146.625 160.308594 C 146.636719 160.316406 146.675781 160.355469 146.695312 160.386719 C 146.785156 160.527344 146.863281 160.757812 146.941406 161.03125 C 147.167969 161.835938 147.367188 163.019531 147.664062 163.753906 C 147.808594 164.117188 147.996094 164.375 148.199219 164.472656 C 148.324219 164.527344 148.480469 164.53125 148.667969 164.46875 C 148.859375 164.398438 149.101562 164.25 149.363281 164.054688 C 149.925781 163.628906 150.621094 162.96875 151.230469 162.5 C 151.460938 162.324219 151.679688 162.175781 151.875 162.085938 C 151.976562 162.035156 152.074219 162.003906 152.15625 162 C 152.246094 161.996094 152.335938 162.058594 152.4375 162.140625 C 152.660156 162.320312 152.902344 162.613281 153.148438 162.9375 C 153.613281 163.546875 154.101562 164.273438 154.539062 164.6875 C 154.757812 164.898438 154.976562 165.03125 155.167969 165.066406 C 155.242188 165.082031 155.328125 165.070312 155.417969 165 C 155.535156 164.90625 155.699219 164.613281 155.878906 164.21875 C 156.203125 163.492188 156.605469 162.40625 156.949219 161.800781 C 157.015625 161.679688 157.078125 161.582031 157.136719 161.511719 C 157.160156 161.488281 157.195312 161.457031 157.207031 161.449219 C 157.320312 161.4375 157.460938 161.503906 157.621094 161.59375 C 157.941406 161.777344 158.316406 162.078125 158.691406 162.378906 C 159.085938 162.691406 159.484375 163.003906 159.828125 163.1875 C 160.105469 163.335938 160.355469 163.398438 160.554688 163.359375 C 160.703125 163.332031 160.859375 163.230469 161.007812 163.066406 C 161.179688 162.871094 161.355469 162.578125 161.527344 162.25 C 161.773438 161.789062 162.023438 161.265625 162.285156 160.886719 C 162.429688 160.679688 162.566406 160.519531 162.722656 160.476562 C 162.894531 160.429688 163.085938 160.453125 163.289062 160.507812 C 163.527344 160.566406 163.777344 160.667969 164.03125 160.761719 C 164.300781 160.863281 164.574219 160.960938 164.835938 161.011719 C 165.128906 161.070312 165.410156 161.070312 165.664062 160.96875 C 165.738281 160.9375 165.789062 160.886719 165.816406 160.824219 C 165.847656 160.753906 165.839844 160.660156 165.839844 160.597656 C 165.828125 160.265625 165.777344 159.625 165.867188 159.085938 C 165.917969 158.777344 166 158.503906 166.207031 158.382812 C 166.335938 158.304688 166.480469 158.296875 166.628906 158.320312 C 166.820312 158.351562 167.019531 158.429688 167.21875 158.503906 C 167.496094 158.609375 167.773438 158.71875 168.03125 158.753906 C 168.234375 158.78125 168.429688 158.765625 168.609375 158.6875 C 168.753906 158.621094 168.886719 158.503906 169.007812 158.351562 C 169.160156 158.152344 169.292969 157.882812 169.417969 157.585938 C 169.59375 157.167969 169.761719 156.695312 169.96875 156.308594 C 170.089844 156.074219 170.230469 155.871094 170.402344 155.746094 C 170.503906 155.667969 170.628906 155.652344 170.769531 155.65625 C 170.945312 155.660156 171.136719 155.699219 171.328125 155.734375 C 171.546875 155.777344 171.765625 155.816406 171.972656 155.8125 C 172.210938 155.8125 172.433594 155.757812 172.617188 155.609375 C 173.015625 155.289062 173.101562 154.746094 173.15625 154.175781 C 173.207031 153.695312 173.230469 153.195312 173.539062 152.867188 C 173.636719 152.757812 173.792969 152.71875 173.957031 152.699219 C 174.167969 152.671875 174.402344 152.683594 174.617188 152.679688 C 174.816406 152.675781 175.003906 152.664062 175.152344 152.621094 C 175.28125 152.582031 175.382812 152.519531 175.457031 152.429688 C 175.640625 152.207031 175.71875 151.828125 175.765625 151.398438 C 175.828125 150.835938 175.84375 150.183594 176.128906 149.78125 C 176.339844 149.488281 176.703125 149.359375 177.074219 149.214844 C 177.511719 149.042969 177.960938 148.855469 178.25 148.476562 C 178.546875 148.085938 178.628906 147.65625 178.679688 147.234375 C 178.730469 146.859375 178.753906 146.488281 178.953125 146.15625 C 179.125 145.867188 179.433594 145.691406 179.730469 145.496094 C 180.082031 145.265625 180.421875 145.015625 180.605469 144.609375 C 180.710938 144.382812 180.722656 144.015625 180.738281 143.660156 C 180.746094 143.472656 180.757812 143.289062 180.792969 143.140625 C 180.808594 143.0625 180.832031 142.996094 180.875 142.949219 C 180.921875 142.890625 180.996094 142.859375 181.078125 142.828125 C 181.195312 142.789062 181.332031 142.761719 181.464844 142.734375 C 181.800781 142.660156 182.140625 142.570312 182.332031 142.355469 C 182.402344 142.277344 182.390625 142.160156 182.300781 142.097656 C 182.214844 142.035156 182.085938 142.050781 182.015625 142.128906 C 181.9375 142.214844 181.820312 142.261719 181.695312 142.300781 C 181.535156 142.351562 181.359375 142.382812 181.195312 142.417969 C 180.921875 142.484375 180.679688 142.570312 180.546875 142.730469 C 180.417969 142.882812 180.363281 143.148438 180.339844 143.445312 C 180.316406 143.808594 180.34375 144.230469 180.230469 144.472656 C 180.074219 144.8125 179.78125 145.011719 179.488281 145.203125 C 179.140625 145.429688 178.792969 145.648438 178.59375 145.988281 C 178.371094 146.355469 178.332031 146.773438 178.277344 147.191406 C 178.230469 147.558594 178.171875 147.933594 177.914062 148.273438 C 177.667969 148.589844 177.28125 148.738281 176.910156 148.882812 C 176.464844 149.054688 176.039062 149.230469 175.785156 149.585938 C 175.519531 149.960938 175.445312 150.523438 175.390625 151.0625 C 175.363281 151.359375 175.335938 151.644531 175.277344 151.882812 C 175.242188 152.015625 175.199219 152.132812 175.128906 152.214844 C 175.082031 152.273438 174.996094 152.289062 174.898438 152.300781 C 174.746094 152.320312 174.566406 152.316406 174.386719 152.316406 C 174.179688 152.320312 173.96875 152.324219 173.78125 152.359375 C 173.558594 152.402344 173.363281 152.484375 173.222656 152.632812 C 172.867188 153.015625 172.808594 153.585938 172.753906 154.144531 C 172.726562 154.394531 172.703125 154.640625 172.636719 154.855469 C 172.582031 155.046875 172.496094 155.21875 172.34375 155.339844 C 172.238281 155.425781 172.109375 155.449219 171.96875 155.453125 C 171.792969 155.453125 171.601562 155.417969 171.414062 155.378906 C 171.195312 155.339844 170.980469 155.296875 170.777344 155.292969 C 170.539062 155.285156 170.320312 155.332031 170.140625 155.464844 C 169.929688 155.621094 169.753906 155.863281 169.597656 156.152344 C 169.386719 156.546875 169.21875 157.03125 169.035156 157.457031 C 168.925781 157.726562 168.808594 157.96875 168.671875 158.148438 C 168.597656 158.242188 168.519531 158.320312 168.425781 158.363281 C 168.292969 158.421875 168.144531 158.410156 167.988281 158.375 C 167.792969 158.332031 167.585938 158.25 167.382812 158.171875 C 167.152344 158.082031 166.921875 158 166.703125 157.964844 C 166.441406 157.925781 166.199219 157.949219 165.976562 158.082031 C 165.695312 158.25 165.53125 158.609375 165.460938 159.035156 C 165.371094 159.59375 165.421875 160.265625 165.433594 160.609375 Z M 165.433594 160.660156 " fill-opacity="1" fill-rule="evenodd"/></g></g><path fill="#ffffff" d="M 133.582031 218.777344 C 133.582031 221.421875 131.4375 223.5625 128.796875 223.5625 L 97.808594 223.5625 C 95.167969 223.5625 93.023438 221.421875 93.023438 218.777344 L 93.023438 199.449219 C 93.023438 196.808594 95.167969 194.664062 97.808594 194.664062 L 128.796875 194.664062 C 131.4375 194.664062 133.582031 196.808594 133.582031 199.449219 Z M 133.582031 218.777344 " fill-opacity="1" fill-rule="evenodd"/><path fill="#ffffff" d="M 117.097656 194.664062 L 127.652344 188.863281 L 122.226562 196.199219 Z M 117.097656 194.664062 " fill-opacity="1" fill-rule="evenodd"/><path fill="#6bad69" d="M 119.085938 206.722656 C 122.082031 207.886719 123.753906 210.792969 122.8125 213.210938 C 121.875 215.628906 118.679688 216.648438 115.6875 215.484375 L 104.753906 211.242188 C 101.757812 210.082031 105.15625 201.316406 108.152344 202.480469 Z M 119.085938 206.722656 " fill-opacity="1" fill-rule="evenodd"/><path fill="#6bad69" d="M 118.921875 214.191406 C 118.984375 214.261719 119.039062 214.363281 119.074219 214.492188 C 119.113281 214.628906 119.144531 214.804688 119.171875 214.996094 C 119.238281 215.414062 119.308594 215.941406 119.652344 216.308594 C 119.972656 216.652344 120.425781 216.671875 120.851562 216.730469 C 121.457031 216.808594 122.019531 216.933594 122.359375 217.484375 C 122.53125 217.769531 122.597656 218.058594 122.648438 218.347656 C 122.6875 218.585938 122.71875 218.824219 122.828125 219.054688 C 122.886719 219.183594 122.824219 219.3125 122.679688 219.347656 C 122.539062 219.382812 122.371094 219.304688 122.3125 219.179688 C 122.183594 218.90625 122.140625 218.628906 122.09375 218.347656 C 122.050781 218.117188 122.007812 217.886719 121.867188 217.660156 C 121.644531 217.292969 121.246094 217.257812 120.847656 217.203125 C 120.265625 217.125 119.667969 217.039062 119.230469 216.570312 C 118.820312 216.128906 118.695312 215.496094 118.617188 214.992188 C 118.59375 214.847656 118.574219 214.710938 118.546875 214.601562 C 118.53125 214.53125 118.519531 214.476562 118.488281 214.441406 C 118.390625 214.328125 118.40625 214.179688 118.527344 214.109375 C 118.644531 214.042969 118.824219 214.078125 118.921875 214.191406 Z M 118.921875 214.191406 " fill-opacity="1" fill-rule="evenodd"/><path fill="#6bad69" d="M 115.394531 213.351562 C 115.742188 214.226562 115.773438 214.832031 115.644531 215.289062 C 115.507812 215.753906 115.203125 216.070312 114.851562 216.363281 C 114.25 216.859375 113.492188 217.273438 113.550781 218.492188 C 113.554688 218.625 113.433594 218.71875 113.28125 218.707031 C 113.125 218.691406 112.996094 218.574219 112.988281 218.441406 C 112.9375 217.316406 113.464844 216.777344 114.039062 216.3125 C 114.480469 215.949219 114.960938 215.648438 115.109375 215.066406 C 115.207031 214.679688 115.152344 214.171875 114.863281 213.445312 C 114.8125 213.316406 114.886719 213.191406 115.035156 213.164062 C 115.179688 213.136719 115.339844 213.222656 115.394531 213.351562 Z M 115.394531 213.351562 " fill-opacity="1" fill-rule="evenodd"/><path fill="#6bad69" d="M 121.585938 213.320312 C 121.601562 213.328125 121.636719 213.347656 121.660156 213.359375 C 121.734375 213.386719 121.828125 213.410156 121.929688 213.425781 C 122.363281 213.503906 122.960938 213.515625 123.441406 213.535156 C 123.804688 213.550781 124.113281 213.574219 124.265625 213.621094 C 124.519531 213.691406 124.75 213.835938 124.96875 214.019531 C 125.246094 214.246094 125.496094 214.535156 125.746094 214.773438 C 125.851562 214.867188 125.953125 214.957031 126.058594 215.015625 C 126.132812 215.058594 126.203125 215.089844 126.277344 215.089844 C 126.402344 215.089844 126.523438 215.027344 126.667969 214.894531 C 126.765625 214.808594 126.941406 214.8125 127.0625 214.910156 C 127.183594 215.011719 127.199219 215.160156 127.101562 215.25 C 126.835938 215.492188 126.582031 215.574219 126.351562 215.570312 C 126.007812 215.566406 125.675781 215.363281 125.359375 215.066406 C 125.152344 214.875 124.949219 214.644531 124.730469 214.445312 C 124.550781 214.28125 124.367188 214.132812 124.160156 214.074219 C 124.035156 214.035156 123.789062 214.027344 123.496094 214.015625 C 122.984375 213.996094 122.351562 213.980469 121.890625 213.894531 C 121.648438 213.851562 121.449219 213.785156 121.3125 213.703125 C 121.167969 213.613281 121.082031 213.503906 121.046875 213.378906 C 121.011719 213.246094 121.105469 213.132812 121.257812 213.121094 C 121.398438 213.109375 121.542969 213.199219 121.585938 213.320312 Z M 121.585938 213.320312 " fill-opacity="1" fill-rule="evenodd"/><path fill="#6bad69" d="M 120.878906 209.363281 C 120.917969 209.378906 121.046875 209.417969 121.050781 209.417969 C 121.308594 209.484375 121.566406 209.542969 121.828125 209.582031 C 122.214844 209.636719 122.601562 209.640625 122.96875 209.585938 C 123.707031 209.472656 124.234375 209.039062 124.773438 208.78125 C 125.097656 208.628906 125.429688 208.53125 125.789062 208.550781 C 126.15625 208.570312 126.558594 208.707031 127.023438 209.054688 C 127.152344 209.144531 127.179688 209.296875 127.085938 209.394531 C 126.996094 209.488281 126.820312 209.488281 126.695312 209.394531 C 126.367188 209.152344 126.089844 209.042969 125.832031 209.03125 C 125.570312 209.015625 125.335938 209.097656 125.097656 209.210938 C 124.515625 209.488281 123.9375 209.9375 123.140625 210.058594 C 122.714844 210.125 122.265625 210.117188 121.816406 210.054688 C 121.53125 210.015625 121.25 209.949219 120.96875 209.878906 C 120.957031 209.875 120.695312 209.796875 120.648438 209.773438 C 120.558594 209.726562 120.523438 209.667969 120.507812 209.640625 C 120.457031 209.539062 120.46875 209.457031 120.546875 209.386719 C 120.628906 209.316406 120.765625 209.308594 120.878906 209.363281 Z M 121.042969 209.589844 C 121.039062 209.558594 121.03125 209.527344 121.015625 209.496094 C 121.035156 209.527344 121.042969 209.5625 121.042969 209.589844 Z M 120.984375 209.738281 C 120.984375 209.742188 120.980469 209.742188 120.976562 209.746094 Z M 121.035156 209.648438 C 121.027344 209.679688 121.011719 209.710938 120.988281 209.738281 C 121.011719 209.710938 121.027344 209.679688 121.035156 209.648438 Z M 121.042969 209.597656 Z M 121.042969 209.597656 " fill-opacity="1" fill-rule="evenodd"/><path fill="#6bad69" d="M 118.75 207.101562 C 118.898438 207.09375 118.996094 207.085938 119.03125 207.027344 C 119.066406 206.964844 119.027344 206.875 118.980469 206.765625 C 118.914062 206.621094 118.804688 206.453125 118.679688 206.269531 C 118.257812 205.664062 117.625 204.914062 117.316406 204.242188 C 117.078125 203.722656 117.03125 203.246094 117.3125 202.878906 C 117.390625 202.773438 117.5625 202.757812 117.695312 202.839844 C 117.828125 202.925781 117.875 203.074219 117.796875 203.179688 C 117.601562 203.433594 117.671875 203.765625 117.835938 204.125 C 118.132812 204.773438 118.746094 205.488281 119.152344 206.070312 C 119.367188 206.378906 119.523438 206.65625 119.578125 206.871094 C 119.628906 207.078125 119.597656 207.242188 119.484375 207.367188 C 119.375 207.484375 119.179688 207.570312 118.847656 207.578125 C 118.695312 207.582031 118.550781 207.480469 118.523438 207.347656 C 118.496094 207.214844 118.597656 207.105469 118.75 207.101562 Z M 118.75 207.101562 " fill-opacity="1" fill-rule="evenodd"/><path fill="#6bad69" d="M 114.378906 205.941406 C 113.863281 205.847656 113.589844 205.65625 113.460938 205.441406 C 113.332031 205.230469 113.335938 204.972656 113.457031 204.695312 C 113.621094 204.3125 114.003906 203.882812 114.300781 203.523438 C 114.460938 203.328125 114.601562 203.167969 114.621094 203.054688 C 114.640625 202.925781 114.578125 202.808594 114.488281 202.691406 C 114.363281 202.527344 114.183594 202.367188 114.007812 202.199219 C 113.574219 201.777344 113.179688 201.320312 113.289062 200.742188 C 113.316406 200.617188 113.457031 200.546875 113.613281 200.585938 C 113.765625 200.625 113.867188 200.761719 113.84375 200.886719 C 113.800781 201.117188 113.886719 201.316406 114.023438 201.496094 C 114.191406 201.722656 114.425781 201.925781 114.628906 202.125 C 114.980469 202.46875 115.238281 202.8125 115.179688 203.1875 C 115.152344 203.339844 114.992188 203.574219 114.773438 203.835938 C 114.5 204.167969 114.140625 204.5625 113.988281 204.917969 C 113.929688 205.050781 113.890625 205.171875 113.953125 205.273438 C 114.015625 205.375 114.167969 205.429688 114.417969 205.472656 C 114.574219 205.5 114.6875 205.628906 114.679688 205.757812 C 114.667969 205.886719 114.535156 205.96875 114.378906 205.941406 Z M 114.378906 205.941406 " fill-opacity="1" fill-rule="evenodd"/><path fill="#6bad69" d="M 109.292969 204.019531 C 108.925781 203.921875 108.722656 203.761719 108.621094 203.589844 C 108.480469 203.355469 108.53125 203.046875 108.730469 202.726562 C 108.964844 202.351562 109.386719 201.9375 109.691406 201.597656 C 109.78125 201.496094 109.863281 201.402344 109.917969 201.316406 C 109.953125 201.265625 109.984375 201.222656 109.984375 201.1875 C 109.984375 201.035156 109.890625 200.902344 109.761719 200.78125 C 109.589844 200.613281 109.359375 200.464844 109.132812 200.3125 C 108.867188 200.132812 108.609375 199.953125 108.421875 199.753906 C 108.195312 199.515625 108.066406 199.253906 108.101562 198.957031 C 108.117188 198.828125 108.253906 198.75 108.410156 198.78125 C 108.5625 198.8125 108.675781 198.945312 108.660156 199.070312 C 108.640625 199.226562 108.71875 199.363281 108.839844 199.488281 C 108.996094 199.652344 109.21875 199.800781 109.4375 199.953125 C 109.699219 200.125 109.957031 200.300781 110.15625 200.492188 C 110.398438 200.722656 110.546875 200.972656 110.546875 201.261719 C 110.546875 201.382812 110.457031 201.558594 110.296875 201.757812 C 110.011719 202.109375 109.496094 202.578125 109.234375 202.996094 C 109.171875 203.097656 109.125 203.191406 109.105469 203.285156 C 109.09375 203.335938 109.089844 203.382812 109.113281 203.425781 C 109.152344 203.488281 109.246094 203.523438 109.382812 203.5625 C 109.535156 203.601562 109.640625 203.734375 109.613281 203.863281 C 109.589844 203.988281 109.445312 204.058594 109.292969 204.019531 Z M 109.292969 204.019531 " fill-opacity="1" fill-rule="evenodd"/><path fill="#6bad69" d="M 109.582031 212.046875 C 109.578125 212.15625 109.628906 212.261719 109.6875 212.371094 C 109.769531 212.511719 109.871094 212.652344 109.96875 212.800781 C 110.203125 213.160156 110.390625 213.542969 110.238281 214 C 110.089844 214.449219 109.636719 214.566406 109.140625 214.621094 C 108.941406 214.644531 108.738281 214.660156 108.5625 214.707031 C 108.433594 214.738281 108.320312 214.789062 108.253906 214.894531 C 108.1875 214.996094 108.167969 215.136719 108.191406 215.335938 C 108.207031 215.46875 108.097656 215.570312 107.941406 215.566406 C 107.789062 215.558594 107.648438 215.449219 107.632812 215.316406 C 107.589844 214.960938 107.664062 214.726562 107.789062 214.5625 C 107.980469 214.320312 108.3125 214.226562 108.683594 214.183594 C 108.875 214.15625 109.074219 214.144531 109.257812 214.109375 C 109.457031 214.066406 109.632812 214 109.695312 213.808594 C 109.824219 213.421875 109.574219 213.109375 109.371094 212.8125 C 109.179688 212.53125 109.019531 212.257812 109.019531 211.976562 C 109.019531 211.84375 109.144531 211.753906 109.300781 211.773438 C 109.453125 211.792969 109.582031 211.914062 109.582031 212.046875 Z M 109.582031 212.046875 " fill-opacity="1" fill-rule="evenodd"/><path fill="#6bad69" d="M 107.722656 211.390625 C 107.550781 211.476562 107.433594 211.625 107.304688 211.769531 C 107.136719 211.953125 106.953125 212.136719 106.6875 212.25 C 106.042969 212.53125 105.441406 212.453125 104.832031 212.316406 C 104.320312 212.199219 103.808594 212.035156 103.257812 212.109375 C 102.976562 212.144531 102.847656 212.332031 102.683594 212.480469 C 102.523438 212.628906 102.339844 212.757812 102.085938 212.800781 C 101.9375 212.824219 101.777344 212.738281 101.726562 212.609375 C 101.675781 212.480469 101.753906 212.355469 101.898438 212.328125 C 102.105469 212.292969 102.214844 212.160156 102.34375 212.039062 C 102.539062 211.851562 102.75 211.679688 103.097656 211.632812 C 103.726562 211.550781 104.316406 211.722656 104.898438 211.851562 C 105.382812 211.960938 105.867188 212.039062 106.378906 211.816406 C 106.582031 211.726562 106.714844 211.582031 106.839844 211.441406 C 107.007812 211.257812 107.164062 211.082031 107.382812 210.96875 C 107.507812 210.90625 107.683594 210.949219 107.777344 211.066406 C 107.871094 211.179688 107.84375 211.328125 107.722656 211.390625 Z M 107.722656 211.390625 " fill-opacity="1" fill-rule="evenodd"/><path fill="#6bad69" d="M 105.042969 208.589844 C 103.898438 209.390625 103.117188 209.476562 102.570312 209.277344 C 102.011719 209.078125 101.648438 208.554688 101.347656 208.03125 C 101.238281 207.839844 101.136719 207.648438 101.027344 207.484375 C 100.941406 207.355469 100.855469 207.238281 100.753906 207.167969 C 100.648438 207.097656 100.523438 207.089844 100.402344 207.089844 C 100.210938 207.09375 100.023438 207.125 99.859375 207.136719 C 99.707031 207.148438 99.554688 207.050781 99.523438 206.917969 C 99.488281 206.785156 99.582031 206.671875 99.734375 206.660156 C 99.949219 206.644531 100.207031 206.597656 100.453125 206.617188 C 100.671875 206.628906 100.878906 206.683594 101.0625 206.8125 C 101.359375 207.015625 101.597656 207.4375 101.847656 207.875 C 101.96875 208.089844 102.097656 208.304688 102.253906 208.488281 C 102.386719 208.644531 102.53125 208.773438 102.722656 208.839844 C 102.914062 208.910156 103.144531 208.910156 103.425781 208.835938 C 103.765625 208.742188 104.167969 208.542969 104.652344 208.203125 C 104.765625 208.125 104.941406 208.148438 105.050781 208.253906 C 105.15625 208.363281 105.15625 208.511719 105.042969 208.589844 Z M 105.042969 208.589844 " fill-opacity="1" fill-rule="evenodd"/><path fill="#6bad69" d="M 105.589844 206.234375 L 105.445312 206.289062 C 105.339844 206.332031 105.234375 206.355469 105.152344 206.359375 C 104.492188 206.367188 103.757812 206.125 103.335938 205.601562 C 102.917969 205.089844 103.011719 204.539062 103.070312 204.011719 C 103.117188 203.632812 103.144531 203.261719 102.660156 202.953125 C 102.527344 202.867188 102.484375 202.714844 102.566406 202.613281 C 102.648438 202.511719 102.820312 202.496094 102.953125 202.582031 C 103.664062 203.039062 103.695312 203.566406 103.632812 204.128906 C 103.605469 204.351562 103.5625 204.578125 103.574219 204.808594 C 103.585938 204.996094 103.632812 205.1875 103.78125 205.371094 C 104.078125 205.734375 104.601562 205.886719 105.0625 205.878906 C 105.089844 205.878906 105.121094 205.859375 105.15625 205.847656 C 105.230469 205.820312 105.304688 205.789062 105.367188 205.765625 C 105.480469 205.722656 105.585938 205.71875 105.652344 205.730469 C 105.734375 205.746094 105.796875 205.777344 105.847656 205.824219 C 105.902344 205.871094 105.953125 205.941406 105.957031 206.046875 C 105.960938 206.179688 105.839844 206.273438 105.683594 206.257812 C 105.652344 206.253906 105.617188 206.246094 105.589844 206.234375 Z M 105.589844 206.234375 " fill-opacity="1" fill-rule="evenodd"/><path fill="#6bad69" d="M 107.671875 204.132812 C 107.238281 204.128906 106.753906 203.910156 106.425781 203.640625 C 105.800781 203.136719 105.683594 202.597656 105.734375 202.070312 C 105.761719 201.757812 105.855469 201.449219 105.914062 201.152344 C 105.976562 200.855469 106.015625 200.574219 105.847656 200.324219 C 105.675781 200.066406 105.292969 199.867188 104.582031 199.695312 C 104.425781 199.65625 104.320312 199.523438 104.339844 199.398438 C 104.363281 199.269531 104.503906 199.199219 104.65625 199.234375 C 105.613281 199.464844 106.09375 199.785156 106.324219 200.128906 C 106.5625 200.480469 106.554688 200.878906 106.46875 201.300781 C 106.410156 201.582031 106.320312 201.878906 106.292969 202.175781 C 106.257812 202.558594 106.328125 202.949219 106.78125 203.316406 C 106.996094 203.492188 107.308594 203.652344 107.589844 203.652344 C 107.746094 203.652344 107.886719 203.761719 107.910156 203.894531 C 107.929688 204.023438 107.824219 204.132812 107.671875 204.132812 Z M 107.671875 204.132812 " fill-opacity="1" fill-rule="evenodd"/><path fill="#6bad69" d="M 179.328125 145.417969 C 179.660156 147.652344 177.671875 151.457031 177.5625 151.9375 C 176.113281 158.320312 176.496094 165.242188 177.417969 171.675781 C 178.484375 179.148438 183.816406 190.097656 179.859375 197.375 C 173.652344 208.785156 177.5625 171.558594 172.425781 174.457031 C 163.574219 179.457031 183.253906 219.484375 172.535156 223.46875 C 164.644531 226.398438 169.421875 191.699219 169.046875 185 C 168.964844 183.554688 168.816406 182.097656 168.5 180.683594 C 166.875 173.5 158.707031 186.089844 157.035156 178.894531 C 156.140625 175.027344 156.917969 165.753906 158.386719 162.171875 L 160.378906 163.328125 L 162.382812 160.472656 L 165.039062 160.949219 L 166.246094 158.382812 L 168.773438 158.566406 L 170.367188 155.574219 L 172.441406 155.632812 L 173.574219 152.875 L 175.503906 152.449219 L 176.175781 149.71875 L 177.332031 148.699219 Z M 179.328125 145.417969 " fill-opacity="1" fill-rule="evenodd"/><path fill="#6d2b11" d="M 161.601562 142.933594 C 161.601562 140.5625 159.402344 138.640625 156.695312 138.640625 L 149.792969 138.640625 C 147.082031 138.640625 144.882812 140.5625 144.882812 142.933594 C 144.882812 142.933594 148.6875 149.789062 151.394531 149.789062 L 155.308594 149.875 C 158.015625 149.875 161.601562 142.933594 161.601562 142.933594 Z M 161.601562 142.933594 " fill-opacity="1" fill-rule="evenodd"/><path fill="#6d2b11" d="M 110.78125 82.105469 C 94.898438 93.378906 81.976562 108.453125 72.976562 128.554688 C 84.257812 134.375 85.285156 153.914062 95.902344 168.550781 C 104.542969 161.421875 110 151.910156 113.113281 140.636719 C 114.441406 135.824219 117.34375 131.441406 117.878906 126.035156 Z M 110.78125 82.105469 " fill-opacity="1" fill-rule="evenodd"/><path fill="#ffb77b" d="M 110.78125 82.105469 C 94.898438 93.378906 81.976562 108.453125 72.976562 128.554688 C 84.257812 134.375 85.285156 153.914062 95.902344 168.550781 C 108.230469 158.378906 114.082031 143.351562 115.878906 125.289062 Z M 110.78125 82.105469 " fill-opacity="1" fill-rule="evenodd"/><path fill="#6d2b11" d="M 192.742188 81.867188 C 208.628906 93.140625 221.546875 108.214844 230.546875 128.316406 C 219.265625 134.136719 218.238281 153.671875 207.621094 168.3125 C 198.984375 161.183594 193.523438 151.667969 190.410156 140.394531 C 189.082031 135.582031 186.183594 131.199219 185.644531 125.796875 Z M 192.742188 81.867188 " fill-opacity="1" fill-rule="evenodd"/><path fill="#ffb77b" d="M 192.894531 81.820312 C 208.777344 93.09375 221.695312 108.171875 230.695312 128.273438 C 219.414062 134.089844 218.386719 153.628906 207.773438 168.265625 C 195.445312 158.09375 189.59375 143.066406 187.792969 125.003906 Z M 192.894531 81.820312 " fill-opacity="1" fill-rule="evenodd"/><g clip-path="url(#8961be17ef)"><path fill="#6d2b11" d="M 150.019531 45.382812 C 92.277344 45.382812 45.390625 92.265625 45.390625 150.007812 C 45.390625 207.753906 92.277344 254.632812 150.019531 254.632812 C 207.765625 254.632812 254.640625 207.753906 254.640625 150.007812 C 254.640625 92.265625 207.765625 45.382812 150.019531 45.382812 Z M 150.019531 58.214844 C 200.679688 58.214844 241.8125 99.347656 241.8125 150.007812 C 241.8125 200.671875 200.679688 241.800781 150.019531 241.800781 C 99.347656 241.800781 58.21875 200.671875 58.21875 150.007812 C 58.21875 99.347656 99.347656 58.214844 150.019531 58.214844 Z M 150.019531 58.214844 " fill-opacity="1" fill-rule="evenodd"/></g><path fill="#6d2b11" d="M 231.632812 94.644531 L 61.65625 189.761719 C 58.566406 191.492188 57.457031 195.402344 59.191406 198.492188 C 60.921875 201.582031 64.828125 202.6875 67.921875 200.957031 L 237.894531 105.84375 C 240.988281 104.113281 242.082031 100.203125 240.363281 97.113281 C 238.628906 94.023438 234.710938 92.917969 231.632812 94.644531 Z M 231.632812 94.644531 " fill-opacity="1" fill-rule="evenodd"/></svg>