<svg xmlns="http://www.w3.org/2000/svg" xmlns:xlink="http://www.w3.org/1999/xlink" width="400" zoomAndPan="magnify" viewBox="0 0 300 299.999988" height="400" preserveAspectRatio="xMidYMid meet" version="1.0"><defs><clipPath id="343920fca0"><path d="M 38.785156 153 L 212 153 L 212 258.019531 L 38.785156 258.019531 Z M 38.785156 153 " clip-rule="nonzero"/></clipPath><clipPath id="4e35b7a97b"><path d="M 55 153 L 196 153 L 196 258.019531 L 55 258.019531 Z M 55 153 " clip-rule="nonzero"/></clipPath><clipPath id="d4233164ee"><path d="M 71 153 L 180 153 L 180 258.019531 L 71 258.019531 Z M 71 153 " clip-rule="nonzero"/></clipPath><clipPath id="ef3892bbe5"><path d="M 63 196 L 188 196 L 188 258.019531 L 63 258.019531 Z M 63 196 " clip-rule="nonzero"/></clipPath><clipPath id="50cf4cfcef"><path d="M 119 42.019531 L 132 42.019531 L 132 61 L 119 61 Z M 119 42.019531 " clip-rule="nonzero"/></clipPath><clipPath id="a571afd1c5"><path d="M 181 165 L 261.535156 165 L 261.535156 258.019531 L 181 258.019531 Z M 181 165 " clip-rule="nonzero"/></clipPath><clipPath id="19a940127a"><path d="M 181 165 L 261.535156 165 L 261.535156 228 L 181 228 Z M 181 165 " clip-rule="nonzero"/></clipPath><clipPath id="4ee2462e53"><path d="M 211 79 L 261.535156 79 L 261.535156 117 L 211 117 Z M 211 79 " clip-rule="nonzero"/></clipPath></defs><g clip-path="url(#343920fca0)"><path fill="#a7a9ac" d="M 38.933594 258.019531 L 211.949219 258.019531 L 152.476562 153.105469 L 98.40625 153.105469 Z M 38.933594 258.019531 " fill-opacity="1" fill-rule="nonzero"/></g><g clip-path="url(#4e35b7a97b)"><path fill="#58595b" d="M 55.152344 258.019531 L 195.730469 258.019531 L 141.664062 153.105469 L 109.222656 153.105469 Z M 55.152344 258.019531 " fill-opacity="1" fill-rule="nonzero"/></g><g clip-path="url(#d4233164ee)"><path fill="#808285" d="M 71.375 258.019531 L 179.511719 258.019531 L 130.847656 153.105469 L 120.035156 153.105469 Z M 71.375 258.019531 " fill-opacity="1" fill-rule="nonzero"/></g><g clip-path="url(#ef3892bbe5)"><path fill="#a7a9ac" d="M 187.234375 251.847656 C 187.234375 255.261719 184.472656 258.019531 181.054688 258.019531 L 69.828125 258.019531 C 66.417969 258.019531 63.648438 255.261719 63.648438 251.847656 C 63.648438 248.433594 66.417969 245.675781 69.828125 245.675781 L 181.054688 245.675781 C 184.472656 245.675781 187.234375 248.433594 187.234375 251.847656 Z M 174.875 227.164062 C 174.875 230.574219 172.113281 233.332031 168.695312 233.332031 L 82.1875 233.332031 C 78.777344 233.332031 76.007812 230.574219 76.007812 227.164062 C 76.007812 223.75 78.777344 220.992188 82.1875 220.992188 L 168.695312 220.992188 C 172.113281 220.992188 174.875 223.75 174.875 227.164062 Z M 162.515625 202.476562 C 162.515625 205.890625 159.753906 208.648438 156.339844 208.648438 L 94.546875 208.648438 C 91.136719 208.648438 88.367188 205.890625 88.367188 202.476562 C 88.367188 199.0625 91.136719 196.304688 94.546875 196.304688 L 156.339844 196.304688 C 159.753906 196.304688 162.515625 199.0625 162.515625 202.476562 Z M 162.515625 202.476562 " fill-opacity="1" fill-rule="nonzero"/></g><path fill="#58595b" d="M 81.546875 182.851562 C 87.625 190.417969 95.695312 196.304688 103.816406 196.304688 L 147.070312 196.304688 C 155.183594 196.304688 163.257812 190.410156 169.339844 182.851562 L 155.558594 158.546875 C 148.210938 159.148438 138.535156 159.277344 125.441406 159.277344 C 112.113281 159.277344 102.332031 159.417969 94.933594 159.226562 Z M 81.546875 182.851562 " fill-opacity="1" fill-rule="nonzero"/><g clip-path="url(#50cf4cfcef)"><path fill="#414042" d="M 131.621094 54.363281 C 131.621094 57.769531 128.851562 60.535156 125.441406 60.535156 C 122.03125 60.535156 119.261719 57.769531 119.261719 54.363281 L 119.261719 48.191406 C 119.261719 44.785156 122.03125 42.019531 125.441406 42.019531 C 128.851562 42.019531 131.621094 44.785156 131.621094 48.191406 Z M 131.621094 54.363281 " fill-opacity="1" fill-rule="nonzero"/></g><path fill="#6d6e71" d="M 150.160156 66.703125 C 150.160156 73.519531 144.621094 79.046875 137.800781 79.046875 L 113.082031 79.046875 C 106.261719 79.046875 100.726562 73.519531 100.726562 66.703125 C 100.726562 59.890625 106.261719 54.363281 113.082031 54.363281 L 137.800781 54.363281 C 144.621094 54.363281 150.160156 59.890625 150.160156 66.703125 Z M 150.160156 66.703125 " fill-opacity="1" fill-rule="nonzero"/><path fill="#d1d3d4" d="M 181.054688 146.933594 C 181.054688 160.566406 159.972656 177.789062 147.6875 177.789062 L 103.195312 177.789062 C 90.914062 177.789062 69.828125 160.566406 69.828125 146.933594 L 69.828125 85.21875 C 69.828125 71.585938 79.789062 60.535156 92.074219 60.535156 L 158.808594 60.535156 C 171.09375 60.535156 181.054688 71.585938 181.054688 85.21875 Z M 181.054688 146.933594 " fill-opacity="1" fill-rule="nonzero"/><path fill="#808285" d="M 168.695312 134.589844 C 168.695312 148.222656 157.628906 159.277344 143.980469 159.277344 L 106.90625 159.277344 C 93.253906 159.277344 82.1875 148.222656 82.1875 134.589844 L 82.1875 103.734375 C 82.1875 90.101562 93.253906 85.21875 106.90625 85.21875 L 143.980469 85.21875 C 157.628906 85.21875 168.695312 90.101562 168.695312 103.734375 Z M 168.695312 134.589844 " fill-opacity="1" fill-rule="nonzero"/><path fill="#55acee" d="M 106.90625 128.417969 L 143.980469 128.417969 C 157.628906 128.417969 168.695312 117.367188 168.695312 103.734375 L 168.695312 97.5625 L 82.1875 97.5625 L 82.1875 103.734375 C 82.1875 117.367188 93.253906 128.417969 106.90625 128.417969 Z M 106.90625 128.417969 " fill-opacity="1" fill-rule="nonzero"/><path fill="#5c913b" d="M 125.441406 159.277344 C 86.511719 159.277344 76.761719 148.160156 69.828125 139.269531 L 69.828125 146.933594 C 69.828125 160.566406 86.511719 183.960938 103.195312 183.960938 L 147.6875 183.960938 C 164.371094 183.960938 181.054688 160.566406 181.054688 146.933594 L 181.054688 135.261719 C 174.128906 145.941406 164.371094 159.277344 125.441406 159.277344 Z M 125.441406 159.277344 " fill-opacity="1" fill-rule="nonzero"/><path fill="#ffd983" d="M 106.90625 143.847656 C 106.90625 148.957031 102.753906 153.105469 97.636719 153.105469 C 92.511719 153.105469 88.367188 148.957031 88.367188 143.847656 C 88.367188 138.730469 92.511719 134.589844 97.636719 134.589844 C 102.753906 134.589844 106.90625 138.730469 106.90625 143.847656 Z M 162.515625 143.847656 C 162.515625 148.957031 158.363281 153.105469 153.25 153.105469 C 148.132812 153.105469 143.980469 148.957031 143.980469 143.847656 C 143.980469 138.730469 148.132812 134.589844 153.25 134.589844 C 158.363281 134.589844 162.515625 138.730469 162.515625 143.847656 Z M 162.515625 143.847656 " fill-opacity="1" fill-rule="nonzero"/><path fill="#292f33" d="M 168.695312 97.5625 L 168.695312 85.21875 C 168.695312 78.40625 163.160156 72.875 156.339844 72.875 L 94.546875 72.875 C 87.722656 72.875 82.1875 78.40625 82.1875 85.21875 L 82.1875 97.5625 Z M 168.695312 97.5625 " fill-opacity="1" fill-rule="nonzero"/><path fill="#6d6e71" d="M 143.980469 85.21875 C 143.980469 88.625 141.21875 91.390625 137.800781 91.390625 L 113.082031 91.390625 C 109.671875 91.390625 106.90625 88.625 106.90625 85.21875 C 106.90625 81.8125 109.671875 79.046875 113.082031 79.046875 L 137.800781 79.046875 C 141.21875 79.046875 143.980469 81.8125 143.980469 85.21875 Z M 143.980469 85.21875 " fill-opacity="1" fill-rule="nonzero"/><g clip-path="url(#a571afd1c5)"><path fill="#58595b" d="M 181.054688 177.421875 L 236.667969 258.019531 L 261.382812 258.019531 L 261.382812 227.164062 L 236.667969 227.164062 L 181.054688 165.449219 Z M 181.054688 177.421875 " fill-opacity="1" fill-rule="nonzero"/></g><g clip-path="url(#19a940127a)"><path fill="#a7a9ac" d="M 261.382812 227.164062 L 261.382812 165.449219 L 181.054688 165.449219 L 236.667969 227.164062 Z M 261.382812 227.164062 " fill-opacity="1" fill-rule="nonzero"/></g><path fill="#6d6e71" d="M 242.847656 183.960938 C 242.847656 190.132812 242.847656 190.132812 236.667969 190.132812 C 230.488281 190.132812 230.488281 190.132812 230.488281 183.960938 L 230.488281 116.078125 C 230.488281 112.667969 233.25 109.90625 236.667969 109.90625 C 240.085938 109.90625 242.847656 112.667969 242.847656 116.078125 Z M 242.847656 183.960938 " fill-opacity="1" fill-rule="nonzero"/><path fill="#939598" d="M 242.847656 140.761719 C 242.847656 146.933594 242.847656 146.933594 236.667969 146.933594 C 230.488281 146.933594 230.488281 146.933594 230.488281 140.761719 L 230.488281 97.5625 C 230.488281 94.15625 233.25 91.390625 236.667969 91.390625 C 240.085938 91.390625 242.847656 94.15625 242.847656 97.5625 Z M 242.847656 140.761719 " fill-opacity="1" fill-rule="nonzero"/><g clip-path="url(#4ee2462e53)"><path fill="#58595b" d="M 261.382812 103.734375 C 261.382812 110.546875 255.847656 116.078125 249.027344 116.078125 L 224.308594 116.078125 C 217.488281 116.078125 211.949219 110.546875 211.949219 103.734375 L 211.949219 91.390625 C 211.949219 84.578125 217.488281 79.046875 224.308594 79.046875 L 249.027344 79.046875 C 255.847656 79.046875 261.382812 84.578125 261.382812 91.390625 Z M 261.382812 103.734375 " fill-opacity="1" fill-rule="nonzero"/></g><path fill="#939598" d="M 249.027344 97.5625 C 249.027344 100.96875 246.265625 103.734375 242.847656 103.734375 L 230.488281 103.734375 C 227.070312 103.734375 224.308594 100.96875 224.308594 97.5625 C 224.308594 94.15625 227.070312 91.390625 230.488281 91.390625 L 242.847656 91.390625 C 246.265625 91.390625 249.027344 94.15625 249.027344 97.5625 Z M 249.027344 97.5625 " fill-opacity="1" fill-rule="nonzero"/></svg>