<?xml version="1.0" encoding="UTF-8"?>
<svg version="1.1" xmlns="http://www.w3.org/2000/svg" width="400" height="400">
<path d="M0 0 C1.74216797 0.90685547 1.74216797 0.90685547 3.51953125 1.83203125 C18.64013769 10.04036046 31.67614413 21.09097238 44 33 C44.72316406 33.67160156 45.44632812 34.34320313 46.19140625 35.03515625 C75.49672337 62.91960951 92.39556689 103.54110633 98 143 C98.14356934 143.97102661 98.14356934 143.97102661 98.29003906 144.96166992 C99.25419656 152.34058499 99.24359807 159.75659383 99.25 167.1875 C99.25067474 167.89353363 99.25134949 168.59956726 99.25204468 169.32699585 C99.20343899 201.5089607 91.27900033 231.69107998 76 260 C75.67386719 260.61214355 75.34773438 261.22428711 75.01171875 261.85498047 C70.39013892 270.47441099 65.12522012 278.37086404 59 286 C58.37569092 286.77875488 58.37569092 286.77875488 57.73876953 287.57324219 C26.47735872 326.28232822 -17.75164902 351.00514882 -67 358 C-67.97102661 358.14356934 -67.97102661 358.14356934 -68.96166992 358.29003906 C-76.34058499 359.25419656 -83.75659383 359.24359807 -91.1875 359.25 C-91.89353363 359.25067474 -92.59956726 359.25134949 -93.32699585 359.25204468 C-125.55779884 359.20336522 -155.62805473 351.22542978 -184 336 C-185.73636719 335.09507812 -185.73636719 335.09507812 -187.5078125 334.171875 C-202.1858529 326.21430412 -215.0196924 315.55307523 -227 304 C-227.77472656 303.27683594 -228.54945313 302.55367188 -229.34765625 301.80859375 C-258.98242939 273.42820254 -276.29853964 233.1420293 -282 193 C-282.09571289 192.35264893 -282.19142578 191.70529785 -282.29003906 191.03833008 C-283.25419656 183.65941501 -283.24359807 176.24340617 -283.25 168.8125 C-283.25067474 168.10646637 -283.25134949 167.40043274 -283.25204468 166.67300415 C-283.20343899 134.4910393 -275.27900033 104.30892002 -260 76 C-259.67386719 75.38785645 -259.34773438 74.77571289 -259.01171875 74.14501953 C-246.24189814 50.32879534 -227.60237779 30.05320439 -206 14 C-205.17113281 13.37609375 -204.34226562 12.7521875 -203.48828125 12.109375 C-179.96025789 -4.987389 -152.59526005 -15.96750085 -124 -21 C-122.37191406 -21.30744141 -122.37191406 -21.30744141 -120.7109375 -21.62109375 C-79.18024208 -28.18095305 -36.83707982 -19.57768254 0 0 Z " fill="#FDFEFE" transform="translate(292,32)"/>
<path d="M0 0 C3.46141279 0.7214313 5.28653293 2.40070094 7.8125 4.8125 C23.14645234 19.31336834 45.64563496 23.80219115 66.13671875 23.4375 C91.31916441 22.15295442 117.98994465 16.52794885 141.32299805 6.99072266 C145.86019179 5.22726474 149.11147736 4.92070598 153.8125 6.25 C157.03820819 9.14178395 157.24419728 11.9986701 157.625 16.1875 C162.95474733 58.3012412 186.58629113 98.64768883 209.8125 133.25 C210.121875 132.280625 210.43125 131.31125 210.75 130.3125 C211.8125 127.25 211.8125 127.25 212.8125 126.25 C219.77096249 125.67963422 219.77096249 125.67963422 223.4375 127.6875 C225.30515997 131.16813903 224.68796651 133.13610658 223.6640625 136.85546875 C222.36015371 140.52196458 220.67562854 143.83426434 218.8125 147.25 C216.81295254 147.29254356 214.81208364 147.29080783 212.8125 147.25 C212.4825 146.92 212.1525 146.59 211.8125 146.25 C206.6855728 146.74510352 201.90240299 147.98596307 197 149.5 C195.4873767 149.95704688 193.97434193 150.41273382 192.4609375 150.8671875 C191.68975586 151.09889648 190.91857422 151.33060547 190.12402344 151.56933594 C186.47300834 152.64443417 182.79827457 153.6292748 179.125 154.625 C171.33531438 156.75233113 163.65999368 159.18452873 155.97680664 161.66577148 C149.66479015 163.69249521 143.32797494 165.53634391 136.9284668 167.26342773 C128.97322981 169.43319734 121.11503994 171.9109434 113.24462891 174.36767578 C106.06609876 176.59600897 98.88228399 178.62435532 91.5703125 180.36328125 C88.75636348 181.26804956 87.12411857 182.46420024 84.8125 184.25 C81.5625 184.4375 81.5625 184.4375 78.8125 184.25 C77.8225 181.775 77.8225 181.775 76.8125 179.25 C75.74773437 179.14042969 74.68296875 179.03085937 73.5859375 178.91796875 C65.30377122 178.02716552 57.26561693 176.82132504 49.1328125 174.96875 C44.83496267 174.03839192 40.51695835 173.40863008 36.16796875 172.76953125 C32.02110887 172.12746796 27.90628014 171.34952123 23.78491211 170.56201172 C17.03298082 169.27793559 10.26713074 168.07606041 3.5 166.875 C-13.18457506 163.90867821 -29.84622538 160.82173022 -46.5 157.6875 C-47.71300781 157.46320313 -48.92601562 157.23890625 -50.17578125 157.0078125 C-53.28392539 156.42936783 -56.38192267 155.80742204 -59.48046875 155.1796875 C-70.557149 152.98610598 -80.8819609 151.66690629 -92.1875 152.25 C-94.36275354 148.66352826 -94.70531998 145.32991707 -95.0625 141.1875 C-95.18367188 139.95902344 -95.30484375 138.73054687 -95.4296875 137.46484375 C-95.1875 134.25 -95.1875 134.25 -93.4140625 132.3046875 C-90.07781569 130.72436006 -87.71641375 131.43078788 -84.1875 132.25 C-82.84023888 132.88805148 -81.50307361 133.54893774 -80.1875 134.25 C-70.0551232 124.46566151 -60.43811806 114.68512262 -52.1875 103.25 C-51.74776855 102.64929688 -51.30803711 102.04859375 -50.85498047 101.4296875 C-42.71028997 90.23842036 -35.82546485 78.38265545 -29.1875 66.25 C-28.82640137 65.59789551 -28.46530273 64.94579102 -28.09326172 64.27392578 C-22.07762816 53.32130315 -18.27615454 41.65000671 -14.38867188 29.81884766 C-12.34449778 23.62356564 -12.34449778 23.62356564 -11.0859375 20.62890625 C-9.49612873 16.4193691 -8.94687995 11.94601818 -8.1640625 7.52734375 C-6.74497635 2.76489063 -5.06803535 0.39749297 0 0 Z " fill="#5BA662" transform="translate(135.1875,107.75)"/>
<path d="M0 0 C3.46141279 0.7214313 5.28653293 2.40070094 7.8125 4.8125 C23.14645234 19.31336834 45.64563496 23.80219115 66.13671875 23.4375 C91.31916441 22.15295442 117.98994465 16.52794885 141.32299805 6.99072266 C145.86019179 5.22726474 149.11147736 4.92070598 153.8125 6.25 C157.03820819 9.14178395 157.24419728 11.9986701 157.625 16.1875 C162.95474733 58.3012412 186.58629113 98.64768883 209.8125 133.25 C210.121875 132.280625 210.43125 131.31125 210.75 130.3125 C211.8125 127.25 211.8125 127.25 212.8125 126.25 C219.77096249 125.67963422 219.77096249 125.67963422 223.4375 127.6875 C225.30515997 131.16813903 224.68796651 133.13610658 223.6640625 136.85546875 C222.36015371 140.52196458 220.67562854 143.83426434 218.8125 147.25 C216.81295254 147.29254356 214.81208364 147.29080783 212.8125 147.25 C212.4825 146.92 212.1525 146.59 211.8125 146.25 C206.6855728 146.74510352 201.90240299 147.98596307 197 149.5 C195.4873767 149.95704688 193.97434193 150.41273382 192.4609375 150.8671875 C191.68975586 151.09889648 190.91857422 151.33060547 190.12402344 151.56933594 C186.47300834 152.64443417 182.79827457 153.6292748 179.125 154.625 C171.33531438 156.75233113 163.65999368 159.18452873 155.97680664 161.66577148 C149.66479015 163.69249521 143.32797494 165.53634391 136.9284668 167.26342773 C128.97322981 169.43319734 121.11503994 171.9109434 113.24462891 174.36767578 C106.06609876 176.59600897 98.88228399 178.62435532 91.5703125 180.36328125 C88.75636348 181.26804956 87.12411857 182.46420024 84.8125 184.25 C81.5625 184.4375 81.5625 184.4375 78.8125 184.25 C77.8225 181.775 77.8225 181.775 76.8125 179.25 C75.74773437 179.14042969 74.68296875 179.03085937 73.5859375 178.91796875 C65.30377122 178.02716552 57.26561693 176.82132504 49.1328125 174.96875 C44.83496267 174.03839192 40.51695835 173.40863008 36.16796875 172.76953125 C32.02110887 172.12746796 27.90628014 171.34952123 23.78491211 170.56201172 C17.03298082 169.27793559 10.26713074 168.07606041 3.5 166.875 C-13.18457506 163.90867821 -29.84622538 160.82173022 -46.5 157.6875 C-47.71300781 157.46320313 -48.92601562 157.23890625 -50.17578125 157.0078125 C-53.28392539 156.42936783 -56.38192267 155.80742204 -59.48046875 155.1796875 C-70.557149 152.98610598 -80.8819609 151.66690629 -92.1875 152.25 C-94.36275354 148.66352826 -94.70531998 145.32991707 -95.0625 141.1875 C-95.18367188 139.95902344 -95.30484375 138.73054687 -95.4296875 137.46484375 C-95.1875 134.25 -95.1875 134.25 -93.4140625 132.3046875 C-90.07781569 130.72436006 -87.71641375 131.43078788 -84.1875 132.25 C-82.84023888 132.88805148 -81.50307361 133.54893774 -80.1875 134.25 C-70.0551232 124.46566151 -60.43811806 114.68512262 -52.1875 103.25 C-51.74776855 102.64929688 -51.30803711 102.04859375 -50.85498047 101.4296875 C-42.71028997 90.23842036 -35.82546485 78.38265545 -29.1875 66.25 C-28.82640137 65.59789551 -28.46530273 64.94579102 -28.09326172 64.27392578 C-22.07762816 53.32130315 -18.27615454 41.65000671 -14.38867188 29.81884766 C-12.34449778 23.62356564 -12.34449778 23.62356564 -11.0859375 20.62890625 C-9.49612873 16.4193691 -8.94687995 11.94601818 -8.1640625 7.52734375 C-6.74497635 2.76489063 -5.06803535 0.39749297 0 0 Z M-1.1875 7.25 C-1.38794922 7.95793701 -1.58839844 8.66587402 -1.79492188 9.39526367 C-13.6208855 50.89675335 -30.09897694 88.85442907 -59.1875 121.25 C-60.1264334 122.31238396 -61.06523812 123.37488165 -62.00390625 124.4375 C-68.01717425 131.17865077 -74.39370272 137.31035519 -81.1875 143.25 C-74.17569093 147.92453938 -64.08964097 148.33344452 -55.84375 149.65234375 C-50.80503935 150.47597915 -45.77859205 151.36697329 -40.75 152.25 C-34.52944097 153.34163982 -28.31337466 154.40646579 -22.0625 155.3125 C-18.05084372 155.90695066 -14.1541743 156.69945897 -10.21484375 157.66015625 C-3.14652187 159.31419959 3.957403 160.49357116 11.125 161.625 C23.56754718 163.64041816 35.88878875 166.05440425 48.21337891 168.69775391 C52.09379376 169.52224183 55.98035121 170.30830989 59.875 171.0625 C61.06222656 171.29582031 62.24945313 171.52914062 63.47265625 171.76953125 C66.96376041 172.27176027 70.290344 172.33524964 73.8125 172.25 C74.121875 171.115625 74.43125 169.98125 74.75 168.8125 C75.8125 165.25 75.8125 165.25 76.8125 164.25 C82.34191176 164.01470588 82.34191176 164.01470588 84.8125 165.25 C85.54325648 167.5640622 86.21388258 169.89828869 86.8125 172.25 C89.94663862 169.37058683 91.91599058 166.59925926 93.87890625 162.83203125 C94.4411792 161.7558252 95.00345215 160.67961914 95.58276367 159.57080078 C96.46992065 157.83419189 96.46992065 157.83419189 97.375 156.0625 C97.68241119 155.46387146 97.98982239 154.86524292 98.30654907 154.24847412 C108.42580799 134.50946291 116.78529182 114.1744808 124.5 93.3984375 C125.76192698 90.00059162 127.04054249 86.63468096 128.5078125 83.3203125 C129.8496512 80.16257233 130.79655939 77.06146066 131.6875 73.75 C133.07212924 68.74525233 134.60950017 63.84276638 136.3125 58.9375 C138.3294383 52.97892314 139.90707028 47.03366127 141.28417969 40.89868164 C142.7565634 34.35135266 144.46724409 27.87774883 146.23828125 21.40527344 C147.08224494 18.27491124 147.8125 15.50806199 147.8125 12.25 C144.5406423 12.64900704 141.88369547 13.21789594 138.8671875 14.578125 C133.60197095 16.8905465 128.04795485 18.22550088 122.5 19.6875 C120.76339111 20.14709106 120.76339111 20.14709106 118.99169922 20.6159668 C115.60143081 21.50528308 112.20816709 22.38154559 108.8125 23.25 C107.93964355 23.47397461 107.06678711 23.69794922 106.16748047 23.92871094 C75.61345668 31.63204378 42.3387543 33.17478561 14.1875 17.25 C9.25934682 14.30443718 5.04976801 11.10206183 0.8125 7.25 C0.1525 7.25 -0.5075 7.25 -1.1875 7.25 Z " fill="#0D4F1E" transform="translate(135.1875,107.75)"/>
<path d="M0 0 C1.74216797 0.90685547 1.74216797 0.90685547 3.51953125 1.83203125 C18.64013769 10.04036046 31.67614413 21.09097238 44 33 C44.72316406 33.67160156 45.44632812 34.34320313 46.19140625 35.03515625 C75.49672337 62.91960951 92.39556689 103.54110633 98 143 C98.14356934 143.97102661 98.14356934 143.97102661 98.29003906 144.96166992 C99.25419656 152.34058499 99.24359807 159.75659383 99.25 167.1875 C99.25067474 167.89353363 99.25134949 168.59956726 99.25204468 169.32699585 C99.20343899 201.5089607 91.27900033 231.69107998 76 260 C75.67386719 260.61214355 75.34773438 261.22428711 75.01171875 261.85498047 C70.39013892 270.47441099 65.12522012 278.37086404 59 286 C58.37569092 286.77875488 58.37569092 286.77875488 57.73876953 287.57324219 C26.47735872 326.28232822 -17.75164902 351.00514882 -67 358 C-67.97102661 358.14356934 -67.97102661 358.14356934 -68.96166992 358.29003906 C-76.34058499 359.25419656 -83.75659383 359.24359807 -91.1875 359.25 C-91.89353363 359.25067474 -92.59956726 359.25134949 -93.32699585 359.25204468 C-125.55779884 359.20336522 -155.62805473 351.22542978 -184 336 C-185.73636719 335.09507812 -185.73636719 335.09507812 -187.5078125 334.171875 C-202.1858529 326.21430412 -215.0196924 315.55307523 -227 304 C-227.77472656 303.27683594 -228.54945313 302.55367188 -229.34765625 301.80859375 C-258.98242939 273.42820254 -276.29853964 233.1420293 -282 193 C-282.09571289 192.35264893 -282.19142578 191.70529785 -282.29003906 191.03833008 C-283.25419656 183.65941501 -283.24359807 176.24340617 -283.25 168.8125 C-283.25067474 168.10646637 -283.25134949 167.40043274 -283.25204468 166.67300415 C-283.20343899 134.4910393 -275.27900033 104.30892002 -260 76 C-259.67386719 75.38785645 -259.34773438 74.77571289 -259.01171875 74.14501953 C-246.24189814 50.32879534 -227.60237779 30.05320439 -206 14 C-205.17113281 13.37609375 -204.34226562 12.7521875 -203.48828125 12.109375 C-179.96025789 -4.987389 -152.59526005 -15.96750085 -124 -21 C-122.37191406 -21.30744141 -122.37191406 -21.30744141 -120.7109375 -21.62109375 C-79.18024208 -28.18095305 -36.83707982 -19.57768254 0 0 Z M-147 -11 C-147.72912598 -10.77441406 -148.45825195 -10.54882812 -149.20947266 -10.31640625 C-160.01290288 -6.89793537 -170.03960287 -2.37973417 -180 3 C-180.93054199 3.49935059 -180.93054199 3.49935059 -181.87988281 4.00878906 C-190.03716948 8.42174742 -197.66385917 13.31969963 -205 19 C-205.81082031 19.60585938 -206.62164062 20.21171875 -207.45703125 20.8359375 C-221.52330077 31.76916695 -235.09869859 45.15436517 -245 60 C-245.42651855 60.63631348 -245.85303711 61.27262695 -246.29248047 61.92822266 C-274.08020177 104.02387658 -284.32431427 151.3411597 -276 201 C-275.86078125 201.84046875 -275.7215625 202.6809375 -275.578125 203.546875 C-267.75561782 249.03330564 -240.10556355 291.93557968 -202.81396484 319.01367188 C-200.89145356 320.36716537 -198.95346082 321.69163555 -197 323 C-196.41250977 323.39445312 -195.82501953 323.78890625 -195.21972656 324.1953125 C-179.6144449 334.47643924 -161.99070403 342.95456233 -144 348 C-142.81535156 348.35449219 -141.63070312 348.70898438 -140.41015625 349.07421875 C-96.1100547 361.37218296 -48.90035151 355.30513905 -8 335 C-7.34499512 334.68063477 -6.68999023 334.36126953 -6.01513672 334.03222656 C3.68684613 329.2623473 12.40771445 323.5424308 21 317 C21.87527344 316.3503125 22.75054687 315.700625 23.65234375 315.03125 C37.64525666 304.16464275 51.16471398 290.76543152 61 276 C61.43183594 275.35305176 61.86367188 274.70610352 62.30859375 274.03955078 C89.90079303 232.05524473 101.60314992 181.70542849 92 132 C86.22007533 105.66774889 75.87903298 80.85454753 60 59 C59.4124292 58.17121338 59.4124292 58.17121338 58.81298828 57.32568359 C34.63136372 23.47140921 -1.2771755 -0.44375966 -41 -12 C-42.25296875 -12.37769531 -43.5059375 -12.75539063 -44.796875 -13.14453125 C-78.1019482 -22.36906916 -114.11568613 -21.20026034 -147 -11 Z " fill="#117A38" transform="translate(292,32)"/>
<path d="M0 0 C9.47803767 -0.2111444 18.51415064 0.07675723 27.91796875 1.4296875 C32.28411728 1.981654 36.65902064 2.25648714 41.05078125 2.5078125 C41.77050613 2.54929413 42.49023102 2.59077576 43.23176575 2.6335144 C46.90658844 2.84161974 50.58173371 3.03481592 54.25805664 3.21435547 C55.62777825 3.28852816 56.99748904 3.3629011 58.3671875 3.4375 C59.59550293 3.49808594 60.82381836 3.55867187 62.08935547 3.62109375 C65 4 65 4 67 6 C67.2685991 12.45333242 65.0752056 18.9106271 63.1875 25 C62.93935547 25.83789062 62.69121094 26.67578125 62.43554688 27.5390625 C59.94047643 35.74168596 56.48132274 43.33014952 52.4375 50.875 C51.85871094 51.96554688 51.27992188 53.05609375 50.68359375 54.1796875 C48.00687484 58.66365746 48.00687484 58.66365746 46 60 C38.00071897 60.42041676 29.82242055 58.53618595 22 57 C19.45931582 56.53503819 16.91812307 56.07615562 14.375 55.625 C13.68237061 55.50084717 12.98974121 55.37669434 12.27612305 55.2487793 C7.66531924 54.43385829 3.04696344 53.69282341 -1.58203125 52.98828125 C-2.71495605 52.81409668 -3.84788086 52.63991211 -5.01513672 52.46044922 C-7.27480991 52.11516316 -9.53555396 51.77680528 -11.79736328 51.44580078 C-13.34979736 51.20772705 -13.34979736 51.20772705 -14.93359375 50.96484375 C-15.86228271 50.8268335 -16.79097168 50.68882324 -17.74780273 50.54663086 C-20 50 -20 50 -22 48 C-21.74714438 43.39965902 -19.35428486 40.01888476 -16.9375 36.25 C-9.87541123 24.85632631 -4.18399202 12.7446599 0 0 Z " fill="#0D5220" transform="translate(153,163)"/>
<path d="M0 0 C0.33 0 0.66 0 1 0 C0.99777939 0.72424164 0.99555878 1.44848328 0.99327087 2.19467163 C0.97302064 9.10564786 0.95790211 16.01661952 0.94818783 22.92761803 C0.94302536 26.4784512 0.93605254 30.02925935 0.92456055 33.58007812 C0.68458685 59.85937392 0.68458685 59.85937392 3 86 C3.18910089 88.20913179 3.35540543 90.42032186 3.5 92.6328125 C3.5825 93.85097656 3.665 95.06914062 3.75 96.32421875 C3.91717833 98.86585181 4.08384188 101.40751879 4.25 103.94921875 C4.3325 105.16480469 4.415 106.38039063 4.5 107.6328125 C4.60828125 109.28627686 4.60828125 109.28627686 4.71875 110.97314453 C4.9736104 113.71599114 5.43000424 116.30885808 6 119 C6.11678799 121.67678073 6.0454506 124.31841457 6 127 C4.67162109 127.34611328 4.67162109 127.34611328 3.31640625 127.69921875 C-10.67664142 131.38313245 -24.50857895 135.49876169 -38.29321289 139.89648438 C-44.15460402 141.75766993 -50.04155827 143.47356774 -56 145 C-54.52557276 141.10792591 -52.74697808 137.48031525 -50.8046875 133.80078125 C-50.16816328 132.58788198 -49.53194445 131.3748224 -48.89599609 130.16162109 C-48.56557312 129.53278015 -48.23515015 128.90393921 -47.89471436 128.25604248 C-42.44614901 117.87125369 -37.18188049 107.46098503 -32.5703125 96.671875 C-31.19414167 93.4539631 -29.74296236 90.28972261 -28.25 87.125 C-26.11314157 82.46536221 -24.52252494 77.70760824 -22.96484375 72.828125 C-22.11078057 70.32471715 -21.13503936 68.00990761 -20 65.625 C-17.72419778 60.73425641 -16.40217993 55.63400299 -15.02734375 50.4296875 C-14 47 -14 47 -12.5 43.515625 C-10.99568861 39.98989518 -9.99700868 36.58897011 -9.0625 32.875 C-7.80653111 27.97714751 -6.45854436 23.13688116 -4.9375 18.3125 C-3.0392795 12.26520465 -1.46624775 6.16490533 0 0 Z " fill="#5AA561" transform="translate(282,137)"/>
<path d="M0 0 C0.99 0.495 0.99 0.495 2 1 C2.37757497 2.54482103 2.74019549 4.09445407 3.03735352 5.65673828 C10.13200906 42.77057391 30.92109596 79.01803143 52.19921875 109.73095703 C55 113.79823191 55 113.79823191 55 116 C54.24605957 116.21092285 53.49211914 116.4218457 52.71533203 116.63916016 C49.18393311 117.62993017 45.65413328 118.62618869 42.125 119.625 C41.48973389 119.80474365 40.85446777 119.9844873 40.19995117 120.16967773 C31.49564902 122.63914743 22.85797104 125.23553679 14.33251953 128.27197266 C10.97013585 129.45000396 8.62173515 130 5 130 C3.50671535 121.53322104 2.66326054 113.20210944 2.24609375 104.62890625 C2.07310962 101.13368868 2.07310962 101.13368868 1.51939392 98.25474548 C0.93718491 94.60637363 0.6515218 90.97934772 0.44360352 87.29516602 C0.40142228 86.55653855 0.35924105 85.81791109 0.31578159 85.05690098 C-0.13426886 76.46446139 -0.12566018 67.87907427 -0.09765625 59.27734375 C-0.09578457 57.55286196 -0.09436423 55.82837962 -0.09336853 54.10389709 C-0.08960228 49.62753761 -0.0798245 45.15121206 -0.06866455 40.67486572 C-0.05832158 36.08207661 -0.05384369 31.48928185 -0.04882812 26.89648438 C-0.03819514 17.93097491 -0.02119229 8.96549031 0 0 Z " fill="#5AA562" transform="translate(286,132)"/>
<path d="M0 0 C3.05764932 1.48410584 5.64786199 3.15378104 8.375 5.1875 C27.67866718 18.81361801 48.76202818 23.05045444 72 22 C72.71510742 21.9695459 73.43021484 21.9390918 74.16699219 21.90771484 C94.86162304 20.84354892 115.92261363 15.5729387 135.41821289 8.69042969 C139.08606094 7.42367436 141.29714211 6.83505594 145 8 C129.24570316 16.32023802 113.33604094 21.93182882 96 26 C95.32984863 26.16661133 94.65969727 26.33322266 93.96923828 26.50488281 C75.48731273 31.01221431 53.26539978 31.55321678 35 26 C33.83082031 25.64808594 32.66164063 25.29617187 31.45703125 24.93359375 C21.18048819 21.53796393 11.33215713 16.9867813 3 10 C2.91363281 10.6084375 2.82726562 11.216875 2.73828125 11.84375 C0.45215816 26.1058023 -4.40841695 39.21784275 -11 52 C-11.36222656 52.70382813 -11.72445312 53.40765625 -12.09765625 54.1328125 C-18.16395849 65.7718873 -25.17577872 76.47597162 -33 87 C-33.56750977 87.76892578 -34.13501953 88.53785156 -34.71972656 89.33007812 C-36.44868504 91.66546951 -38.18986848 93.99105656 -39.9375 96.3125 C-40.46899658 97.02414307 -41.00049316 97.73578613 -41.5480957 98.46899414 C-44.39450271 102.1970436 -47.14786367 105.24036642 -51 108 C-49.3345315 104.27295157 -46.97513778 101.1387188 -44.5625 97.875 C-35.00384195 84.6813098 -26.92851771 70.73202863 -20 56 C-19.51950195 55.00492432 -19.51950195 55.00492432 -19.02929688 53.98974609 C-10.74057012 36.77374753 -4.82721336 18.46380171 0 0 Z " fill="#EEF3EF" transform="translate(134,115)"/>
<path d="M0 0 C0.99 0.495 0.99 0.495 2 1 C2.37757497 2.54482103 2.74019549 4.09445407 3.03735352 5.65673828 C10.13200906 42.77057391 30.92109596 79.01803143 52.19921875 109.73095703 C55 113.79823191 55 113.79823191 55 116 C52.525 116.495 52.525 116.495 50 117 C49.73735352 116.41597412 49.47470703 115.83194824 49.20410156 115.23022461 C47.94236365 112.89324653 46.5448244 111.25200309 44.734375 109.31640625 C41.00935246 105.14164598 38.08833777 100.74771513 35.25 95.9375 C34.74049805 95.07898438 34.23099609 94.22046875 33.70605469 93.3359375 C24.56251309 77.63547695 17.37601642 61.05161357 10.8359375 44.12988281 C9.31387427 40.25182218 7.66200314 36.42861566 6.0078125 32.60546875 C4.78971262 29.45635006 3.91235445 26.2493416 3 23 C2.68228345 44.38802674 2.73295347 65.6619096 4.375 87 C4.43821442 87.82934052 4.50142883 88.65868103 4.56655884 89.51315308 C5.25326628 98.35609261 6.08717957 107.18171559 7.0390625 116 C7.11973969 116.76022461 7.20041687 117.52044922 7.28353882 118.30371094 C7.8099053 124.22246407 7.8099053 124.22246407 11 129 C9.02 129.33 7.04 129.66 5 130 C3.50671535 121.53322104 2.66326054 113.20210944 2.24609375 104.62890625 C2.07310962 101.13368868 2.07310962 101.13368868 1.51939392 98.25474548 C0.93718491 94.60637363 0.6515218 90.97934772 0.44360352 87.29516602 C0.40142228 86.55653855 0.35924105 85.81791109 0.31578159 85.05690098 C-0.13426886 76.46446139 -0.12566018 67.87907427 -0.09765625 59.27734375 C-0.09578457 57.55286196 -0.09436423 55.82837962 -0.09336853 54.10389709 C-0.08960228 49.62753761 -0.0798245 45.15121206 -0.06866455 40.67486572 C-0.05832158 36.08207661 -0.05384369 31.48928185 -0.04882812 26.89648438 C-0.03819514 17.93097491 -0.02119229 8.96549031 0 0 Z " fill="#358250" transform="translate(286,132)"/>
<path d="M0 0 C0.33 0 0.66 0 1 0 C0.99777939 0.72424164 0.99555878 1.44848328 0.99327087 2.19467163 C0.97302064 9.10564786 0.95790211 16.01661952 0.94818783 22.92761803 C0.94302536 26.4784512 0.93605254 30.02925935 0.92456055 33.58007812 C0.68458685 59.85937392 0.68458685 59.85937392 3 86 C3.18910089 88.20913179 3.35540543 90.42032186 3.5 92.6328125 C3.5825 93.85097656 3.665 95.06914062 3.75 96.32421875 C3.91717833 98.86585181 4.08384188 101.40751879 4.25 103.94921875 C4.3325 105.16480469 4.415 106.38039063 4.5 107.6328125 C4.60828125 109.28627686 4.60828125 109.28627686 4.71875 110.97314453 C4.9736104 113.71599114 5.43000424 116.30885808 6 119 C6.11678799 121.67678073 6.0454506 124.31841457 6 127 C4.68 127 3.36 127 2 127 C1.36283661 124.06471818 0.74046976 121.12735023 0.125 118.1875 C-0.04902344 117.39279297 -0.22304688 116.59808594 -0.40234375 115.77929688 C-4.34557547 96.72034355 -4.25354826 77.69054365 -4.125 58.3125 C-4.11378259 55.6529982 -4.10582279 52.99349873 -4.09765625 50.33398438 C-4.07586519 43.88924054 -4.04259816 37.44463818 -4 31 C-4.19703018 31.87956863 -4.39406036 32.75913727 -4.59706116 33.6653595 C-4.86030685 34.8261351 -5.12355255 35.98691071 -5.39477539 37.18286133 C-5.65368057 38.33055496 -5.91258575 39.4782486 -6.17933655 40.66072083 C-7.28032804 45.14065465 -8.77567009 49.39021519 -10.4375 53.6875 C-10.74679443 54.50492676 -11.05608887 55.32235352 -11.37475586 56.16455078 C-12.24131961 58.44641857 -13.1190737 60.7236478 -14 63 C-14.37382812 63.98355469 -14.74765625 64.96710938 -15.1328125 65.98046875 C-19.33529176 76.80450145 -24.56455873 87.21582215 -29.5625 97.6875 C-30.25098022 99.13032349 -30.25098022 99.13032349 -30.95336914 100.60229492 C-33.90514456 106.7675561 -36.92213424 112.89671791 -40 119 C-40.66 119 -41.32 119 -42 119 C-40.33911026 113.5554791 -38.04608546 108.47961646 -35.6875 103.3125 C-35.28378174 102.41982422 -34.88006348 101.52714844 -34.46411133 100.60742188 C-32.80871196 96.95109638 -31.14157264 93.30190365 -29.4375 89.66796875 C-26.85368345 84.15313531 -24.81700072 78.6300625 -22.96484375 72.828125 C-22.11078057 70.32471715 -21.13503936 68.00990761 -20 65.625 C-17.72419778 60.73425641 -16.40217993 55.63400299 -15.02734375 50.4296875 C-14 47 -14 47 -12.5 43.515625 C-10.99568861 39.98989518 -9.99700868 36.58897011 -9.0625 32.875 C-7.80653111 27.97714751 -6.45854436 23.13688116 -4.9375 18.3125 C-3.0392795 12.26520465 -1.46624775 6.16490533 0 0 Z " fill="#368451" transform="translate(282,137)"/>
<path d="M0 0 C7.11131264 -0.1391722 14.05382537 0.26507455 21.125 1 C22.55972656 1.14308594 22.55972656 1.14308594 24.0234375 1.2890625 C26.34943754 1.5216625 28.67488959 1.75869679 31 2 C29.77251331 8.95170681 26.7667675 14.9776298 23.25 21.0625 C22.82203125 21.81660156 22.3940625 22.57070312 21.953125 23.34765625 C19.47210418 25.44659986 17.63195127 25.42446277 14.45214844 25.26342773 C9.43114003 24.72403426 4.47091919 23.88001919 -0.5 23 C-2.16289062 22.71382812 -2.16289062 22.71382812 -3.859375 22.421875 C-6.57400201 21.95383586 -9.28742095 21.47974117 -12 21 C-11.20831776 17.39302544 -9.88641434 15.17745847 -7.6875 12.1875 C-4.84072627 8.2336476 -2.32505372 4.27809885 0 0 Z " fill="#F9FBFA" transform="translate(178,194)"/>
<path d="M0 0 C3.93289545 0.11837128 7.86555666 0.24262793 11.7980957 0.37231445 C13.79303319 0.43687006 15.78811929 0.4967783 17.78320312 0.55664062 C19.03681641 0.59853516 20.29042969 0.64042969 21.58203125 0.68359375 C22.73936768 0.72025146 23.8967041 0.75690918 25.08911133 0.79467773 C28 1 28 1 31 2 C31.38097548 7.9686159 30.05266777 12.43519885 28 18 C27.32833365 19.99832649 26.66063178 21.99799848 26 24 C15.46077862 24.27256607 5.42095218 23.53370124 -5 22 C-4.41745617 17.33964935 -3.56381583 13.46805272 -1.71875 9.1875 C-0.72843565 6.17349981 -0.39257647 3.14061178 0 0 Z " fill="#F7FBF9" transform="translate(185,169)"/>
<path d="M0 0 C0.495 0.99 0.495 0.99 1 2 C-0.03898437 2.556875 -1.07796875 3.11375 -2.1484375 3.6875 C-16.72042984 11.03036195 -16.72042984 11.03036195 -27 23 C-13.8 23 -0.6 23 13 23 C13 23.33 13 23.66 13 24 C11.76080811 24.12060791 11.76080811 24.12060791 10.49658203 24.24365234 C7.38370315 24.54905865 4.27131675 24.8590067 1.15917969 25.171875 C-0.83104138 25.37061047 -2.82176732 25.56426905 -4.8125 25.7578125 C-11.27477574 26.41056763 -17.60442083 27.16320423 -23.94140625 28.60742188 C-27.00607761 29.1918611 -29.89008554 29.13521367 -33 29 C-33 29.66 -33 30.32 -33 31 C-32.14233032 30.95975708 -32.14233032 30.95975708 -31.26733398 30.91870117 C-23.96068451 30.7307931 -17.20796355 31.87830521 -10.0625 33.3125 C-7.68268126 33.77285195 -5.30246865 34.23117224 -2.921875 34.6875 C-1.75591797 34.91179687 -0.58996094 35.13609375 0.61132812 35.3671875 C8.04499195 36.75537602 15.52205551 37.87967458 23 39 C23 39.33 23 39.66 23 40 C20.04132082 39.85953745 17.08317736 39.71287776 14.125 39.5625 C12.86236328 39.50352539 12.86236328 39.50352539 11.57421875 39.44335938 C10.76855469 39.40146484 9.96289062 39.35957031 9.1328125 39.31640625 C8.01737061 39.26141968 8.01737061 39.26141968 6.87939453 39.20532227 C5 39 5 39 3 38 C3 38.66 3 39.32 3 40 C5.97 40.495 5.97 40.495 9 41 C5.80160899 42.02020801 3.57500748 41.94251494 0.296875 41.29296875 C-0.60160156 41.11830078 -1.50007813 40.94363281 -2.42578125 40.76367188 C-3.35777344 40.57353516 -4.28976563 40.38339844 -5.25 40.1875 C-6.62478516 39.91969727 -6.62478516 39.91969727 -8.02734375 39.64648438 C-12.07207233 38.84734756 -16.08555225 38.00188358 -20.07421875 36.95703125 C-25.32046667 35.60786295 -30.66645736 34.91864953 -36.02148438 34.14453125 C-40.82679219 33.42315332 -45.35893592 32.44527096 -50 31 C-34.27734375 15.27734375 -34.27734375 15.27734375 -32.55029297 13.56201172 C-31.25610385 12.25803975 -29.9999459 10.91646312 -28.75390625 9.56640625 C-27 8 -27 8 -24 8 C-24 8.66 -24 9.32 -24 10 C-15.34444139 7.90591324 -7.82772482 4.11688697 0 0 Z " fill="#388552" transform="translate(104,221)"/>
<path d="M0 0 C6.69920873 -0.16356156 12.9561169 0.42397869 19.5625 1.5 C20.93245117 1.71462891 20.93245117 1.71462891 22.33007812 1.93359375 C24.55442736 2.28296798 26.7775921 2.63851822 29 3 C28.45120275 7.51510468 26.68917239 10.34773743 24.125 14.0625 C23.42632812 15.08472656 22.72765625 16.10695312 22.0078125 17.16015625 C20.37417789 19.47076396 18.71575138 21.75009961 17 24 C11.54947775 23.24115888 6.11743421 22.3939256 0.6875 21.5 C-0.12267578 21.36980469 -0.93285156 21.23960937 -1.76757812 21.10546875 C-7.76733307 20.11633346 -7.76733307 20.11633346 -10 19 C-8.40376856 14.60616294 -6.21975667 10.71004193 -3.875 6.6875 C-3.50246094 6.04232422 -3.12992188 5.39714844 -2.74609375 4.73242188 C-1.83367787 3.15324055 -0.91724491 1.57638136 0 0 Z " fill="#F9FBFA" transform="translate(145,190)"/>
<path d="M0 0 C9.13338455 -0.28994872 17.96301675 0.8258212 27 2 C26.5003731 9.49440349 24.56235522 15.95650263 22 23 C12.07092668 23.27538262 2.79539929 22.53653322 -7 21 C-6.26951699 16.31196344 -4.63363115 12.09114445 -2.9375 7.6875 C-2.51500977 6.57665039 -2.51500977 6.57665039 -2.08398438 5.44335938 C-1.39281425 3.62757345 -0.69688311 1.81360101 0 0 Z " fill="#F9FCFB" transform="translate(155,166)"/>
<path d="M0 0 C1.01935016 3.14351027 0.96863486 4.992831 -0.0390625 8.125 C-0.41164185 9.3001416 -0.41164185 9.3001416 -0.79174805 10.49902344 C-1.06672119 11.3243457 -1.34169434 12.14966797 -1.625 13 C-1.90061768 13.84852539 -2.17623535 14.69705078 -2.46020508 15.57128906 C-4.88646499 22.91919103 -7.73879438 30.02722415 -10.94140625 37.0703125 C-12.13693674 39.73859794 -12.9946604 41.95087567 -13.3125 44.875 C-14.35629483 49.61952196 -17.17484279 53.11216898 -20 57 C-21.20628008 54.66785852 -22.1654738 52.50357861 -23 50 C-25.77100394 48.61449803 -27.9334706 48.8122533 -31 49 C-31.99 49.66 -32.98 50.32 -34 51 C-34.73863281 50.31035156 -35.47726563 49.62070312 -36.23828125 48.91015625 C-43.44171718 42.22270518 -50.84709568 35.88544485 -58.54785156 29.77099609 C-60.09801511 28.53936584 -61.64282429 27.30100597 -63.1875 26.0625 C-64.10917969 25.33160156 -65.03085938 24.60070312 -65.98046875 23.84765625 C-66.98013672 22.93306641 -66.98013672 22.93306641 -68 22 C-68 21.34 -68 20.68 -68 20 C-63.01909984 21.62780886 -59.1422199 24.53175818 -54.9375 27.5625 C-54.19032715 28.09536621 -53.4431543 28.62823242 -52.67333984 29.17724609 C-47.16093849 33.12344985 -41.71643216 37.1543566 -36.3203125 41.2578125 C-34.58645594 42.5596644 -32.8040487 43.79730086 -31 45 C-31.10828125 44.03126953 -31.10828125 44.03126953 -31.21875 43.04296875 C-32.17274356 33.35728418 -32.09150439 23.71980008 -32 14 C-31.34 14 -30.68 14 -30 14 C-28.14524395 19.69619642 -27.44339033 25.16869121 -26.9375 31.125 C-26.32204879 38.61300102 -26.32204879 38.61300102 -25 46 C-18.81908727 43.93969576 -15.68328599 34.35672409 -12.83154297 28.66992188 C-8.21583991 19.25885691 -3.87008741 9.74328538 0 0 Z " fill="#3A8854" transform="translate(243,223)"/>
<path d="M0 0 C0.33 0 0.66 0 1 0 C1.01030746 0.70220169 1.02061493 1.40440338 1.03123474 2.12788391 C1.12978345 8.79094056 1.2323716 15.45392186 1.33933926 22.11684895 C1.39417555 25.54116806 1.447526 28.96549606 1.49731445 32.38989258 C1.55480664 36.33943266 1.61906071 40.28884971 1.68359375 44.23828125 C1.70866249 46.05613884 1.70866249 46.05613884 1.73423767 47.91072083 C1.84208561 54.18509688 2.15593503 60.36894525 2.78184509 66.61262512 C3.06106701 69.66828593 3.11322688 72.69430546 3.09765625 75.76171875 C3.09443359 76.89931641 3.09121094 78.03691406 3.08789062 79.20898438 C3.07951172 80.35689453 3.07113281 81.50480469 3.0625 82.6875 C3.05798828 83.87794922 3.05347656 85.06839844 3.04882812 86.29492188 C3.03717452 89.19666936 3.02081559 92.09830626 3 95 C-5.32245448 79.46953587 -2.18665907 53.26849482 -2.18530273 36.11083984 C-2.18751688 32.97610418 -2.20583741 29.8417064 -2.22460938 26.70703125 C-2.22753981 24.67968868 -2.22952694 22.65234447 -2.23046875 20.625 C-2.23765427 19.70501221 -2.24483978 18.78502441 -2.25224304 17.8371582 C-2.23077006 11.68049186 -1.41771866 5.98906911 0 0 Z " fill="#074C1B" transform="translate(284,141)"/>
<path d="M0 0 C5.76471999 -0.10481309 11.2852729 0.26708873 17 1 C17.77472656 1.09539062 18.54945313 1.19078125 19.34765625 1.2890625 C21.23230746 1.52173549 23.11623622 1.76024825 25 2 C25 2.33 25 2.66 25 3 C23.96875 2.938125 22.9375 2.87625 21.875 2.8125 C19.87616306 2.97662625 19.87616306 2.97662625 18 4 C16.1528694 6.61972849 14.81320447 9.31523285 13.41796875 12.19921875 C12.18207472 14.64036481 10.98519941 16.46535454 9.1875 18.5 C6.82801818 20.87140099 6.82801818 20.87140099 6 24 C7.2375 23.95875 8.475 23.9175 9.75 23.875 C13.01637962 23.86341709 15.2146947 24.1431298 18 26 C17.01 26.495 17.01 26.495 16 27 C16.99 27.66 17.98 28.32 19 29 C16.33246372 28.71505863 13.66617278 28.42222725 11 28.125 C10.25621094 28.04636719 9.51242188 27.96773437 8.74609375 27.88671875 C4.37470971 27.39256229 0.24872151 26.60561743 -4 25.47705078 C-7.46047637 24.6516393 -10.96920088 24.27384953 -14.5 23.875 C-15.22703125 23.78863281 -15.9540625 23.70226562 -16.703125 23.61328125 C-18.46821176 23.40425782 -20.23403369 23.20145732 -22 23 C-22 22.67 -22 22.34 -22 22 C-20.35 22 -18.7 22 -17 22 C-17 21.34 -17 20.68 -17 20 C-10.42208127 20.41044485 -4.25948114 20.86608597 2 23 C2.23589844 22.48566406 2.47179687 21.97132813 2.71484375 21.44140625 C4.8034571 17.47367573 7.34417939 13.78500027 9.81054688 10.04492188 C11.54883666 7.37916487 12.98879554 5.03361339 14 2 C7.07 1.505 7.07 1.505 0 1 C0 0.67 0 0.34 0 0 Z " fill="#165625" transform="translate(160,191)"/>
<path d="M0 0 C0.33 0.99 0.66 1.98 1 3 C16.84 3.495 16.84 3.495 33 4 C33 4.66 33 5.32 33 6 C34.08667969 5.98259766 34.08667969 5.98259766 35.1953125 5.96484375 C40.24783323 5.91768689 45.03378767 5.92622436 50 7 C48 9 48 9 46.17445374 9.22607422 C40.53841387 9.10711181 34.97667845 8.71698736 29.37109375 8.125 C28.05843285 7.99182373 28.05843285 7.99182373 26.71925354 7.85595703 C23.95821692 7.57486541 21.19787134 7.28754371 18.4375 7 C16.55147468 6.80687723 14.66540727 6.61416506 12.77929688 6.421875 C8.18569805 5.95265816 3.59270765 5.47785765 -1 5 C-1.28987793 5.9192627 -1.57975586 6.83852539 -1.87841797 7.78564453 C-3.16739675 11.47974438 -5.02903857 14.60144894 -7.125 17.875 C-7.49753906 18.46796875 -7.87007812 19.0609375 -8.25390625 19.671875 C-9.16365 21.1181343 -10.08103798 22.55958046 -11 24 C-8.36 24.66 -5.72 25.32 -3 26 C-3 26.66 -3 27.32 -3 28 C-4.62463842 28.05395478 -6.24978541 28.09277195 -7.875 28.125 C-8.77992188 28.14820313 -9.68484375 28.17140625 -10.6171875 28.1953125 C-13 28 -13 28 -15 26 C-14.77953751 21.14100682 -12.07493304 17.43616104 -9.5625 13.4375 C-8.75004259 12.12447642 -7.9388069 10.81069594 -7.12890625 9.49609375 C-6.75008301 8.88620605 -6.37125977 8.27631836 -5.98095703 7.64794922 C-4.91542215 5.91923733 -4.91542215 5.91923733 -3.90234375 3.66015625 C-3 2 -3 2 0 0 Z " fill="#094A19" transform="translate(146,185)"/>
<path d="M0 0 C7.11131264 -0.1391722 14.05382537 0.26507455 21.125 1 C22.55972656 1.14308594 22.55972656 1.14308594 24.0234375 1.2890625 C26.34943754 1.5216625 28.67488959 1.75869679 31 2 C30.45276317 5.37462715 29.9451 7.08235 28 10 C28 8.68 28 7.36 28 6 C19.42 5.34 10.84 4.68 2 4 C0.02 7.63 -1.96 11.26 -4 15 C-6.6875 18.6875 -6.6875 18.6875 -9 21 C-9.99 21 -10.98 21 -12 21 C-11.37660845 17.38432901 -9.84556114 15.12190862 -7.6875 12.1875 C-4.84072627 8.2336476 -2.32505372 4.27809885 0 0 Z " fill="#91E7C7" transform="translate(178,194)"/>
<path d="M0 0 C0.33 0 0.66 0 1 0 C0.53047287 6.17290074 -0.88869301 10.6653738 -3.75 16.125 C-4.08515625 16.80175781 -4.4203125 17.47851562 -4.765625 18.17578125 C-7.04189869 22.63348389 -9.37034428 26.52180532 -13 30 C-15.98046875 30.47265625 -15.98046875 30.47265625 -19.1875 30.0625 C-20.32058594 29.918125 -21.45367187 29.77375 -22.62109375 29.625 C-27.17696895 28.78229476 -31.75074385 27.8976379 -36 26 C-36.33 25.34 -36.66 24.68 -37 24 C-35.25008666 23.97284617 -33.50005055 23.95353449 -31.75 23.9375 C-30.28820312 23.92009766 -30.28820312 23.92009766 -28.796875 23.90234375 C-26.3143457 23.98902424 -24.36985989 24.32640912 -22 25 C-17.89944609 25.7087981 -17.89944609 25.7087981 -14 25 C-9.34648871 20.49523108 -7.1609147 14.26133397 -4.94140625 8.30859375 C-3.66220482 5.17163091 -2.05179384 2.68855745 0 0 Z " fill="#175726" transform="translate(212,193)"/>
<path d="M0 0 C3.93289545 0.11837128 7.86555666 0.24262793 11.7980957 0.37231445 C13.79303319 0.43687006 15.78811929 0.4967783 17.78320312 0.55664062 C19.03681641 0.59853516 20.29042969 0.64042969 21.58203125 0.68359375 C22.73936768 0.72025146 23.8967041 0.75690918 25.08911133 0.79467773 C28 1 28 1 31 2 C31 4.31 31 6.62 31 9 C30.67 9 30.34 9 30 9 C30 7.35 30 5.7 30 4 C28.80503906 4.01160156 27.61007813 4.02320313 26.37890625 4.03515625 C10.69869427 4.1405473 10.69869427 4.1405473 3 3 C2.96261719 3.61746094 2.92523438 4.23492187 2.88671875 4.87109375 C2.41276584 10.9767224 1.19399627 16.28733047 -1 22 C-2.32 22 -3.64 22 -5 22 C-4.51443057 17.33853348 -3.57446326 13.49275477 -1.71875 9.1875 C-0.72843565 6.17349981 -0.39257647 3.14061178 0 0 Z " fill="#89E3C2" transform="translate(185,169)"/>
<path d="M0 0 C8.38211215 0.65905865 16.40956379 2.60398419 24.5625 4.5625 C25.96668106 4.89567078 27.3709772 5.22835694 28.77539062 5.56054688 C32.18493825 6.3681166 35.59288303 7.18222821 39 8 C39.33 7.34 39.66 6.68 40 6 C40 7.65 40 9.3 40 11 C34.94746483 11.13725053 30.25752426 10.66438211 25.31640625 9.6875 C24.61603745 9.55432373 23.91566864 9.42114746 23.19407654 9.28393555 C20.98235026 8.86195688 18.77245657 8.43114046 16.5625 8 C15.0528472 7.71034884 13.54308241 7.42128072 12.03320312 7.1328125 C8.3541403 6.4286057 4.67669271 5.71647394 1 5 C2.32 4.34 3.64 3.68 5 3 C2.525 2.01 2.525 2.01 0 1 C0 0.67 0 0.34 0 0 Z " fill="#36834F" transform="translate(169,269)"/>
<path d="M0 0 C6.69920873 -0.16356156 12.9561169 0.42397869 19.5625 1.5 C20.93245117 1.71462891 20.93245117 1.71462891 22.33007812 1.93359375 C24.55442736 2.28296798 26.7775921 2.63851822 29 3 C28.67 4.65 28.34 6.3 28 8 C27.34 7.34 26.68 6.68 26 6 C23.48527178 5.44270569 23.48527178 5.44270569 20.5546875 5.1484375 C18.94013672 4.95507812 18.94013672 4.95507812 17.29296875 4.7578125 C16.16503906 4.63148438 15.03710938 4.50515625 13.875 4.375 C12.73933594 4.2409375 11.60367188 4.106875 10.43359375 3.96875 C7.62320259 3.63811575 4.81211828 3.31554914 2 3 C1.87310791 3.59329102 1.74621582 4.18658203 1.61547852 4.79785156 C0.68496064 8.12719357 -1.22311138 10.85907834 -3.0625 13.75 C-3.43955078 14.35199219 -3.81660156 14.95398438 -4.20507812 15.57421875 C-5.13193163 17.05249143 -6.06532389 18.52666089 -7 20 C-7.99 19.67 -8.98 19.34 -10 19 C-8.40376856 14.60616294 -6.21975667 10.71004193 -3.875 6.6875 C-3.50246094 6.04232422 -3.12992188 5.39714844 -2.74609375 4.73242188 C-1.83367787 3.15324055 -0.91724491 1.57638136 0 0 Z " fill="#80D9B7" transform="translate(145,190)"/>
<path d="M0 0 C9.13338455 -0.28994872 17.96301675 0.8258212 27 2 C26.67 3.32 26.34 4.64 26 6 C26 5.34 26 4.68 26 4 C24.205625 4.0309375 24.205625 4.0309375 22.375 4.0625 C15.89621401 4.07286606 9.45446267 3.5141535 3 3 C2.57847656 4.13179687 2.15695313 5.26359375 1.72265625 6.4296875 C1.16932869 7.91147994 0.61594011 9.39324959 0.0625 10.875 C-0.21529297 11.62136719 -0.49308594 12.36773437 -0.77929688 13.13671875 C-2.88671875 18.7734375 -2.88671875 18.7734375 -4 21 C-4.99 21 -5.98 21 -7 21 C-6.26951699 16.31196344 -4.63363115 12.09114445 -2.9375 7.6875 C-2.51500977 6.57665039 -2.51500977 6.57665039 -2.08398438 5.44335938 C-1.39281425 3.62757345 -0.69688311 1.81360101 0 0 Z " fill="#88DEBD" transform="translate(155,166)"/>
<path d="M0 0 C0 0.33 0 0.66 0 1 C-2.95867918 0.85953745 -5.91682264 0.71287776 -8.875 0.5625 C-9.71675781 0.52318359 -10.55851562 0.48386719 -11.42578125 0.44335938 C-12.23144531 0.40146484 -13.03710938 0.35957031 -13.8671875 0.31640625 C-14.61081543 0.27974854 -15.35444336 0.24309082 -16.12060547 0.20532227 C-18 0 -18 0 -20 -1 C-20 -0.34 -20 0.32 -20 1 C-17.03 1.495 -17.03 1.495 -14 2 C-17.25729609 3.04708869 -19.56881069 2.92589727 -22.9140625 2.29296875 C-23.83960937 2.11830078 -24.76515625 1.94363281 -25.71875 1.76367188 C-26.6778125 1.57353516 -27.636875 1.38339844 -28.625 1.1875 C-29.59179688 1.00896484 -30.55859375 0.83042969 -31.5546875 0.64648438 C-38.74423025 -0.74423025 -38.74423025 -0.74423025 -41 -3 C-27.35615813 -5.01525808 -13.3638521 -3.0671136 0 0 Z " fill="#428E55" transform="translate(127,260)"/>
<path d="M0 0 C1.32 0.33 2.64 0.66 4 1 C2.70966095 3.27159689 1.41778598 5.54229625 0.125 7.8125 C-0.23980469 8.45509766 -0.60460937 9.09769531 -0.98046875 9.75976562 C-2.58083901 12.56768798 -4.20642866 15.30964298 -6 18 C-3.36 18.66 -0.72 19.32 2 20 C2 20.66 2 21.32 2 22 C0.37536158 22.05395478 -1.24978541 22.09277195 -2.875 22.125 C-3.77992188 22.14820313 -4.68484375 22.17140625 -5.6171875 22.1953125 C-8 22 -8 22 -10 20 C-9.7928251 15.07284049 -6.97447461 11.24743639 -4.4375 7.1875 C-4.01275391 6.49462891 -3.58800781 5.80175781 -3.15039062 5.08789062 C-2.10690544 3.38783049 -1.05434704 1.69334524 0 0 Z " fill="#0F5321" transform="translate(141,191)"/>
<path d="M0 0 C1.98 0 3.96 0 6 0 C6 4.62 6 9.24 6 14 C4.68 14 3.36 14 2 14 C2 14.99 2 15.98 2 17 C0.68 16.67 -0.64 16.34 -2 16 C-2.33 13.69 -2.66 11.38 -3 9 C-2.01 10.485 -2.01 10.485 -1 12 C-0.67 8.04 -0.34 4.08 0 0 Z " fill="#327F4E" transform="translate(44,243)"/>
<path d="M0 0 C0.12375 0.639375 0.2475 1.27875 0.375 1.9375 C0.58125 2.618125 0.7875 3.29875 1 4 C1.66 4.33 2.32 4.66 3 5 C2.57781184 6.6498275 2.13675575 8.29483665 1.6875 9.9375 C1.44386719 10.85402344 1.20023438 11.77054688 0.94921875 12.71484375 C0.63597656 13.46894531 0.32273438 14.22304687 0 15 C-0.99 15.33 -1.98 15.66 -3 16 C-3.66 16.99 -4.32 17.98 -5 19 C-5 18.34 -5 17.68 -5 17 C-6.39412109 17.01740234 -6.39412109 17.01740234 -7.81640625 17.03515625 C-20.09490334 17.12478032 -20.09490334 17.12478032 -26 16 C-26 15.67 -26 15.34 -26 15 C-20.98391475 13.9823597 -16.21391694 13.88143566 -11.125 13.9375 C-10.34125 13.94201172 -9.5575 13.94652344 -8.75 13.95117188 C-6.83329986 13.96285907 -4.91663952 13.98079092 -3 14 C-2.85691406 13.10023438 -2.71382812 12.20046875 -2.56640625 11.2734375 C-1.90399114 7.44513502 -0.97245388 3.76015499 0 0 Z " fill="#165C2D" transform="translate(214,179)"/>
<path d="M0 0 C3.3 0 6.6 0 10 0 C10 0.33 10 0.66 10 1 C9.071875 1.268125 8.14375 1.53625 7.1875 1.8125 C2.28201068 3.64003524 0.61607661 6.41809441 -1.9375 10.875 C-6.21782659 18.12188958 -6.21782659 18.12188958 -9 21 C-9.99 21 -10.98 21 -12 21 C-11.37660845 17.38432901 -9.84556114 15.12190862 -7.6875 12.1875 C-4.84072627 8.2336476 -2.32505372 4.27809885 0 0 Z " fill="#88E2C0" transform="translate(178,194)"/>
<path d="M0 0 C1.65 0.33 3.3 0.66 5 1 C5.33 2.65 5.66 4.3 6 6 C6.99 5.67 7.98 5.34 9 5 C8.67 6.65 8.34 8.3 8 10 C7.34 9.34 6.68 8.68 6 8 C5.4225 8.99 4.845 9.98 4.25 11 C3.5075 11.99 2.765 12.98 2 14 C0.68 14 -0.64 14 -2 14 C-1.85866501 12.22880197 -1.71176792 10.45804713 -1.5625 8.6875 C-1.48128906 7.70136719 -1.40007812 6.71523437 -1.31640625 5.69921875 C-1 3 -1 3 0 0 Z " fill="#337E4D" transform="translate(350,237)"/>
<path d="M0 0 C2.4375 2.0625 2.4375 2.0625 4 4 C0.37 3.67 -3.26 3.34 -7 3 C-7 7.95 -7 12.9 -7 18 C-10.20765329 13.18852006 -11.78930976 7.7882716 -11 2 C-7.82204389 -1.94066557 -4.58180089 -1.2272681 0 0 Z " fill="#18572A" transform="translate(51,240)"/>
<path d="M0 0 C2.5 0.125 2.5 0.125 3.5 1.125 C3.73427778 3.14094582 3.91336124 5.163474 4.0625 7.1875 C4.14628906 8.29222656 4.23007813 9.39695312 4.31640625 10.53515625 C4.37699219 11.38980469 4.43757812 12.24445313 4.5 13.125 C3.18 13.455 1.86 13.785 0.5 14.125 C-1.5054804 9.76526 -3.03945369 5.96073624 -3.5 1.125 C-2.5 0.125 -2.5 0.125 0 0 Z " fill="#327F4D" transform="translate(215.5,274.875)"/>
<path d="M0 0 C3.16225552 0.03981257 4.03583439 0.20892349 6.75 2.0625 C8.1875 4.3125 8.1875 4.3125 8.125 6.5 C7.1875 8.3125 7.1875 8.3125 4.1875 9.3125 C3.94 8.508125 3.6925 7.70375 3.4375 6.875 C2.46511141 4.141419 2.46511141 4.141419 0.0625 3.5 C-0.55625 3.438125 -1.175 3.37625 -1.8125 3.3125 C-2.1425 5.2925 -2.4725 7.2725 -2.8125 9.3125 C-4.1325 8.9825 -5.4525 8.6525 -6.8125 8.3125 C-4.64939024 0.38109756 -4.64939024 0.38109756 0 0 Z " fill="#135425" transform="translate(351.8125,233.6875)"/>
<path d="M0 0 C0.33 0.66 0.66 1.32 1 2 C1.66 2 2.32 2 3 2 C3.33 1.34 3.66 0.68 4 0 C3.35731596 4.45143264 2.29333357 8.58881647 0.9375 12.875 C0.57527344 14.02742187 0.21304688 15.17984375 -0.16015625 16.3671875 C-0.43730469 17.23601562 -0.71445313 18.10484375 -1 19 C-1.66 18.67 -2.32 18.34 -3 18 C-4.70702735 17.93003986 -6.41668003 17.91559846 -8.125 17.9375 C-9.03507813 17.94652344 -9.94515625 17.95554688 -10.8828125 17.96484375 C-11.93082031 17.98224609 -11.93082031 17.98224609 -13 18 C-13 17.67 -13 17.34 -13 17 C-10.03 17 -7.06 17 -4 17 C-3.71125 15.68 -3.4225 14.36 -3.125 13 C-2.15891142 8.64570078 -1.10020203 4.32222225 0 0 Z " fill="#3E744E" transform="translate(181,172)"/>
<path d="M0 0 C5.76471999 -0.10481309 11.2852729 0.26708873 17 1 C17.77472656 1.09539062 18.54945313 1.19078125 19.34765625 1.2890625 C21.23230746 1.52173549 23.11623622 1.76024825 25 2 C25 2.33 25 2.66 25 3 C23.9275 3 22.855 3 21.75 3 C18.01358689 3.57686175 18.01358689 3.57686175 16.64453125 5.84765625 C15.65559657 7.87193771 14.7755243 9.88537164 14 12 C13.01 12 12.02 12 11 12 C10.67 11.34 10.34 10.68 10 10 C11.11463924 7.21060129 12.58628534 4.65606996 14 2 C7.07 1.505 7.07 1.505 0 1 C0 0.67 0 0.34 0 0 Z " fill="#286D41" transform="translate(160,191)"/>
<path d="M0 0 C0.66 0.99 1.32 1.98 2 3 C-0.05218469 5.75783399 -2.11851931 8.50475055 -4.1875 11.25 C-4.76564453 12.02730469 -5.34378906 12.80460938 -5.93945312 13.60546875 C-8.98402428 17.63049502 -11.82038307 21.07190678 -16 24 C-14.23765397 20.0198702 -11.6738073 16.6249657 -9.125 13.125 C-5.99335606 8.80388892 -2.93211731 4.45954586 0 0 Z " fill="#CCDBCE" transform="translate(99,199)"/>
<path d="M0 0 C0.33 0.66 0.66 1.32 1 2 C1.66 2 2.32 2 3 2 C2.01 4.97 1.02 7.94 0 11 C4.95 11.33 9.9 11.66 15 12 C15 12.33 15 12.66 15 13 C3.68490113 13.2012567 3.68490113 13.2012567 -1 12 C-1.33 11.34 -1.66 10.68 -2 10 C-2.99 10.495 -2.99 10.495 -4 11 C-2.7874262 7.27566618 -1.49140021 3.62197194 0 0 Z " fill="#236133" transform="translate(148,176)"/>
<path d="M0 0 C6.81598387 -0.33278764 11.92122066 -0.24201565 18 3 C18 3.33 18 3.66 18 4 C11.19796625 4.37634203 6.24309927 3.77471079 0 1 C0 0.67 0 0.34 0 0 Z " fill="#145122" transform="translate(175,217)"/>
<path d="M0 0 C0.97812873 3.05628064 1.00835683 4.85277447 0.00390625 7.890625 C-0.33930664 8.95410156 -0.33930664 8.95410156 -0.68945312 10.0390625 C-0.93630859 10.76867187 -1.18316406 11.49828125 -1.4375 12.25 C-1.68048828 12.99507812 -1.92347656 13.74015625 -2.17382812 14.5078125 C-2.77332981 16.34158235 -3.38544487 18.17122004 -4 20 C-4.99 20 -5.98 20 -7 20 C-8 18 -8 18 -7.37915039 16.12060547 C-7.03875732 15.37697754 -6.69836426 14.63334961 -6.34765625 13.8671875 C-5.98349609 13.06152344 -5.61933594 12.25585938 -5.24414062 11.42578125 C-4.85419922 10.58402344 -4.46425781 9.74226562 -4.0625 8.875 C-3.48338867 7.60076172 -3.48338867 7.60076172 -2.89257812 6.30078125 C-1.93534092 4.19722296 -0.97091277 2.09727268 0 0 Z " fill="#428F57" transform="translate(243,223)"/>
<path d="M0 0 C-1.3922459 4.62675657 -3.29520984 8.64686231 -5.625 12.875 C-6.25664062 14.02742188 -6.88828125 15.17984375 -7.5390625 16.3671875 C-8.02117187 17.23601562 -8.50328125 18.10484375 -9 19 C-10.38160733 14.85517802 -8.78711917 12.21697471 -7.1875 8.375 C-6.91357422 7.68148438 -6.63964844 6.98796875 -6.35742188 6.2734375 C-3.80271149 0 -3.80271149 0 0 0 Z " fill="#509B5B" transform="translate(239,249)"/>
<path d="M0 0 C9.41002278 0.96355353 9.41002278 0.96355353 14 2 C13.34 2.66 12.68 3.32 12 4 C12.66 4.66 13.32 5.32 14 6 C9.71 5.67 5.42 5.34 1 5 C2.32 4.34 3.64 3.68 5 3 C2.525 2.01 2.525 2.01 0 1 C0 0.67 0 0.34 0 0 Z " fill="#499458" transform="translate(169,269)"/>
<path d="M0 0 C6.11090483 -0.09945415 11.97403427 -0.0712828 18 1 C17.67 2.65 17.34 4.3 17 6 C16.34 5.34 15.68 4.68 15 4 C12.44132526 3.5342637 9.95312092 3.16515752 7.375 2.875 C6.66859375 2.78863281 5.9621875 2.70226562 5.234375 2.61328125 C3.49049859 2.40118817 1.7453516 2.19959009 0 2 C0 1.34 0 0.68 0 0 Z " fill="#9AEBCE" transform="translate(156,192)"/>
<path d="M0 0 C1.79158489 -0.02696365 3.58328473 -0.04637917 5.375 -0.0625 C6.37273437 -0.07410156 7.37046875 -0.08570313 8.3984375 -0.09765625 C11 0 11 0 13 1 C13 1.66 13 2.32 13 3 C15.97 3.495 15.97 3.495 19 4 C15.30090353 5.32810933 12.68409044 4.6670918 8.9375 3.6875 C7.89464844 3.42324219 6.85179688 3.15898437 5.77734375 2.88671875 C3 2 3 2 0 0 Z " fill="#4B9556" transform="translate(94,258)"/>
<path d="M0 0 C3.96 0.33 7.92 0.66 12 1 C12 1.33 12 1.66 12 2 C10.35 2 8.7 2 7 2 C7 2.66 7 3.32 7 4 C2.83861737 4.08159574 -0.9472484 3.98248524 -5 3 C-5 2.67 -5 2.34 -5 2 C-3.35 2 -1.7 2 0 2 C0 1.34 0 0.68 0 0 Z " fill="#2A6436" transform="translate(143,211)"/>
<path d="M0 0 C-2.28703308 1.19725883 -4.57884862 2.38297018 -6.875 3.5625 C-7.52597656 3.90474609 -8.17695313 4.24699219 -8.84765625 4.59960938 C-10.53529857 5.46082891 -12.26579593 6.23686703 -14 7 C-14.66 6.67 -15.32 6.34 -16 6 C-16 5.01 -16 4.02 -16 3 C-14.08802961 2.29954544 -12.17019565 1.615081 -10.25 0.9375 C-9.18265625 0.55464844 -8.1153125 0.17179687 -7.015625 -0.22265625 C-4.07719958 -0.98010011 -2.77651052 -1.07151741 0 0 Z " fill="#D0DFD2" transform="translate(279,123)"/>
<path d="M0 0 C0.33 0.66 0.66 1.32 1 2 C-4.28 4.97 -9.56 7.94 -15 11 C-15.66 10.01 -16.32 9.02 -17 8 C-11.39 5.36 -5.78 2.72 0 0 Z " fill="#449158" transform="translate(104,221)"/>
<path d="M0 0 C0.33 0.99 0.66 1.98 1 3 C0.00390625 4.82421875 0.00390625 4.82421875 -1.4375 6.6875 C-1.91058594 7.31011719 -2.38367188 7.93273437 -2.87109375 8.57421875 C-3.24363281 9.04472656 -3.61617187 9.51523438 -4 10 C-5.32 9.67 -6.64 9.34 -8 9 C-7.23587913 7.87043002 -6.46340197 6.74651022 -5.6875 5.625 C-5.25824219 4.99851563 -4.82898438 4.37203125 -4.38671875 3.7265625 C-3 2 -3 2 0 0 Z " fill="#1E5A2E" transform="translate(172,201)"/>
<path d="M0 0 C0.66 0.33 1.32 0.66 2 1 C-0.97 5.95 -0.97 5.95 -4 11 C-4.99 10.67 -5.98 10.34 -7 10 C-5.6062718 5.56541027 -3.39417765 3.12621626 0 0 Z " fill="#8AE3C2" transform="translate(142,199)"/>
<path d="M0 0 C0.66 0.33 1.32 0.66 2 1 C0.35 4.3 -1.3 7.6 -3 11 C-3.99 10.67 -4.98 10.34 -6 10 C-4.79157144 5.56909529 -3.48331435 3.01887244 0 0 Z " fill="#104F1E" transform="translate(207,206)"/>
<path d="M0 0 C0.185625 0.9590625 0.185625 0.9590625 0.375 1.9375 C0.684375 2.9584375 0.684375 2.9584375 1 4 C1.66 4.33 2.32 4.66 3 5 C2.34 7.31 1.68 9.62 1 12 C0.34 12 -0.32 12 -1 12 C-1.66 12.66 -2.32 13.32 -3 14 C-2.28547412 9.23649415 -1.20465156 4.65798604 0 0 Z " fill="#2F653B" transform="translate(214,179)"/>
<path d="M0 0 C3 0.125 3 0.125 4 1.125 C4.14115161 3.79558851 4.04247107 6.44932238 4 9.125 C3.34 9.125 2.68 9.125 2 9.125 C1.7525 8.17625 1.505 7.2275 1.25 6.25 C0.3142923 3.03806809 0.3142923 3.03806809 -2.125 1.75 C-2.74375 1.54375 -3.3625 1.3375 -4 1.125 C-3 0.125 -3 0.125 0 0 Z " fill="#024715" transform="translate(217,271.875)"/>
<path d="M0 0 C0.33 0 0.66 0 1 0 C2.32286246 4.96073422 2.08893197 9.91111512 2 15 C-1.25726129 10.11410806 -1.18322531 6.67998451 -1 1 C-0.67 0.67 -0.34 0.34 0 0 Z " fill="#064918" transform="translate(42,243)"/>
<path d="M0 0 C3.63 0.66 7.26 1.32 11 2 C11 2.66 11 3.32 11 4 C7.7 4 4.4 4 1 4 C0.67 2.68 0.34 1.36 0 0 Z " fill="#054816" transform="translate(132,209)"/>
<path d="M0 0 C0.33 0.99 0.66 1.98 1 3 C0.67 3.66 0.34 4.32 0 5 C2.97 5.495 2.97 5.495 6 6 C6 6.33 6 6.66 6 7 C3.98177083 6.70703125 1.96354167 6.4140625 -0.0546875 6.12109375 C-2.08140667 5.8315703 -2.08140667 5.8315703 -4 7 C-3.6875 4.625 -3.6875 4.625 -3 2 C-2.01 1.34 -1.02 0.68 0 0 Z " fill="#1D6032" transform="translate(135,204)"/>
<path d="M0 0 C0.99 0 1.98 0 3 0 C2.745504 1.48206495 2.47088238 2.96068615 2.1875 4.4375 C2.03667969 5.26121094 1.88585937 6.08492187 1.73046875 6.93359375 C1.48941406 7.61550781 1.24835938 8.29742187 1 9 C0.01 9.33 -0.98 9.66 -2 10 C-1.34 6.7 -0.68 3.4 0 0 Z " fill="#084917" transform="translate(216,175)"/>
<path d="M0 0 C0.33 0 0.66 0 1 0 C1 4.62 1 9.24 1 14 C-2 11 -2 11 -2.109375 9.0625 C-1.93148438 8.0415625 -1.93148438 8.0415625 -1.75 7 C-1.64171875 6.319375 -1.5334375 5.63875 -1.421875 4.9375 C-1 3 -1 3 0 0 Z " fill="#2C7846" transform="translate(282,137)"/>
<path d="M0 0 C4.51617599 -0.07654536 8.59085217 -0.10228696 13 1 C12.01 1.33 11.02 1.66 10 2 C10 2.66 10 3.32 10 4 C7.69 4 5.38 4 3 4 C3.99 3.34 4.98 2.68 6 2 C3.03 1.505 3.03 1.505 0 1 C0 0.67 0 0.34 0 0 Z " fill="#1E642F" transform="translate(162,163)"/>
<path d="M0 0 C0.33 0.66 0.66 1.32 1 2 C1.66 2 2.32 2 3 2 C2.67 3.98 2.34 5.96 2 8 C0.68 7.67 -0.64 7.34 -2 7 C-1.34 4.69 -0.68 2.38 0 0 Z " fill="#235F33" transform="translate(347,235)"/>
<path d="M0 0 C3.3 0 6.6 0 10 0 C10 0.33 10 0.66 10 1 C8.95199219 1.30744141 8.95199219 1.30744141 7.8828125 1.62109375 C6.97273437 1.89050781 6.06265625 2.15992188 5.125 2.4375 C4.22007812 2.70433594 3.31515625 2.97117188 2.3828125 3.24609375 C0.01724619 3.92613826 0.01724619 3.92613826 -2 5 C-1.34 3.35 -0.68 1.7 0 0 Z " fill="#80DDBA" transform="translate(178,194)"/>
<path d="M0 0 C0.33 0.99 0.66 1.98 1 3 C1.66 3.33 2.32 3.66 3 4 C2.67 5.98 2.34 7.96 2 10 C1.34 9.34 0.68 8.68 0 8 C-0.66 8.99 -1.32 9.98 -2 11 C-1.125 3.375 -1.125 3.375 0 0 Z " fill="#135824" transform="translate(278,139)"/>
<path d="M0 0 C0.33 0 0.66 0 1 0 C1 1.98 1 3.96 1 6 C-0.32 6 -1.64 6 -3 6 C-3 4.68 -3 3.36 -3 2 C-3.99 1.67 -4.98 1.34 -6 1 C-4.7934375 1.0309375 -4.7934375 1.0309375 -3.5625 1.0625 C-1.06645115 1.29633621 -1.06645115 1.29633621 0 0 Z " fill="#246A3B" transform="translate(219,169)"/>
<path d="M0 0 C0.99 1.485 0.99 1.485 2 3 C2.66 2.01 3.32 1.02 4 0 C4.33 2.64 4.66 5.28 5 8 C3.68 7.67 2.36 7.34 1 7 C0.67 4.69 0.34 2.38 0 0 Z " fill="#2C663C" transform="translate(41,252)"/>
<path d="M0 0 C0.66 0 1.32 0 2 0 C2 2.64 2 5.28 2 8 C1.34 6.68 0.68 5.36 0 4 C-0.66 5.32 -1.32 6.64 -2 8 C-2.125 5.125 -2.125 5.125 -2 2 C-1.34 1.34 -0.68 0.68 0 0 Z " fill="#266337" transform="translate(42,240)"/>
<path d="M0 0 C0.33 1.32 0.66 2.64 1 4 C0.34 3.67 -0.32 3.34 -1 3 C-0.67 2.01 -0.34 1.02 0 0 Z M-9 3 C-6.36 3 -3.72 3 -1 3 C-1.66 4.65 -2.32 6.3 -3 8 C-3.66 7.01 -4.32 6.02 -5 5 C-7.05003955 3.80767387 -7.05003955 3.80767387 -9 3 Z " fill="#245D32" transform="translate(213,190)"/>
<path d="M0 0 C0.99 0.33 1.98 0.66 3 1 C2 3 1 5 0 7 C-0.66 7 -1.32 7 -2 7 C-1.125 2.25 -1.125 2.25 0 0 Z " fill="#E4ECE5" transform="translate(102,194)"/>
<path d="M0 0 C0.33 0 0.66 0 1 0 C0.67 2.64 0.34 5.28 0 8 C-0.66 8 -1.32 8 -2 8 C-2.125 5.125 -2.125 5.125 -2 2 C-1.34 1.34 -0.68 0.68 0 0 Z " fill="#044715" transform="translate(274,160)"/>
<path d="M0 0 C0.93065133 2.60582371 1.14917407 3.64198224 0.0625 6.25 C-0.4634375 7.11625 -0.4634375 7.11625 -1 8 C-1.66 8 -2.32 8 -3 8 C-2.37240135 5.07120629 -1.41377341 2.63904371 0 0 Z " fill="#034614" transform="translate(265,189)"/>
<path d="M0 0 C0.93065133 2.60582371 1.14917407 3.64198224 0.0625 6.25 C-0.4634375 7.11625 -0.4634375 7.11625 -1 8 C-1.66 7.67 -2.32 7.34 -3 7 C-1.125 1.125 -1.125 1.125 0 0 Z " fill="#074918" transform="translate(181,180)"/>
<path d="M0 0 C-0.33 2.31 -0.66 4.62 -1 7 C-1.66 7 -2.32 7 -3 7 C-3 5.02 -3 3.04 -3 1 C-1 0 -1 0 0 0 Z " fill="#054816" transform="translate(282,135)"/>
</svg>
