<svg xmlns="http://www.w3.org/2000/svg" xmlns:xlink="http://www.w3.org/1999/xlink" width="400" zoomAndPan="magnify" viewBox="0 0 300 299.999988" height="400" preserveAspectRatio="xMidYMid meet" version="1.0"><defs><clipPath id="5471d8d293"><path d="M 218 180 L 269.613281 180 L 269.613281 255 L 218 255 Z M 218 180 " clip-rule="nonzero"/></clipPath><clipPath id="5d91b42eae"><path d="M 30.363281 101 L 254 101 L 254 167 L 30.363281 167 Z M 30.363281 101 " clip-rule="nonzero"/></clipPath></defs><path fill="#edf4ff" d="M 244.117188 254.570312 L 81.945312 254.570312 C 68.628906 254.570312 57.695312 242.238281 57.695312 226.960938 L 57.695312 73.617188 C 57.695312 58.480469 68.628906 46.148438 81.945312 46.148438 L 194.355469 46.148438 C 207.8125 46.148438 218.605469 58.480469 218.605469 73.617188 L 218.605469 184.070312 C 218.605469 185.191406 223.933594 187.292969 223.089844 187.851562 L 237.386719 249.105469 L 238.648438 249.105469 C 240.191406 249.105469 241.3125 250.226562 241.3125 251.769531 C 241.3125 253.308594 245.65625 254.570312 244.117188 254.570312 Z M 244.117188 254.570312 " fill-opacity="1" fill-rule="evenodd"/><g clip-path="url(#5471d8d293)"><path fill="#cde2fe" d="M 244.117188 254.570312 C 230.097656 254.570312 218.605469 241.535156 218.605469 225.558594 L 218.605469 180.425781 L 266.824219 180.425781 C 268.363281 180.425781 269.625 181.6875 269.625 183.226562 L 269.625 225.558594 C 269.625 241.535156 258.132812 254.570312 244.117188 254.570312 Z M 244.117188 254.570312 " fill-opacity="1" fill-rule="evenodd"/></g><g clip-path="url(#5d91b42eae)"><path fill="#d2915a" d="M 250.984375 166.128906 L 33.167969 166.128906 C 31.625 166.128906 30.363281 164.867188 30.363281 163.324219 L 30.363281 103.894531 C 30.363281 102.351562 31.625 101.089844 33.167969 101.089844 L 250.984375 101.089844 C 252.527344 101.089844 253.789062 102.351562 253.789062 103.894531 L 253.789062 163.324219 C 253.789062 164.867188 252.527344 166.128906 250.984375 166.128906 Z M 250.984375 166.128906 " fill-opacity="1" fill-rule="evenodd"/></g><path fill="#cb6ce6" d="M 189.730469 77.964844 L 86.710938 77.964844 C 85.167969 77.964844 83.90625 76.84375 83.90625 75.300781 C 83.90625 73.757812 85.167969 72.496094 86.710938 72.496094 L 189.730469 72.496094 C 191.132812 72.496094 192.394531 73.757812 192.394531 75.300781 C 192.394531 76.84375 191.132812 77.964844 189.730469 77.964844 Z M 189.730469 77.964844 " fill-opacity="1" fill-rule="evenodd"/><path fill="#cb6ce6" d="M 189.730469 92.261719 L 86.710938 92.261719 C 85.167969 92.261719 83.90625 91.140625 83.90625 89.597656 C 83.90625 88.054688 85.167969 86.792969 86.710938 86.792969 L 189.730469 86.792969 C 191.132812 86.792969 192.394531 88.054688 192.394531 89.597656 C 192.394531 91.140625 191.132812 92.261719 189.730469 92.261719 Z M 189.730469 92.261719 " fill-opacity="1" fill-rule="evenodd"/><path fill="#cb6ce6" d="M 189.730469 188.695312 L 86.710938 188.695312 C 85.167969 188.695312 83.90625 187.433594 83.90625 185.890625 C 83.90625 184.488281 85.167969 183.226562 86.710938 183.226562 L 189.730469 183.226562 C 191.132812 183.226562 192.394531 184.488281 192.394531 185.890625 C 192.394531 187.433594 191.132812 188.695312 189.730469 188.695312 Z M 189.730469 188.695312 " fill-opacity="1" fill-rule="evenodd"/><path fill="#cb6ce6" d="M 189.730469 207.617188 L 86.710938 207.617188 C 85.167969 207.617188 83.90625 206.496094 83.90625 204.953125 C 83.90625 203.410156 85.167969 202.148438 86.710938 202.148438 L 189.730469 202.148438 C 191.132812 202.148438 192.394531 203.410156 192.394531 204.953125 C 192.394531 206.496094 191.132812 207.617188 189.730469 207.617188 Z M 189.730469 207.617188 " fill-opacity="1" fill-rule="evenodd"/><path fill="#cb6ce6" d="M 189.730469 226.679688 L 86.710938 226.679688 C 85.167969 226.679688 83.90625 225.417969 83.90625 223.875 C 83.90625 222.332031 85.167969 221.210938 86.710938 221.210938 L 189.730469 221.210938 C 191.132812 221.210938 192.394531 222.332031 192.394531 223.875 C 192.394531 225.417969 191.132812 226.679688 189.730469 226.679688 Z M 189.730469 226.679688 " fill-opacity="1" fill-rule="evenodd"/><path fill="#ffffff" d="M 60.640625 138.9375 L 55.734375 138.9375 L 55.734375 148.046875 C 55.734375 149.449219 54.613281 150.710938 53.070312 150.710938 C 51.527344 150.710938 50.269531 149.449219 50.269531 148.046875 L 50.269531 119.171875 C 50.269531 117.769531 51.527344 116.507812 53.070312 116.507812 L 64.285156 116.507812 C 70.453125 116.507812 75.496094 121.554688 75.496094 127.722656 C 75.496094 132.769531 72.273438 136.972656 67.789062 138.375 L 75.355469 146.085938 C 76.476562 147.066406 76.476562 148.886719 75.355469 149.867188 C 74.9375 150.429688 74.234375 150.710938 73.535156 150.710938 C 72.835938 150.710938 72.132812 150.429688 71.574219 149.867188 Z M 220.988281 150.851562 C 219.445312 150.851562 218.324219 149.589844 218.324219 148.046875 L 218.324219 121.835938 L 210.898438 121.835938 C 209.355469 121.835938 208.234375 120.714844 208.234375 119.171875 C 208.234375 117.628906 209.355469 116.371094 210.898438 116.371094 L 231.082031 116.371094 C 232.621094 116.371094 233.882812 117.628906 233.882812 119.171875 C 233.882812 120.714844 232.621094 121.835938 231.082031 121.835938 L 223.792969 121.835938 L 223.792969 148.046875 C 223.792969 149.589844 222.53125 150.851562 220.988281 150.851562 Z M 200.246094 150.710938 C 199.542969 150.710938 198.84375 150.429688 198.28125 149.867188 L 187.347656 138.9375 L 182.441406 138.9375 L 182.441406 148.046875 C 182.441406 149.449219 181.320312 150.710938 179.78125 150.710938 C 178.238281 150.710938 176.976562 149.449219 176.976562 148.046875 L 176.976562 119.171875 C 176.976562 117.769531 178.238281 116.507812 179.78125 116.507812 L 190.992188 116.507812 C 197.160156 116.507812 202.207031 121.554688 202.207031 127.722656 C 202.207031 132.769531 198.984375 136.972656 194.496094 138.375 L 202.066406 146.085938 C 203.1875 147.066406 203.1875 148.886719 202.066406 149.867188 C 201.644531 150.429688 200.945312 150.710938 200.246094 150.710938 Z M 182.441406 133.46875 L 190.992188 133.46875 C 194.21875 133.46875 196.738281 130.945312 196.738281 127.722656 C 196.738281 124.5 194.21875 121.976562 190.992188 121.976562 L 182.441406 121.976562 Z M 154.550781 150.851562 C 145.160156 150.851562 137.449219 143.140625 137.449219 133.609375 C 137.449219 124.078125 145.160156 116.371094 154.550781 116.371094 C 164.082031 116.371094 171.789062 124.078125 171.789062 133.609375 C 171.789062 143.140625 164.082031 150.851562 154.550781 150.851562 Z M 154.550781 121.835938 C 148.101562 121.835938 142.917969 127.160156 142.917969 133.609375 C 142.917969 140.058594 148.101562 145.242188 154.550781 145.242188 C 160.996094 145.242188 166.324219 140.058594 166.324219 133.609375 C 166.324219 127.160156 160.996094 121.835938 154.550781 121.835938 Z M 113.203125 150.851562 C 111.660156 150.851562 110.398438 149.589844 110.398438 148.046875 L 110.398438 119.171875 C 110.398438 117.628906 111.660156 116.371094 113.203125 116.371094 L 121.332031 116.371094 C 127.359375 116.371094 132.265625 121.273438 132.265625 127.300781 L 132.265625 127.863281 C 132.265625 133.890625 127.359375 138.796875 121.332031 138.796875 L 115.863281 138.796875 L 115.863281 148.046875 C 115.863281 149.589844 114.742188 150.851562 113.203125 150.851562 Z M 115.863281 133.328125 L 121.332031 133.328125 C 124.414062 133.328125 126.796875 130.804688 126.796875 127.863281 L 126.796875 127.300781 C 126.796875 124.359375 124.414062 121.835938 121.332031 121.835938 L 115.863281 121.835938 Z M 99.605469 136.273438 L 87.972656 136.273438 L 87.972656 145.242188 L 99.605469 145.242188 C 101.148438 145.242188 102.410156 146.503906 102.410156 148.046875 C 102.410156 149.589844 101.148438 150.851562 99.605469 150.851562 L 85.308594 150.851562 C 83.765625 150.851562 82.503906 149.589844 82.503906 148.046875 L 82.503906 119.171875 C 82.503906 117.628906 83.765625 116.371094 85.308594 116.371094 L 99.605469 116.371094 C 101.148438 116.371094 102.410156 117.628906 102.410156 119.171875 C 102.410156 120.714844 101.148438 121.835938 99.605469 121.835938 L 87.972656 121.835938 L 87.972656 130.804688 L 99.605469 130.804688 C 101.148438 130.804688 102.410156 132.066406 102.410156 133.609375 C 102.410156 135.152344 101.148438 136.273438 99.605469 136.273438 Z M 55.734375 133.46875 L 64.285156 133.46875 C 67.507812 133.46875 70.03125 130.945312 70.03125 127.722656 C 70.03125 124.5 67.507812 121.976562 64.285156 121.976562 L 55.734375 121.976562 Z M 55.734375 133.46875 " fill-opacity="1" fill-rule="evenodd"/></svg>