<svg xmlns="http://www.w3.org/2000/svg" xmlns:xlink="http://www.w3.org/1999/xlink" width="400" zoomAndPan="magnify" viewBox="0 0 300 299.999988" height="400" preserveAspectRatio="xMidYMid meet" version="1.0"><defs><clipPath id="83ffd11478"><path d="M 150 159 L 264 159 L 264 257.539062 L 150 257.539062 Z M 150 159 " clip-rule="nonzero"/></clipPath><clipPath id="661734975a"><path d="M 26 167 L 188 167 L 188 257.539062 L 26 257.539062 Z M 26 167 " clip-rule="nonzero"/></clipPath><clipPath id="37d5e9041a"><path d="M 26 144 L 245 144 L 245 257.539062 L 26 257.539062 Z M 26 144 " clip-rule="nonzero"/></clipPath></defs><path fill="#1976d2" d="M 243.4375 164.996094 L 236.554688 142.605469 C 236.171875 141.34375 235.6875 140.117188 235.109375 138.933594 C 234.53125 137.746094 233.859375 136.613281 233.097656 135.535156 C 232.335938 134.457031 231.496094 133.445312 230.570312 132.503906 C 229.648438 131.558594 228.65625 130.695312 227.59375 129.910156 C 226.535156 129.125 225.417969 128.433594 224.242188 127.828125 C 223.070312 127.222656 221.859375 126.714844 220.605469 126.304688 C 219.351562 125.894531 218.070312 125.585938 216.769531 125.378906 C 215.464844 125.175781 214.152344 125.074219 212.832031 125.078125 L 76.902344 125.078125 C 75.582031 125.074219 74.269531 125.175781 72.96875 125.378906 C 71.664062 125.585938 70.386719 125.894531 69.128906 126.304688 C 67.875 126.714844 66.664062 127.222656 65.488281 127.828125 C 64.316406 128.433594 63.199219 129.128906 62.136719 129.914062 C 61.078125 130.699219 60.085938 131.5625 59.160156 132.503906 C 58.238281 133.449219 57.394531 134.460938 56.632812 135.539062 C 55.875 136.617188 55.203125 137.75 54.625 138.9375 C 54.042969 140.121094 53.5625 141.347656 53.179688 142.609375 L 49.539062 154.460938 C 49.402344 154.902344 49.304688 155.351562 49.246094 155.808594 C 49.183594 156.269531 49.164062 156.730469 49.179688 157.191406 C 49.195312 157.652344 49.25 158.109375 49.34375 158.5625 C 49.4375 159.015625 49.570312 159.457031 49.734375 159.890625 C 49.902344 160.320312 50.105469 160.734375 50.34375 161.132812 C 50.578125 161.527344 50.847656 161.902344 51.148438 162.253906 C 51.445312 162.605469 51.773438 162.933594 52.125 163.230469 C 52.480469 163.527344 52.855469 163.792969 53.253906 164.027344 L 174.5625 235.4375 C 174.964844 235.671875 175.382812 235.875 175.820312 236.042969 C 176.257812 236.207031 176.707031 236.335938 177.164062 236.425781 C 177.621094 236.515625 178.085938 236.566406 178.550781 236.578125 C 179.019531 236.589844 179.480469 236.5625 179.945312 236.496094 C 180.40625 236.425781 180.859375 236.320312 181.304688 236.179688 C 181.75 236.035156 182.175781 235.855469 182.589844 235.636719 C 183.003906 235.421875 183.398438 235.171875 183.769531 234.886719 C 184.140625 234.601562 184.484375 234.289062 184.804688 233.949219 L 241.574219 173.078125 C 242.070312 172.546875 242.492188 171.957031 242.832031 171.316406 C 243.171875 170.671875 243.425781 169.996094 243.589844 169.289062 C 243.753906 168.578125 243.820312 167.859375 243.796875 167.132812 C 243.769531 166.40625 243.652344 165.695312 243.4375 164.996094 Z M 243.4375 164.996094 " fill-opacity="1" fill-rule="nonzero"/><path fill="#689f38" d="M 94.097656 168.867188 L 61.644531 149.757812 C 61.375 149.601562 61.101562 149.457031 60.816406 149.332031 C 60.53125 149.203125 60.242188 149.09375 59.945312 149 C 59.648438 148.90625 59.347656 148.828125 59.039062 148.769531 C 58.734375 148.710938 58.425781 148.667969 58.117188 148.640625 C 57.804688 148.617188 57.496094 148.609375 57.183594 148.617188 C 56.875 148.628906 56.5625 148.65625 56.257812 148.699219 C 55.949219 148.746094 55.644531 148.808594 55.34375 148.886719 C 55.042969 148.964844 54.746094 149.0625 54.457031 149.175781 C 54.164062 149.289062 53.882812 149.417969 53.605469 149.5625 C 53.332031 149.707031 53.0625 149.867188 52.808594 150.039062 C 52.550781 150.214844 52.300781 150.40625 52.066406 150.605469 C 51.828125 150.808594 51.605469 151.023438 51.394531 151.253906 C 51.179688 151.480469 50.980469 151.71875 50.796875 151.972656 C 50.613281 152.222656 50.441406 152.480469 50.285156 152.75 C 50.128906 153.019531 49.992188 153.300781 49.867188 153.585938 C 49.742188 153.871094 49.632812 154.160156 49.542969 154.460938 L 33.144531 207.785156 C 32.890625 208.609375 32.769531 209.453125 32.78125 210.316406 C 32.789062 211.179688 32.929688 212.019531 33.203125 212.835938 C 33.476562 213.65625 33.867188 214.410156 34.375 215.109375 C 34.882812 215.804688 35.484375 216.40625 36.183594 216.914062 C 36.878906 217.421875 37.636719 217.808594 38.453125 218.082031 C 39.273438 218.351562 40.113281 218.492188 40.972656 218.5 C 41.835938 218.507812 42.675781 218.382812 43.5 218.128906 C 44.324219 217.871094 45.085938 217.496094 45.792969 217.003906 L 94.644531 182.785156 C 94.925781 182.585938 95.195312 182.371094 95.453125 182.140625 C 95.707031 181.90625 95.949219 181.660156 96.171875 181.398438 C 96.398438 181.136719 96.605469 180.863281 96.796875 180.574219 C 96.984375 180.289062 97.15625 179.988281 97.3125 179.679688 C 97.464844 179.371094 97.597656 179.054688 97.710938 178.726562 C 97.824219 178.402344 97.917969 178.070312 97.988281 177.730469 C 98.0625 177.394531 98.113281 177.054688 98.140625 176.710938 C 98.171875 176.367188 98.179688 176.019531 98.167969 175.675781 C 98.152344 175.332031 98.117188 174.988281 98.0625 174.648438 C 98.003906 174.308594 97.929688 173.972656 97.828125 173.640625 C 97.730469 173.308594 97.613281 172.988281 97.472656 172.671875 C 97.335938 172.355469 97.175781 172.046875 97 171.75 C 96.824219 171.457031 96.628906 171.171875 96.417969 170.898438 C 96.203125 170.628906 95.976562 170.371094 95.730469 170.125 C 95.484375 169.882812 95.226562 169.65625 94.953125 169.445312 C 94.679688 169.234375 94.394531 169.042969 94.097656 168.867188 Z M 94.097656 168.867188 " fill-opacity="1" fill-rule="nonzero"/><g clip-path="url(#83ffd11478)"><path fill="#689f38" d="M 262.007812 225.398438 L 243.433594 164.996094 C 243.328125 164.652344 243.199219 164.316406 243.050781 163.988281 C 242.898438 163.65625 242.726562 163.339844 242.535156 163.035156 C 242.34375 162.726562 242.132812 162.433594 241.902344 162.15625 C 241.675781 161.878906 241.425781 161.617188 241.164062 161.371094 C 240.898438 161.125 240.617188 160.894531 240.324219 160.6875 C 240.03125 160.476562 239.722656 160.285156 239.40625 160.117188 C 239.085938 159.949219 238.757812 159.800781 238.417969 159.671875 C 238.082031 159.546875 237.734375 159.445312 237.382812 159.363281 C 237.03125 159.28125 236.675781 159.222656 236.316406 159.191406 C 235.957031 159.15625 235.597656 159.144531 235.234375 159.15625 C 234.875 159.167969 234.515625 159.207031 234.160156 159.265625 C 233.804688 159.324219 233.453125 159.410156 233.109375 159.515625 C 232.761719 159.621094 232.425781 159.75 232.097656 159.898438 C 231.769531 160.046875 231.453125 160.21875 231.144531 160.410156 C 230.839844 160.601562 230.546875 160.8125 230.269531 161.042969 C 229.988281 161.273438 229.726562 161.519531 229.480469 161.785156 L 153.160156 243.613281 C 152.613281 244.203125 152.15625 244.859375 151.800781 245.582031 C 151.441406 246.304688 151.195312 247.0625 151.058594 247.859375 C 150.921875 248.652344 150.902344 249.449219 150.996094 250.25 C 151.09375 251.050781 151.300781 251.820312 151.621094 252.5625 C 151.945312 253.300781 152.363281 253.980469 152.882812 254.59375 C 153.402344 255.210938 154 255.742188 154.671875 256.183594 C 155.347656 256.625 156.070312 256.960938 156.839844 257.195312 C 157.613281 257.425781 158.402344 257.539062 159.207031 257.539062 L 238.285156 257.539062 C 239.253906 257.539062 240.21875 257.484375 241.179688 257.371094 C 242.140625 257.257812 243.09375 257.089844 244.035156 256.867188 C 244.976562 256.640625 245.898438 256.363281 246.808594 256.03125 C 247.71875 255.699219 248.605469 255.3125 249.46875 254.878906 C 250.332031 254.441406 251.167969 253.957031 251.976562 253.421875 C 252.78125 252.886719 253.554688 252.308594 254.292969 251.683594 C 255.035156 251.058594 255.734375 250.394531 256.394531 249.6875 C 257.058594 248.980469 257.675781 248.238281 258.25 247.460938 C 258.824219 246.679688 259.355469 245.871094 259.832031 245.03125 C 260.3125 244.1875 260.742188 243.324219 261.121094 242.433594 C 261.5 241.542969 261.828125 240.632812 262.101562 239.703125 C 262.371094 238.773438 262.589844 237.832031 262.753906 236.875 C 262.914062 235.921875 263.023438 234.960938 263.070312 233.992188 C 263.121094 233.027344 263.117188 232.058594 263.054688 231.09375 C 262.992188 230.128906 262.871094 229.167969 262.695312 228.214844 C 262.523438 227.265625 262.292969 226.324219 262.007812 225.398438 Z M 262.007812 225.398438 " fill-opacity="1" fill-rule="nonzero"/></g><g clip-path="url(#661734975a)"><path fill="#1976d2" d="M 182.949219 221.167969 L 94.09375 168.867188 C 93.410156 168.464844 92.683594 168.164062 91.917969 167.972656 C 91.148438 167.777344 90.367188 167.699219 89.574219 167.730469 C 88.78125 167.761719 88.011719 167.902344 87.261719 168.15625 C 86.507812 168.410156 85.808594 168.761719 85.160156 169.21875 L 36.308594 203.4375 C 34.757812 204.523438 33.703125 205.972656 33.144531 207.785156 L 27.726562 225.394531 C 27.445312 226.320312 27.214844 227.261719 27.039062 228.210938 C 26.863281 229.164062 26.746094 230.125 26.683594 231.089844 C 26.617188 232.058594 26.613281 233.023438 26.664062 233.992188 C 26.714844 234.957031 26.820312 235.917969 26.980469 236.875 C 27.144531 237.828125 27.363281 238.769531 27.632812 239.699219 C 27.90625 240.628906 28.234375 241.539062 28.613281 242.429688 C 28.992188 243.320312 29.421875 244.1875 29.902344 245.027344 C 30.378906 245.867188 30.910156 246.679688 31.484375 247.457031 C 32.058594 248.238281 32.675781 248.980469 33.339844 249.6875 C 34 250.394531 34.699219 251.058594 35.441406 251.683594 C 36.179688 252.308594 36.953125 252.886719 37.761719 253.421875 C 38.566406 253.957031 39.402344 254.441406 40.265625 254.875 C 41.128906 255.3125 42.015625 255.699219 42.925781 256.03125 C 43.835938 256.363281 44.761719 256.640625 45.703125 256.867188 C 46.644531 257.089844 47.59375 257.257812 48.554688 257.371094 C 49.515625 257.484375 50.480469 257.539062 51.449219 257.539062 L 159.207031 257.539062 C 160.355469 257.539062 161.453125 257.3125 162.503906 256.855469 C 163.558594 256.394531 164.472656 255.746094 165.257812 254.910156 L 184.804688 233.949219 C 185.226562 233.496094 185.59375 233 185.90625 232.464844 C 186.21875 231.929688 186.464844 231.367188 186.652344 230.773438 C 186.835938 230.183594 186.953125 229.578125 187.003906 228.960938 C 187.054688 228.339844 187.035156 227.726562 186.945312 227.113281 C 186.855469 226.5 186.699219 225.902344 186.476562 225.324219 C 186.253906 224.746094 185.96875 224.199219 185.625 223.683594 C 185.277344 223.167969 184.878906 222.699219 184.425781 222.273438 C 183.976562 221.851562 183.484375 221.480469 182.949219 221.167969 Z M 182.949219 221.167969 " fill-opacity="1" fill-rule="nonzero"/></g><g clip-path="url(#37d5e9041a)"><path fill="#ffb300" d="M 244.804688 169.535156 L 162.738281 257.539062 L 140.152344 257.539062 L 165.632812 230.21875 L 90.265625 185.84375 L 26.644531 230.386719 C 26.804688 228.6875 27.164062 227.03125 27.722656 225.417969 L 34.007812 205.050781 L 74.628906 176.574219 L 47.660156 160.679688 L 52.625 144.453125 L 177.214844 217.800781 L 238.105469 152.566406 C 238.433594 152.164062 238.816406 151.832031 239.261719 151.570312 Z M 244.804688 169.535156 " fill-opacity="1" fill-rule="nonzero"/></g><path fill="#f44336" d="M 185.25 59.59375 C 182.488281 56.875 179.480469 54.460938 176.226562 52.355469 C 172.972656 50.25 169.542969 48.492188 165.933594 47.082031 C 162.324219 45.675781 158.609375 44.644531 154.789062 43.988281 C 150.96875 43.335938 147.125 43.070312 143.253906 43.199219 C 141.410156 43.265625 139.574219 43.421875 137.75 43.664062 C 135.921875 43.902344 134.109375 44.230469 132.3125 44.644531 C 130.515625 45.054688 128.742188 45.550781 126.992188 46.132812 C 125.246094 46.710938 123.527344 47.375 121.839844 48.117188 C 120.152344 48.859375 118.503906 49.683594 116.894531 50.582031 C 115.285156 51.480469 113.722656 52.453125 112.207031 53.5 C 110.6875 54.546875 109.222656 55.664062 107.8125 56.851562 C 106.402344 58.035156 105.046875 59.285156 103.753906 60.601562 C 102.460938 61.914062 101.234375 63.285156 100.070312 64.71875 C 98.90625 66.148438 97.8125 67.628906 96.789062 69.164062 C 95.765625 70.699219 94.816406 72.277344 93.941406 73.898438 C 93.066406 75.523438 92.273438 77.183594 91.554688 78.882812 C 90.839844 80.582031 90.203125 82.3125 89.648438 84.070312 C 89.097656 85.832031 88.625 87.613281 88.242188 89.417969 C 87.855469 91.21875 87.558594 93.039062 87.34375 94.871094 C 87.128906 96.703125 87.003906 98.539062 86.964844 100.382812 C 86.910156 103.527344 87.117188 106.648438 87.582031 109.757812 C 88.046875 112.867188 88.761719 115.914062 89.730469 118.902344 C 90.699219 121.890625 91.90625 124.78125 93.351562 127.570312 C 94.796875 130.359375 96.464844 133.011719 98.347656 135.523438 C 99.390625 137.089844 125.46875 173.378906 133.804688 184.933594 C 134.109375 185.355469 134.433594 185.757812 134.785156 186.140625 C 135.136719 186.523438 135.511719 186.882812 135.902344 187.222656 C 136.296875 187.5625 136.710938 187.878906 137.140625 188.167969 C 137.570312 188.457031 138.019531 188.722656 138.480469 188.960938 C 138.941406 189.195312 139.414062 189.40625 139.902344 189.589844 C 140.390625 189.769531 140.882812 189.921875 141.390625 190.046875 C 141.894531 190.167969 142.402344 190.261719 142.917969 190.324219 C 143.433594 190.390625 143.953125 190.421875 144.472656 190.425781 C 144.992188 190.425781 145.507812 190.398438 146.023438 190.339844 C 146.539062 190.28125 147.050781 190.191406 147.554688 190.074219 C 148.0625 189.953125 148.558594 189.804688 149.046875 189.628906 C 149.535156 189.449219 150.011719 189.246094 150.476562 189.011719 C 150.9375 188.777344 151.386719 188.519531 151.820312 188.230469 C 152.253906 187.945312 152.667969 187.632812 153.066406 187.296875 C 153.460938 186.960938 153.835938 186.605469 154.191406 186.226562 C 154.546875 185.84375 154.878906 185.445312 155.183594 185.027344 C 155.503906 184.609375 189.910156 137.527344 191.25 135.820312 C 193.097656 133.324219 194.738281 130.703125 196.171875 127.945312 C 197.601562 125.191406 198.808594 122.34375 199.785156 119.394531 C 200.765625 116.449219 201.507812 113.445312 202.007812 110.378906 C 202.511719 107.316406 202.765625 104.230469 202.777344 101.128906 C 202.792969 97.253906 202.417969 93.417969 201.65625 89.621094 C 200.894531 85.820312 199.757812 82.136719 198.253906 78.570312 C 196.746094 75 194.898438 71.617188 192.710938 68.421875 C 190.523438 65.226562 188.035156 62.285156 185.25 59.59375 Z M 185.25 59.59375 " fill-opacity="1" fill-rule="nonzero"/><path fill="#eeeeee" d="M 169.6875 101.898438 C 169.6875 102.710938 169.648438 103.523438 169.566406 104.332031 C 169.488281 105.140625 169.367188 105.945312 169.210938 106.742188 C 169.050781 107.542969 168.855469 108.328125 168.617188 109.109375 C 168.382812 109.886719 168.109375 110.652344 167.796875 111.402344 C 167.488281 112.152344 167.140625 112.886719 166.757812 113.605469 C 166.375 114.324219 165.957031 115.019531 165.503906 115.695312 C 165.050781 116.371094 164.570312 117.027344 164.054688 117.652344 C 163.539062 118.28125 162.992188 118.886719 162.417969 119.460938 C 161.84375 120.035156 161.242188 120.582031 160.613281 121.097656 C 159.984375 121.613281 159.332031 122.097656 158.65625 122.550781 C 157.980469 123 157.285156 123.417969 156.566406 123.800781 C 155.851562 124.183594 155.117188 124.53125 154.367188 124.84375 C 153.613281 125.15625 152.851562 125.429688 152.074219 125.664062 C 151.292969 125.902344 150.507812 126.097656 149.710938 126.257812 C 148.914062 126.417969 148.109375 126.535156 147.300781 126.613281 C 146.492188 126.695312 145.679688 126.734375 144.867188 126.734375 C 144.054688 126.734375 143.242188 126.695312 142.433594 126.613281 C 141.625 126.535156 140.824219 126.417969 140.027344 126.257812 C 139.230469 126.097656 138.441406 125.902344 137.664062 125.664062 C 136.886719 125.429688 136.121094 125.15625 135.371094 124.84375 C 134.617188 124.53125 133.886719 124.183594 133.167969 123.800781 C 132.453125 123.417969 131.753906 123 131.078125 122.550781 C 130.402344 122.097656 129.75 121.613281 129.121094 121.097656 C 128.496094 120.582031 127.894531 120.035156 127.316406 119.460938 C 126.742188 118.886719 126.199219 118.28125 125.683594 117.652344 C 125.167969 117.027344 124.683594 116.371094 124.230469 115.695312 C 123.78125 115.019531 123.363281 114.324219 122.980469 113.605469 C 122.597656 112.886719 122.25 112.152344 121.9375 111.402344 C 121.625 110.652344 121.351562 109.886719 121.117188 109.109375 C 120.882812 108.328125 120.683594 107.542969 120.527344 106.742188 C 120.367188 105.945312 120.246094 105.140625 120.167969 104.332031 C 120.089844 103.523438 120.046875 102.710938 120.046875 101.898438 C 120.046875 101.085938 120.089844 100.273438 120.167969 99.464844 C 120.246094 98.652344 120.367188 97.851562 120.527344 97.050781 C 120.683594 96.253906 120.882812 95.46875 121.117188 94.6875 C 121.351562 93.910156 121.625 93.144531 121.9375 92.394531 C 122.25 91.640625 122.597656 90.90625 122.980469 90.191406 C 123.363281 89.472656 123.78125 88.777344 124.230469 88.101562 C 124.683594 87.421875 125.167969 86.769531 125.683594 86.140625 C 126.199219 85.511719 126.742188 84.910156 127.316406 84.335938 C 127.894531 83.761719 128.496094 83.214844 129.121094 82.699219 C 129.75 82.183594 130.402344 81.699219 131.078125 81.246094 C 131.753906 80.796875 132.453125 80.378906 133.167969 79.996094 C 133.886719 79.609375 134.617188 79.261719 135.371094 78.953125 C 136.121094 78.640625 136.886719 78.367188 137.664062 78.132812 C 138.441406 77.894531 139.230469 77.699219 140.027344 77.539062 C 140.824219 77.378906 141.625 77.261719 142.433594 77.179688 C 143.242188 77.101562 144.054688 77.0625 144.867188 77.0625 C 145.679688 77.0625 146.492188 77.101562 147.300781 77.179688 C 148.109375 77.261719 148.914062 77.378906 149.710938 77.539062 C 150.507812 77.699219 151.292969 77.894531 152.074219 78.132812 C 152.851562 78.367188 153.613281 78.640625 154.367188 78.953125 C 155.117188 79.261719 155.851562 79.609375 156.566406 79.996094 C 157.285156 80.378906 157.980469 80.796875 158.65625 81.246094 C 159.332031 81.699219 159.984375 82.183594 160.613281 82.699219 C 161.242188 83.214844 161.84375 83.761719 162.417969 84.335938 C 162.992188 84.910156 163.539062 85.511719 164.054688 86.140625 C 164.570312 86.769531 165.050781 87.421875 165.503906 88.101562 C 165.957031 88.777344 166.375 89.472656 166.757812 90.191406 C 167.140625 90.90625 167.488281 91.640625 167.796875 92.394531 C 168.109375 93.144531 168.382812 93.910156 168.617188 94.6875 C 168.855469 95.46875 169.050781 96.253906 169.210938 97.050781 C 169.367188 97.851562 169.488281 98.652344 169.566406 99.464844 C 169.648438 100.273438 169.6875 101.085938 169.6875 101.898438 Z M 169.6875 101.898438 " fill-opacity="1" fill-rule="nonzero"/></svg>